SplineFontDB: 3.0
FontName: PoiretOne-Regular
FullName: Poiret One
FamilyName: Poiret One
Weight: Book
Copyright: Copyright (c) 2011, Denis Masharov (denis.masharov@gmail.com)
Version: 1.001
ItalicAngle: 0
UnderlinePosition: -50
UnderlineWidth: 50
Ascent: 800
Descent: 200
sfntRevision: 0x00010042
LayerCount: 2
Layer: 0 1 "Back"  1
Layer: 1 1 "Fore"  0
XUID: [1021 783 241978252 3934675]
FSType: 0
OS2Version: 2
OS2_WeightWidthSlopeOnly: 0
OS2_UseTypoMetrics: 1
CreationTime: 1330104707
ModificationTime: 1330123051
PfmFamily: 17
TTFWeight: 400
TTFWidth: 5
LineGap: 0
VLineGap: 0
Panose: 2 0 0 0 0 0 0 0 0 0
OS2TypoAscent: 162
OS2TypoAOffset: 1
OS2TypoDescent: -8
OS2TypoDOffset: 1
OS2TypoLinegap: 0
OS2WinAscent: 0
OS2WinAOffset: 1
OS2WinDescent: 0
OS2WinDOffset: 1
HheadAscent: 0
HheadAOffset: 1
HheadDescent: 0
HheadDOffset: 1
OS2SubXSize: 700
OS2SubYSize: 650
OS2SubXOff: 0
OS2SubYOff: 140
OS2SupXSize: 700
OS2SupYSize: 650
OS2SupXOff: 0
OS2SupYOff: 477
OS2StrikeYSize: 50
OS2StrikeYPos: 250
OS2Vendor: 'pyrs'
OS2CodePages: 00000097.00000000
OS2UnicodeRanges: a000022f.5000004a.00000000.00000000
Lookup: 258 0 0 "'kern' Horizontal Kerning lookup 0"  {"'kern' Horizontal Kerning lookup 0 subtable"  } ['kern' ('DFLT' <'dflt' > 'cyrl' <'dflt' > 'latn' <'dflt' > ) ]
DEI: 91125
TtTable: prep
PUSHW_1
 511
SCANCTRL
PUSHB_1
 4
SCANTYPE
EndTTInstrs
ShortTable: maxp 16
  1
  0
  504
  60
  7
  0
  0
  2
  0
  1
  1
  0
  64
  0
  0
  0
EndShort
LangName: 1033 "" "" "" "DenisMasharov: Poiret One: 2011" "" "Version 1.001" "" "Poiret is a trademark of Denis Masharov." "Denis Masharov" "Denis Masharov" "" "denis.masharov@gmail.com" "denis.masharov@gmail.com" "This Font Software is licensed under the SIL Open Font License, Version 1.1. This license is available with a FAQ at: http://scripts.sil.org/OFL" "http://scripts.sil.org/OFL" 
GaspTable: 1 65535 15 1
Encoding: UnicodeBmp
UnicodeInterp: none
NameList: Adobe Glyph List
DisplaySize: -24
AntiAlias: 1
FitToEm: 1
BeginChars: 65587 504

StartChar: exclam
Encoding: 33 33 6
Width: 226
GlyphClass: 2
Flags: W
LayerCount: 2
Fore
SplineSet
98 750 m 1,0,-1
 131 750 l 1,1,-1
 131 100 l 1,2,-1
 98 100 l 1,3,-1
 98 750 l 1,0,-1
80 24 m 128,-1,5
 80 55 80 55 113 55 c 128,-1,6
 146 55 146 55 146 24 c 128,-1,7
 146 -7 146 -7 113 -7 c 128,-1,4
 80 -7 80 -7 80 24 c 128,-1,5
EndSplineSet
EndChar

StartChar: quotedbl
Encoding: 34 34 7
Width: 275
GlyphClass: 2
Flags: W
LayerCount: 2
Fore
SplineSet
70 631 m 1,0,-1
 70 810 l 1,1,-1
 103 810 l 1,2,-1
 103 631 l 1,3,-1
 70 631 l 1,0,-1
172 631 m 1,4,-1
 172 810 l 1,5,-1
 205 810 l 1,6,-1
 205 631 l 1,7,-1
 172 631 l 1,4,-1
EndSplineSet
EndChar

StartChar: numbersign
Encoding: 35 35 8
Width: 672
GlyphClass: 2
Flags: W
LayerCount: 2
Fore
SplineSet
15 496 m 1,0,-1
 270 496 l 1,1,-1
 381 748 l 1,2,-1
 414 748 l 1,3,-1
 303 496 l 1,4,-1
 488 496 l 1,5,-1
 599 748 l 1,6,-1
 632 748 l 1,7,-1
 521 496 l 1,8,-1
 657 496 l 1,9,-1
 657 465 l 1,10,-1
 507 465 l 1,11,-1
 439 312 l 1,12,-1
 657 312 l 1,13,-1
 657 281 l 1,14,-1
 426 281 l 1,15,-1
 302 0 l 1,16,-1
 270 0 l 1,17,-1
 394 281 l 1,18,-1
 208 281 l 1,19,-1
 84 0 l 1,20,-1
 53 0 l 1,21,-1
 176 281 l 1,22,-1
 15 281 l 1,23,-1
 15 312 l 1,24,-1
 190 312 l 1,25,-1
 257 465 l 1,26,-1
 15 465 l 1,27,-1
 15 496 l 1,0,-1
290 465 m 1,28,-1
 222 312 l 1,29,-1
 407 312 l 1,30,-1
 475 465 l 1,31,-1
 290 465 l 1,28,-1
EndSplineSet
EndChar

StartChar: dollar
Encoding: 36 36 9
Width: 507
GlyphClass: 2
Flags: W
LayerCount: 2
Fore
SplineSet
116 494 m 128,-1,1
 73 533 73 533 73 600 c 128,-1,2
 73 667 73 667 122 709.5 c 128,-1,3
 171 752 171 752 234 759 c 1,4,-1
 234 815 l 1,5,-1
 265 815 l 1,6,-1
 265 759 l 1,7,8
 348 753 348 753 399 692 c 1,9,-1
 399 644 l 1,10,11
 382 676 382 676 343.5 700 c 128,-1,12
 305 724 305 724 265 730 c 1,13,-1
 265 444 l 1,14,15
 304 427 304 427 326 416.5 c 128,-1,16
 348 406 348 406 380 385 c 128,-1,17
 412 364 412 364 429 344 c 0,18,19
 472 292 472 292 472 221 c 0,20,21
 472 131 472 131 412 65.5 c 128,-1,22
 352 0 352 0 265 -12 c 1,23,-1
 265 -73 l 1,24,-1
 234 -73 l 1,25,-1
 234 -14 l 1,26,27
 172 -12 172 -12 118.5 16 c 128,-1,28
 65 44 65 44 35 89 c 1,29,-1
 35 141 l 1,30,31
 61 88 61 88 116 52.5 c 128,-1,32
 171 17 171 17 234 15 c 1,33,-1
 234 422 l 1,34,0
 159 455 159 455 116 494 c 128,-1,1
384 342 m 0,35,36
 339 378 339 378 265 410 c 1,37,-1
 265 17 l 1,38,39
 339 29 339 29 390 85.5 c 128,-1,40
 441 142 441 142 441 219 c 128,-1,41
 441 296 441 296 384 342 c 0,35,36
144.5 684.5 m 128,-1,43
 106 648 106 648 106 597 c 128,-1,44
 106 546 106 546 139 515.5 c 128,-1,45
 172 485 172 485 234 456 c 1,46,-1
 234 730 l 1,47,42
 183 721 183 721 144.5 684.5 c 128,-1,43
EndSplineSet
EndChar

StartChar: percent
Encoding: 37 37 10
Width: 692
GlyphClass: 2
Flags: W
LayerCount: 2
Fore
SplineSet
511 -11 m 2,0,-1
 501 -11 l 2,1,2
 437 -11 437 -11 390 38 c 128,-1,3
 343 87 343 87 343 153 c 128,-1,4
 343 219 343 219 391 267 c 128,-1,5
 439 315 439 315 507.5 315 c 128,-1,6
 576 315 576 315 624 267 c 128,-1,7
 672 219 672 219 672 153 c 128,-1,8
 672 87 672 87 624.5 38 c 128,-1,9
 577 -11 577 -11 511 -11 c 2,0,-1
600.5 245.5 m 128,-1,11
 561 286 561 286 508 286 c 128,-1,12
 455 286 455 286 415 245.5 c 128,-1,13
 375 205 375 205 375 151.5 c 128,-1,14
 375 98 375 98 415 58 c 128,-1,15
 455 18 455 18 508 18 c 128,-1,16
 561 18 561 18 600.5 58 c 128,-1,17
 640 98 640 98 640 151.5 c 128,-1,10
 640 205 640 205 600.5 245.5 c 128,-1,11
188 435 m 2,18,-1
 178 435 l 2,19,20
 113 435 113 435 66.5 484 c 128,-1,21
 20 533 20 533 20 599 c 128,-1,22
 20 665 20 665 67.5 713 c 128,-1,23
 115 761 115 761 183.5 761 c 128,-1,24
 252 761 252 761 299.5 713 c 128,-1,25
 347 665 347 665 347 599 c 128,-1,26
 347 533 347 533 300 484 c 128,-1,27
 253 435 253 435 188 435 c 2,18,-1
184 732 m 128,-1,29
 130 732 130 732 90 691.5 c 128,-1,30
 50 651 50 651 50 597.5 c 128,-1,31
 50 544 50 544 90 504 c 128,-1,32
 130 464 130 464 184 464 c 128,-1,33
 238 464 238 464 276.5 503.5 c 128,-1,34
 315 543 315 543 315 597 c 128,-1,35
 315 651 315 651 276.5 691.5 c 128,-1,28
 238 732 238 732 184 732 c 128,-1,29
592 750 m 1,36,-1
 631 750 l 1,37,-1
 72 0 l 1,38,-1
 35 0 l 1,39,-1
 592 750 l 1,36,-1
EndSplineSet
EndChar

StartChar: ampersand
Encoding: 38 38 11
Width: 696
GlyphClass: 2
Flags: W
LayerCount: 2
Fore
SplineSet
35 238 m 0,0,1
 35 318 35 318 84.5 385 c 128,-1,2
 134 452 134 452 213 476 c 1,3,4
 176 494 176 494 152 531 c 128,-1,5
 128 568 128 568 128 609 c 0,6,7
 128 672 128 672 173 716 c 128,-1,8
 218 760 218 760 286 760 c 128,-1,9
 354 760 354 760 400 708 c 1,10,-1
 400 655 l 1,11,12
 386 688 386 688 353 710 c 128,-1,13
 320 732 320 732 276.5 732 c 128,-1,14
 233 732 233 732 196.5 695.5 c 128,-1,15
 160 659 160 659 160 610 c 128,-1,16
 160 561 160 561 196.5 524.5 c 128,-1,17
 233 488 233 488 283 488 c 2,18,-1
 297 488 l 1,19,-1
 297 460 l 1,20,-1
 289 460 l 2,21,22
 199 460 199 460 132.5 393.5 c 128,-1,23
 66 327 66 327 66 236.5 c 128,-1,24
 66 146 66 146 132 80.5 c 128,-1,25
 198 15 198 15 289 15 c 128,-1,26
 380 15 380 15 446 80 c 128,-1,27
 512 145 512 145 512 237 c 2,28,-1
 512 460 l 1,29,-1
 373 460 l 1,30,-1
 373 488 l 1,31,-1
 681 488 l 1,32,-1
 681 460 l 1,33,-1
 542 460 l 1,34,-1
 542 0 l 1,35,-1
 512 0 l 1,36,-1
 512 128 l 1,37,38
 490 68 490 68 426.5 27 c 128,-1,39
 363 -14 363 -14 289 -14 c 0,40,41
 184 -14 184 -14 109.5 60.5 c 128,-1,42
 35 135 35 135 35 238 c 0,0,1
EndSplineSet
EndChar

StartChar: quotesingle
Encoding: 39 39 12
Width: 183
GlyphClass: 2
Flags: W
LayerCount: 2
Fore
SplineSet
75 632 m 1,0,-1
 75 810 l 1,1,-1
 108 810 l 1,2,-1
 108 632 l 1,3,-1
 75 632 l 1,0,-1
EndSplineSet
EndChar

StartChar: parenleft
Encoding: 40 40 13
Width: 333
GlyphClass: 2
Flags: W
LayerCount: 2
Fore
SplineSet
145 119 m 128,-1,1
 85 238 85 238 85 367.5 c 128,-1,2
 85 497 85 497 144.5 615 c 128,-1,3
 204 733 204 733 308 818 c 1,4,-1
 308 782 l 1,5,6
 118 608 118 608 118 365 c 0,7,8
 118 245 118 245 168 139 c 128,-1,9
 218 33 218 33 308 -48 c 1,10,-1
 308 -87 l 1,11,0
 205 0 205 0 145 119 c 128,-1,1
EndSplineSet
EndChar

StartChar: parenright
Encoding: 41 41 14
Width: 334
GlyphClass: 2
Flags: W
LayerCount: 2
Fore
SplineSet
191 612.5 m 128,-1,1
 249 497 249 497 249 366.5 c 128,-1,2
 249 236 249 236 189 118 c 128,-1,3
 129 0 129 0 25 -86 c 1,4,-1
 25 -48 l 1,5,6
 116 32 116 32 166 138.5 c 128,-1,7
 216 245 216 245 216 365 c 128,-1,8
 216 485 216 485 166 592 c 128,-1,9
 116 699 116 699 25 779 c 1,10,-1
 25 809 l 1,11,-1
 29 811 l 1,12,0
 133 728 133 728 191 612.5 c 128,-1,1
EndSplineSet
EndChar

StartChar: asterisk
Encoding: 42 42 15
Width: 313
GlyphClass: 2
Flags: W
LayerCount: 2
Fore
SplineSet
146 745 m 1,0,-1
 171 745 l 1,1,-1
 171 654 l 1,2,-1
 240 725 l 1,3,-1
 261 705 l 1,4,-1
 191 635 l 1,5,-1
 278 635 l 1,6,-1
 278 609 l 1,7,-1
 191 609 l 1,8,-1
 260 542 l 1,9,-1
 238 521 l 1,10,-1
 171 590 l 1,11,-1
 171 501 l 1,12,-1
 146 501 l 1,13,-1
 146 591 l 1,14,-1
 77 521 l 1,15,-1
 56 542 l 1,16,-1
 125 609 l 1,17,-1
 35 609 l 1,18,-1
 35 635 l 1,19,-1
 126 635 l 1,20,-1
 55 705 l 1,21,-1
 75 725 l 1,22,-1
 146 654 l 1,23,-1
 146 745 l 1,0,-1
EndSplineSet
EndChar

StartChar: plus
Encoding: 43 43 16
Width: 341
GlyphClass: 2
Flags: W
LayerCount: 2
Fore
SplineSet
155 387 m 1,0,-1
 15 387 l 1,1,-1
 15 418 l 1,2,-1
 155 418 l 1,3,-1
 155 557 l 1,4,-1
 188 557 l 1,5,-1
 188 418 l 1,6,-1
 326 418 l 1,7,-1
 326 387 l 1,8,-1
 188 387 l 1,9,-1
 188 253 l 1,10,-1
 155 253 l 1,11,-1
 155 387 l 1,0,-1
EndSplineSet
EndChar

StartChar: comma
Encoding: 44 44 17
Width: 139
GlyphClass: 2
Flags: W
LayerCount: 2
Fore
SplineSet
66 -63 m 1,0,-1
 66 -7 l 1,1,2
 35 -7 35 -7 35 24 c 128,-1,3
 35 55 35 55 69.5 55 c 128,-1,4
 104 55 104 55 104 24 c 0,5,6
 104 17 104 17 101 8 c 2,7,-1
 70 -63 l 1,8,-1
 66 -63 l 1,0,-1
EndSplineSet
EndChar

StartChar: hyphen
Encoding: 45 45 18
Width: 391
GlyphClass: 2
Flags: W
LayerCount: 2
Fore
SplineSet
351 387 m 1,0,-1
 40 387 l 1,1,-1
 40 418 l 1,2,-1
 351 418 l 1,3,-1
 351 387 l 1,0,-1
EndSplineSet
EndChar

StartChar: period
Encoding: 46 46 19
Width: 139
GlyphClass: 2
Flags: W
LayerCount: 2
Fore
SplineSet
35 24 m 128,-1,1
 35 55 35 55 69.5 55 c 128,-1,2
 104 55 104 55 104 24 c 128,-1,3
 104 -7 104 -7 69.5 -7 c 128,-1,0
 35 -7 35 -7 35 24 c 128,-1,1
EndSplineSet
EndChar

StartChar: slash
Encoding: 47 47 20
Width: 646
GlyphClass: 2
Flags: W
LayerCount: 2
Fore
SplineSet
582 748 m 1,0,-1
 621 748 l 1,1,-1
 62 0 l 1,2,-1
 25 0 l 1,3,-1
 582 748 l 1,0,-1
EndSplineSet
EndChar

StartChar: zero
Encoding: 48 48 21
Width: 856
GlyphClass: 2
Flags: W
LayerCount: 2
Fore
SplineSet
435 -13 m 2,0,-1
 420 -13 l 2,1,2
 265 -13 265 -13 152.5 103 c 128,-1,3
 40 219 40 219 40 375.5 c 128,-1,4
 40 532 40 532 154 646.5 c 128,-1,5
 268 761 268 761 428 761 c 128,-1,6
 588 761 588 761 702 647 c 128,-1,7
 816 533 816 533 816 373 c 0,8,9
 816 272 816 272 765 183 c 128,-1,10
 714 94 714 94 625.5 40.5 c 128,-1,11
 537 -13 537 -13 435 -13 c 2,0,-1
678.5 626.5 m 128,-1,13
 574 732 574 732 427.5 732 c 128,-1,14
 281 732 281 732 177 626.5 c 128,-1,15
 73 521 73 521 73 373.5 c 128,-1,16
 73 226 73 226 177 121 c 128,-1,17
 281 16 281 16 427.5 16 c 128,-1,18
 574 16 574 16 678.5 121 c 128,-1,19
 783 226 783 226 783 373.5 c 128,-1,12
 783 521 783 521 678.5 626.5 c 128,-1,13
EndSplineSet
EndChar

StartChar: one
Encoding: 49 49 22
Width: 241
GlyphClass: 2
Flags: W
LayerCount: 2
Fore
SplineSet
133 0 m 1,0,-1
 133 719 l 1,1,-1
 15 719 l 1,2,-1
 15 748 l 1,3,-1
 166 748 l 1,4,-1
 166 0 l 1,5,-1
 133 0 l 1,0,-1
EndSplineSet
EndChar

StartChar: two
Encoding: 50 50 23
Width: 637
GlyphClass: 2
Flags: W
LayerCount: 2
Fore
SplineSet
556 480 m 0,0,1
 556 581 556 581 490 656 c 128,-1,2
 424 731 424 731 315 731 c 128,-1,3
 206 731 206 731 133.5 652.5 c 128,-1,4
 61 574 61 574 61 462 c 1,5,-1
 30 462 l 1,6,7
 30 589 30 589 112 674 c 128,-1,8
 194 759 194 759 316.5 759 c 128,-1,9
 439 759 439 759 514 676 c 128,-1,10
 589 593 589 593 589 479 c 0,11,12
 589 314 589 314 412 203 c 2,13,-1
 140 33 l 1,14,-1
 586 33 l 1,15,-1
 586 0 l 1,16,-1
 36 0 l 1,17,-1
 385 221 l 2,18,19
 556 329 556 329 556 480 c 0,0,1
EndSplineSet
EndChar

StartChar: three
Encoding: 51 51 24
Width: 589
GlyphClass: 2
Flags: W
LayerCount: 2
Fore
SplineSet
544 242 m 0,0,1
 544 137 544 137 468.5 63.5 c 128,-1,2
 393 -10 393 -10 287 -10 c 128,-1,3
 181 -10 181 -10 105.5 61 c 128,-1,4
 30 132 30 132 30 231 c 2,5,-1
 30 252 l 1,6,-1
 61 252 l 1,7,-1
 61 236 l 2,8,9
 61 145 61 145 126.5 81.5 c 128,-1,10
 192 18 192 18 285 18 c 128,-1,11
 378 18 378 18 444.5 81.5 c 128,-1,12
 511 145 511 145 511 237 c 0,13,14
 511 300 511 300 477.5 359 c 128,-1,15
 444 418 444 418 390 441 c 2,16,-1
 371 449 l 1,17,-1
 389 463 l 2,18,19
 415 483 415 483 429.5 515.5 c 128,-1,20
 444 548 444 548 444 582 c 0,21,22
 444 643 444 643 398.5 688 c 128,-1,23
 353 733 353 733 289.5 733 c 128,-1,24
 226 733 226 733 178.5 686.5 c 128,-1,25
 131 640 131 640 129 575 c 1,26,-1
 97 575 l 1,27,28
 99 652 99 652 154.5 706.5 c 128,-1,29
 210 761 210 761 288.5 761 c 128,-1,30
 367 761 367 761 421.5 710 c 128,-1,31
 476 659 476 659 476 585.5 c 128,-1,32
 476 512 476 512 423 454 c 1,33,34
 478 421 478 421 511 364.5 c 128,-1,35
 544 308 544 308 544 242 c 0,0,1
EndSplineSet
EndChar

StartChar: four
Encoding: 52 52 25
Width: 490
GlyphClass: 2
Flags: W
LayerCount: 2
Fore
SplineSet
355 0 m 1,0,-1
 355 91 l 1,1,-1
 17 91 l 1,2,-1
 388 760 l 1,3,-1
 388 124 l 1,4,-1
 475 124 l 1,5,-1
 475 91 l 1,6,-1
 388 91 l 1,7,-1
 388 0 l 1,8,-1
 355 0 l 1,0,-1
355 124 m 1,9,-1
 355 645 l 1,10,-1
 66 124 l 1,11,-1
 355 124 l 1,9,-1
EndSplineSet
EndChar

StartChar: five
Encoding: 53 53 26
Width: 649
GlyphClass: 2
Flags: W
LayerCount: 2
Fore
SplineSet
521 750 m 1,0,-1
 521 721 l 1,1,-1
 140 721 l 1,2,-1
 113 464 l 1,3,4
 148 509 148 509 203 533 c 128,-1,5
 258 557 258 557 319 557 c 0,6,7
 438 557 438 557 521 473.5 c 128,-1,8
 604 390 604 390 604 272.5 c 128,-1,9
 604 155 604 155 520.5 72.5 c 128,-1,10
 437 -10 437 -10 319 -10 c 0,11,12
 224 -10 224 -10 145.5 50 c 128,-1,13
 67 110 67 110 45 202 c 1,14,-1
 76 202 l 1,15,16
 100 122 100 122 168 70 c 128,-1,17
 236 18 236 18 319 18 c 0,18,19
 424 18 424 18 498 92.5 c 128,-1,20
 572 167 572 167 572 272.5 c 128,-1,21
 572 378 572 378 498 453.5 c 128,-1,22
 424 529 424 529 319 529 c 0,23,24
 257 529 257 529 202 498.5 c 128,-1,25
 147 468 147 468 111 416 c 1,26,-1
 76 416 l 1,27,-1
 111 750 l 1,28,-1
 521 750 l 1,0,-1
EndSplineSet
EndChar

StartChar: six
Encoding: 54 54 27
Width: 631
GlyphClass: 2
Flags: W
LayerCount: 2
Fore
SplineSet
324 555 m 0,0,1
 434 555 434 555 517.5 470 c 128,-1,2
 601 385 601 385 601 269 c 128,-1,3
 601 153 601 153 517 70.5 c 128,-1,4
 433 -12 433 -12 315.5 -12 c 128,-1,5
 198 -12 198 -12 115.5 70 c 128,-1,6
 33 152 33 152 33 267.5 c 128,-1,7
 33 383 33 383 134 499 c 2,8,-1
 353 750 l 1,9,-1
 391 750 l 1,10,-1
 193 523 l 1,11,12
 210 536 210 536 249 545.5 c 128,-1,13
 288 555 288 555 324 555 c 0,0,1
138 90.5 m 128,-1,15
 212 16 212 16 315.5 16 c 128,-1,16
 419 16 419 16 492 90.5 c 128,-1,17
 565 165 565 165 565 270 c 128,-1,18
 565 375 565 375 491.5 451 c 128,-1,19
 418 527 418 527 316 527 c 128,-1,20
 214 527 214 527 139 450.5 c 128,-1,21
 64 374 64 374 64 269.5 c 128,-1,14
 64 165 64 165 138 90.5 c 128,-1,15
EndSplineSet
EndChar

StartChar: seven
Encoding: 55 55 28
Width: 535
GlyphClass: 2
Flags: W
LayerCount: 2
Fore
SplineSet
20 748 m 1,0,-1
 515 748 l 1,1,-1
 129 0 l 1,2,-1
 92 0 l 1,3,-1
 463 719 l 1,4,-1
 20 719 l 1,5,-1
 20 748 l 1,0,-1
EndSplineSet
EndChar

StartChar: eight
Encoding: 56 56 29
Width: 569
GlyphClass: 2
Flags: W
LayerCount: 2
Fore
SplineSet
435 609 m 0,0,1
 435 568 435 568 413 533 c 128,-1,2
 391 498 391 498 353 478 c 1,3,4
 434 458 434 458 486.5 389 c 128,-1,5
 539 320 539 320 539 238 c 0,6,7
 539 134 539 134 464.5 60 c 128,-1,8
 390 -14 390 -14 285 -14 c 128,-1,9
 180 -14 180 -14 105 60.5 c 128,-1,10
 30 135 30 135 30 238 c 0,11,12
 30 318 30 318 80.5 385 c 128,-1,13
 131 452 131 452 210 476 c 1,14,15
 173 494 173 494 149 531 c 128,-1,16
 125 568 125 568 125 609 c 0,17,18
 125 672 125 672 170 716 c 128,-1,19
 215 760 215 760 279.5 760 c 128,-1,20
 344 760 344 760 389.5 716 c 128,-1,21
 435 672 435 672 435 609 c 0,0,1
193.5 695.5 m 128,-1,23
 157 659 157 659 157 610 c 128,-1,24
 157 561 157 561 193.5 524.5 c 128,-1,25
 230 488 230 488 279.5 488 c 128,-1,26
 329 488 329 488 366 524.5 c 128,-1,27
 403 561 403 561 403 610 c 128,-1,28
 403 659 403 659 366 695.5 c 128,-1,29
 329 732 329 732 279.5 732 c 128,-1,22
 230 732 230 732 193.5 695.5 c 128,-1,23
128.5 80.5 m 128,-1,31
 194 15 194 15 285 15 c 128,-1,32
 376 15 376 15 441 80.5 c 128,-1,33
 506 146 506 146 506 237 c 128,-1,34
 506 328 506 328 441 394 c 128,-1,35
 376 460 376 460 285.5 460 c 128,-1,36
 195 460 195 460 129 393.5 c 128,-1,37
 63 327 63 327 63 236.5 c 128,-1,30
 63 146 63 146 128.5 80.5 c 128,-1,31
EndSplineSet
EndChar

StartChar: nine
Encoding: 57 57 30
Width: 631
GlyphClass: 2
Flags: W
LayerCount: 2
Fore
SplineSet
305 195 m 0,0,1
 194 195 194 195 111 279.5 c 128,-1,2
 28 364 28 364 28 480.5 c 128,-1,3
 28 597 28 597 112 679.5 c 128,-1,4
 196 762 196 762 313.5 762 c 128,-1,5
 431 762 431 762 513.5 679.5 c 128,-1,6
 596 597 596 597 596 482 c 128,-1,7
 596 367 596 367 495 251 c 2,8,-1
 276 0 l 1,9,-1
 238 0 l 1,10,-1
 436 227 l 1,11,12
 419 214 419 214 380 204.5 c 128,-1,13
 341 195 341 195 305 195 c 0,0,1
491 659.5 m 128,-1,15
 417 734 417 734 313.5 734 c 128,-1,16
 210 734 210 734 137 659.5 c 128,-1,17
 64 585 64 585 64 480 c 128,-1,18
 64 375 64 375 137.5 299 c 128,-1,19
 211 223 211 223 313 223 c 128,-1,20
 415 223 415 223 490 299.5 c 128,-1,21
 565 376 565 376 565 480.5 c 128,-1,14
 565 585 565 585 491 659.5 c 128,-1,15
EndSplineSet
EndChar

StartChar: colon
Encoding: 58 58 31
Width: 237
GlyphClass: 2
Flags: W
LayerCount: 2
Fore
SplineSet
85 24 m 128,-1,1
 85 55 85 55 118.5 55 c 128,-1,2
 152 55 152 55 152 24 c 128,-1,3
 152 -7 152 -7 118.5 -7 c 128,-1,0
 85 -7 85 -7 85 24 c 128,-1,1
85 292 m 128,-1,5
 85 323 85 323 118.5 323 c 128,-1,6
 152 323 152 323 152 292 c 128,-1,7
 152 261 152 261 118.5 261 c 128,-1,4
 85 261 85 261 85 292 c 128,-1,5
EndSplineSet
EndChar

StartChar: semicolon
Encoding: 59 59 32
Width: 239
GlyphClass: 2
Flags: W
LayerCount: 2
Fore
SplineSet
85 292 m 128,-1,1
 85 323 85 323 119.5 323 c 128,-1,2
 154 323 154 323 154 292 c 128,-1,3
 154 261 154 261 119.5 261 c 128,-1,0
 85 261 85 261 85 292 c 128,-1,1
116 -63 m 1,4,-1
 116 -7 l 1,5,6
 85 -7 85 -7 85 24 c 128,-1,7
 85 55 85 55 119.5 55 c 128,-1,8
 154 55 154 55 154 24 c 0,9,10
 154 17 154 17 151 8 c 2,11,-1
 120 -63 l 1,12,-1
 116 -63 l 1,4,-1
EndSplineSet
EndChar

StartChar: less
Encoding: 60 60 33
Width: 408
GlyphClass: 2
Flags: W
LayerCount: 2
Fore
SplineSet
75 444 m 1,0,-1
 388 626 l 1,1,-1
 388 588 l 1,2,-1
 117 429 l 1,3,-1
 388 269 l 1,4,-1
 388 229 l 1,5,-1
 75 414 l 1,6,-1
 75 444 l 1,0,-1
EndSplineSet
EndChar

StartChar: equal
Encoding: 61 61 34
Width: 411
GlyphClass: 2
Flags: W
LayerCount: 2
Fore
SplineSet
361 461 m 1,0,-1
 50 461 l 1,1,-1
 50 492 l 1,2,-1
 361 492 l 1,3,-1
 361 461 l 1,0,-1
361 333 m 1,4,-1
 50 333 l 1,5,-1
 50 362 l 1,6,-1
 361 362 l 1,7,-1
 361 333 l 1,4,-1
EndSplineSet
EndChar

StartChar: greater
Encoding: 62 62 35
Width: 408
GlyphClass: 2
Flags: W
LayerCount: 2
Fore
SplineSet
75 626 m 1,0,-1
 388 443 l 1,1,-1
 388 414 l 1,2,-1
 75 229 l 1,3,-1
 75 269 l 1,4,-1
 346 429 l 1,5,-1
 75 588 l 1,6,-1
 75 626 l 1,0,-1
EndSplineSet
EndChar

StartChar: question
Encoding: 63 63 36
Width: 646
GlyphClass: 2
Flags: W
LayerCount: 2
Fore
SplineSet
45 511 m 1,0,1
 51 622 51 622 121 692 c 128,-1,2
 191 762 191 762 302.5 762 c 128,-1,3
 414 762 414 762 487.5 689 c 128,-1,4
 561 616 561 616 561 519.5 c 128,-1,5
 561 423 561 423 490 335 c 1,6,7
 421 267 421 267 322 261 c 1,8,-1
 322 96 l 1,9,-1
 290 96 l 1,10,-1
 290 290 l 1,11,-1
 304 290 l 2,12,13
 404 290 404 290 466.5 356 c 128,-1,14
 529 422 529 422 529 514.5 c 128,-1,15
 529 607 529 607 463.5 670 c 128,-1,16
 398 733 398 733 301 733 c 128,-1,17
 204 733 204 733 143.5 672.5 c 128,-1,18
 83 612 83 612 79 511 c 1,19,-1
 45 511 l 1,0,1
274 24 m 128,-1,21
 274 55 274 55 308.5 55 c 128,-1,22
 343 55 343 55 343 24 c 128,-1,23
 343 -7 343 -7 308.5 -7 c 128,-1,20
 274 -7 274 -7 274 24 c 128,-1,21
EndSplineSet
EndChar

StartChar: at
Encoding: 64 64 37
Width: 880
GlyphClass: 2
Flags: W
LayerCount: 2
Fore
SplineSet
447 -13 m 2,0,-1
 432 -13 l 2,1,2
 277 -13 277 -13 163.5 104 c 128,-1,3
 50 221 50 221 50 377.5 c 128,-1,4
 50 534 50 534 165 648.5 c 128,-1,5
 280 763 280 763 441 763 c 128,-1,6
 602 763 602 763 716 649 c 128,-1,7
 830 535 830 535 830 377.5 c 128,-1,8
 830 220 830 220 717 103.5 c 128,-1,9
 604 -13 604 -13 447 -13 c 2,0,-1
692.5 628.5 m 128,-1,11
 588 734 588 734 440.5 734 c 128,-1,12
 293 734 293 734 188 628.5 c 128,-1,13
 83 523 83 523 83 375.5 c 128,-1,14
 83 228 83 228 188 122 c 128,-1,15
 293 16 293 16 440 16 c 128,-1,16
 587 16 587 16 692 122 c 128,-1,17
 797 228 797 228 797 375.5 c 128,-1,10
 797 523 797 523 692.5 628.5 c 128,-1,11
676 600 m 1,18,-1
 676 150 l 1,19,-1
 644 150 l 1,20,-1
 644 255 l 1,21,22
 612 201 612 201 557 170 c 128,-1,23
 502 139 502 139 440 139 c 0,24,25
 342 139 342 139 272 208.5 c 128,-1,26
 202 278 202 278 202 375 c 128,-1,27
 202 472 202 472 272 541.5 c 128,-1,28
 342 611 342 611 440 611 c 0,29,30
 502 611 502 611 557 580 c 128,-1,31
 612 549 612 549 644 495 c 1,32,-1
 644 600 l 1,33,-1
 676 600 l 1,18,-1
295.5 228.5 m 128,-1,35
 357 167 357 167 441.5 167 c 128,-1,36
 526 167 526 167 586 228.5 c 128,-1,37
 646 290 646 290 646 374.5 c 128,-1,38
 646 459 646 459 585.5 521 c 128,-1,39
 525 583 525 583 441 583 c 128,-1,40
 357 583 357 583 295.5 520.5 c 128,-1,41
 234 458 234 458 234 374 c 128,-1,34
 234 290 234 290 295.5 228.5 c 128,-1,35
EndSplineSet
EndChar

StartChar: A
Encoding: 65 65 38
Width: 809
GlyphClass: 2
Flags: W
LayerCount: 2
Fore
SplineSet
404 768 m 1,0,-1
 779 0 l 1,1,-1
 744 0 l 1,2,-1
 602 286 l 1,3,-1
 201 286 l 1,4,-1
 61 0 l 1,5,-1
 30 0 l 1,6,-1
 404 768 l 1,0,-1
401 699 m 1,7,-1
 214 315 l 1,8,-1
 590 315 l 1,9,-1
 401 699 l 1,7,-1
EndSplineSet
EndChar

StartChar: B
Encoding: 66 66 39
Width: 387
GlyphClass: 2
Flags: W
LayerCount: 2
Fore
SplineSet
75 750 m 1,0,-1
 107 750 l 2,1,2
 172 750 172 750 216 709.5 c 128,-1,3
 260 669 260 669 260 606 c 0,4,5
 260 568 260 568 235.5 528.5 c 128,-1,6
 211 489 211 489 178 477 c 1,7,8
 255 458 255 458 306 395 c 128,-1,9
 357 332 357 332 357 236.5 c 128,-1,10
 357 141 357 141 284 70.5 c 128,-1,11
 211 0 211 0 107 0 c 2,12,-1
 75 0 l 1,13,-1
 75 750 l 1,0,-1
107 459 m 1,14,-1
 107 28 l 1,15,-1
 115 28 l 2,16,17
 201 28 201 28 263.5 92 c 128,-1,18
 326 156 326 156 326 244 c 128,-1,19
 326 332 326 332 264 395.5 c 128,-1,20
 202 459 202 459 115 459 c 2,21,-1
 107 459 l 1,14,-1
107 722 m 1,22,-1
 107 486 l 1,23,-1
 115 486 l 2,24,25
 160 486 160 486 194.5 522.5 c 128,-1,26
 229 559 229 559 229 606.5 c 128,-1,27
 229 654 229 654 195 688 c 128,-1,28
 161 722 161 722 115 722 c 2,29,-1
 107 722 l 1,22,-1
EndSplineSet
EndChar

StartChar: C
Encoding: 67 67 40
Width: 698
GlyphClass: 2
Flags: W
LayerCount: 2
Fore
SplineSet
440 -11 m 2,0,-1
 429 -11 l 2,1,2
 326 -11 326 -11 237 43 c 128,-1,3
 148 97 148 97 96.5 186.5 c 128,-1,4
 45 276 45 276 45 377 c 0,5,6
 45 536 45 536 160 650.5 c 128,-1,7
 275 765 275 765 435 765 c 0,8,9
 542 765 542 765 638 709 c 1,10,-1
 638 672 l 1,11,12
 544 736 544 736 435 736 c 0,13,14
 288 736 288 736 183 630.5 c 128,-1,15
 78 525 78 525 78 377.5 c 128,-1,16
 78 230 78 230 183 124 c 128,-1,17
 288 18 288 18 435 18 c 0,18,19
 544 18 544 18 638 82 c 1,20,-1
 638 45 l 1,21,22
 547 -11 547 -11 440 -11 c 2,0,-1
EndSplineSet
EndChar

StartChar: D
Encoding: 68 68 41
Width: 526
GlyphClass: 2
Flags: W
LayerCount: 2
Fore
SplineSet
75 750 m 1,0,-1
 107 750 l 2,1,2
 275 750 275 750 378 639.5 c 128,-1,3
 481 529 481 529 481 374.5 c 128,-1,4
 481 220 481 220 378.5 110 c 128,-1,5
 276 0 276 0 107 0 c 2,6,-1
 75 0 l 1,7,-1
 75 750 l 1,0,-1
115 720 m 2,8,-1
 107 720 l 1,9,-1
 107 31 l 1,10,-1
 115 31 l 2,11,12
 261 31 261 31 354.5 132 c 128,-1,13
 448 233 448 233 448 374.5 c 128,-1,14
 448 516 448 516 354.5 618 c 128,-1,15
 261 720 261 720 115 720 c 2,8,-1
EndSplineSet
EndChar

StartChar: E
Encoding: 69 69 42
Width: 369
GlyphClass: 2
Flags: W
LayerCount: 2
Fore
SplineSet
75 750 m 1,0,-1
 344 750 l 1,1,-1
 344 721 l 1,2,-1
 108 721 l 1,3,-1
 108 313 l 1,4,-1
 305 313 l 1,5,-1
 305 284 l 1,6,-1
 108 284 l 1,7,-1
 108 29 l 1,8,-1
 344 29 l 1,9,-1
 344 0 l 1,10,-1
 75 0 l 1,11,-1
 75 750 l 1,0,-1
EndSplineSet
EndChar

StartChar: F
Encoding: 70 70 43
Width: 367
GlyphClass: 2
Flags: W
LayerCount: 2
Fore
SplineSet
75 750 m 1,0,-1
 342 750 l 1,1,-1
 342 721 l 1,2,-1
 108 721 l 1,3,-1
 108 315 l 1,4,-1
 303 315 l 1,5,-1
 303 286 l 1,6,-1
 108 286 l 1,7,-1
 108 0 l 1,8,-1
 75 0 l 1,9,-1
 75 750 l 1,0,-1
EndSplineSet
EndChar

StartChar: G
Encoding: 71 71 44
Width: 693
GlyphClass: 2
Flags: W
LayerCount: 2
Fore
SplineSet
357 286 m 1,0,-1
 357 315 l 1,1,-1
 638 315 l 1,2,-1
 638 44 l 1,3,4
 550 -11 550 -11 440 -11 c 2,5,-1
 429 -11 l 2,6,7
 326 -11 326 -11 237 43 c 128,-1,8
 148 97 148 97 96.5 186.5 c 128,-1,9
 45 276 45 276 45 377 c 0,10,11
 45 536 45 536 160 650.5 c 128,-1,12
 275 765 275 765 435 765 c 0,13,14
 542 765 542 765 638 709 c 1,15,-1
 638 672 l 1,16,17
 544 736 544 736 435 736 c 0,18,19
 288 736 288 736 183 630.5 c 128,-1,20
 78 525 78 525 78 377.5 c 128,-1,21
 78 230 78 230 183 124 c 128,-1,22
 288 18 288 18 435 18 c 0,23,24
 517 18 517 18 605 60 c 1,25,-1
 605 286 l 1,26,-1
 357 286 l 1,0,-1
EndSplineSet
EndChar

StartChar: H
Encoding: 72 72 45
Width: 730
GlyphClass: 2
Flags: W
LayerCount: 2
Fore
SplineSet
622 750 m 1,0,-1
 655 750 l 1,1,-1
 655 0 l 1,2,-1
 622 0 l 1,3,-1
 622 286 l 1,4,-1
 108 286 l 1,5,-1
 108 0 l 1,6,-1
 75 0 l 1,7,-1
 75 750 l 1,8,-1
 108 750 l 1,9,-1
 108 315 l 1,10,-1
 622 315 l 1,11,-1
 622 750 l 1,0,-1
EndSplineSet
EndChar

StartChar: I
Encoding: 73 73 46
Width: 193
GlyphClass: 2
Flags: W
LayerCount: 2
Fore
SplineSet
80 750 m 1,0,-1
 113 750 l 1,1,-1
 113 0 l 1,2,-1
 80 0 l 1,3,-1
 80 750 l 1,0,-1
EndSplineSet
EndChar

StartChar: J
Encoding: 74 74 47
Width: 467
GlyphClass: 2
Flags: W
LayerCount: 2
Fore
SplineSet
174 721 m 1,0,-1
 174 750 l 1,1,-1
 392 750 l 1,2,-1
 392 230 l 2,3,4
 392 121 392 121 332.5 53 c 128,-1,5
 273 -15 273 -15 177 -15 c 2,6,-1
 167 -15 l 2,7,8
 87 -15 87 -15 20 42 c 1,9,-1
 20 83 l 1,10,11
 83 14 83 14 171 14 c 128,-1,12
 259 14 259 14 309 73.5 c 128,-1,13
 359 133 359 133 359 226 c 2,14,-1
 359 721 l 1,15,-1
 174 721 l 1,0,-1
EndSplineSet
EndChar

StartChar: K
Encoding: 75 75 48
Width: 572
GlyphClass: 2
Flags: W
LayerCount: 2
Fore
SplineSet
75 750 m 1,0,-1
 107 750 l 1,1,-1
 107 475 l 1,2,-1
 424 750 l 1,3,-1
 464 750 l 1,4,-1
 121 451 l 1,5,-1
 552 0 l 1,6,-1
 508 0 l 1,7,-1
 108 417 l 1,8,-1
 108 0 l 1,9,-1
 75 0 l 1,10,-1
 75 750 l 1,0,-1
EndSplineSet
EndChar

StartChar: L
Encoding: 76 76 49
Width: 360
GlyphClass: 2
Flags: W
LayerCount: 2
Fore
SplineSet
108 750 m 1,0,-1
 108 29 l 1,1,-1
 340 29 l 1,2,-1
 340 0 l 1,3,-1
 75 0 l 1,4,-1
 75 750 l 1,5,-1
 108 750 l 1,0,-1
EndSplineSet
EndChar

StartChar: M
Encoding: 77 77 50
Width: 919
GlyphClass: 2
Flags: W
LayerCount: 2
Fore
SplineSet
844 750 m 1,0,-1
 844 0 l 1,1,-1
 811 0 l 1,2,-1
 811 711 l 1,3,-1
 457 -14 l 1,4,-1
 105 711 l 1,5,-1
 105 0 l 1,6,-1
 75 0 l 1,7,-1
 75 750 l 1,8,-1
 123 750 l 1,9,-1
 460 58 l 1,10,-1
 798 750 l 1,11,-1
 844 750 l 1,0,-1
EndSplineSet
EndChar

StartChar: N
Encoding: 78 78 51
Width: 731
GlyphClass: 2
Flags: W
LayerCount: 2
Fore
SplineSet
627 750 m 1,0,-1
 656 750 l 1,1,-1
 656 -11 l 1,2,-1
 104 668 l 1,3,-1
 104 0 l 1,4,-1
 75 0 l 1,5,-1
 75 761 l 1,6,-1
 627 83 l 1,7,-1
 627 750 l 1,0,-1
EndSplineSet
EndChar

StartChar: O
Encoding: 79 79 52
Width: 870
GlyphClass: 2
Flags: W
LayerCount: 2
Fore
SplineSet
158.5 104 m 128,-1,1
 45 221 45 221 45 377.5 c 128,-1,2
 45 534 45 534 160 648.5 c 128,-1,3
 275 763 275 763 436 763 c 128,-1,4
 597 763 597 763 711 649 c 128,-1,5
 825 535 825 535 825 377.5 c 128,-1,6
 825 220 825 220 712 103.5 c 128,-1,7
 599 -13 599 -13 442 -13 c 2,8,-1
 427 -13 l 2,9,0
 272 -13 272 -13 158.5 104 c 128,-1,1
687.5 628.5 m 128,-1,11
 583 734 583 734 435.5 734 c 128,-1,12
 288 734 288 734 183 628.5 c 128,-1,13
 78 523 78 523 78 375.5 c 128,-1,14
 78 228 78 228 183 122 c 128,-1,15
 288 16 288 16 435 16 c 128,-1,16
 582 16 582 16 687 122 c 128,-1,17
 792 228 792 228 792 375.5 c 128,-1,10
 792 523 792 523 687.5 628.5 c 128,-1,11
EndSplineSet
EndChar

StartChar: P
Encoding: 80 80 53
Width: 390
GlyphClass: 2
Flags: W
LayerCount: 2
Fore
SplineSet
74 750 m 1,0,-1
 107 750 l 2,1,2
 211 750 211 750 284 678.5 c 128,-1,3
 357 607 357 607 357 510 c 128,-1,4
 357 413 357 413 281.5 343 c 128,-1,5
 206 273 206 273 115 273 c 2,6,-1
 107 273 l 1,7,-1
 107 0 l 1,8,-1
 74 0 l 1,9,-1
 74 750 l 1,0,-1
107 301 m 1,10,-1
 115 301 l 2,11,12
 199 301 199 301 261.5 363 c 128,-1,13
 324 425 324 425 324 510 c 128,-1,14
 324 595 324 595 260.5 658 c 128,-1,15
 197 721 197 721 115 721 c 2,16,-1
 107 721 l 1,17,-1
 107 301 l 1,10,-1
EndSplineSet
EndChar

StartChar: Q
Encoding: 81 81 54
Width: 870
GlyphClass: 2
Flags: W
LayerCount: 2
Fore
SplineSet
825 376 m 0,0,1
 825 287 825 287 783.5 205.5 c 128,-1,2
 742 124 742 124 673 69 c 1,3,-1
 754 -12 l 1,4,-1
 710 -12 l 1,5,-1
 648 50 l 1,6,7
 553 -12 553 -12 440 -12 c 2,8,-1
 429 -12 l 2,9,10
 326 -12 326 -12 237 42 c 128,-1,11
 148 96 148 96 96.5 185.5 c 128,-1,12
 45 275 45 275 45 376 c 0,13,14
 45 535 45 535 160 649.5 c 128,-1,15
 275 764 275 764 436 764 c 128,-1,16
 597 764 597 764 711 650 c 128,-1,17
 825 536 825 536 825 376 c 0,0,1
435 17 m 0,18,19
 536 17 536 17 626 72 c 1,20,-1
 453 243 l 1,21,-1
 496 243 l 1,22,-1
 650 91 l 1,23,24
 714 142 714 142 753 218 c 128,-1,25
 792 294 792 294 792 376 c 0,26,27
 792 524 792 524 687.5 629.5 c 128,-1,28
 583 735 583 735 435.5 735 c 128,-1,29
 288 735 288 735 183 629.5 c 128,-1,30
 78 524 78 524 78 376.5 c 128,-1,31
 78 229 78 229 183 123 c 128,-1,32
 288 17 288 17 435 17 c 0,18,19
EndSplineSet
EndChar

StartChar: R
Encoding: 82 82 55
Width: 407
GlyphClass: 2
Flags: W
LayerCount: 2
Fore
SplineSet
75 750 m 1,0,-1
 118 750 l 2,1,2
 215 750 215 750 288.5 678.5 c 128,-1,3
 362 607 362 607 362 510.5 c 128,-1,4
 362 414 362 414 287 343 c 128,-1,5
 212 272 212 272 126 272 c 2,6,-1
 119 272 l 1,7,-1
 377 0 l 1,8,-1
 334 0 l 1,9,-1
 107 238 l 1,10,-1
 107 0 l 1,11,-1
 75 0 l 1,12,-1
 75 750 l 1,0,-1
107 301 m 1,13,-1
 125 301 l 2,14,15
 206 301 206 301 268 363 c 128,-1,16
 330 425 330 425 330 510 c 128,-1,17
 330 595 330 595 266 658 c 128,-1,18
 202 721 202 721 120 721 c 2,19,-1
 107 721 l 1,20,-1
 107 301 l 1,13,-1
EndSplineSet
EndChar

StartChar: S
Encoding: 83 83 56
Width: 498
GlyphClass: 2
Flags: W
LayerCount: 2
Fore
SplineSet
314.5 710 m 128,-1,1
 275 734 275 734 226 734 c 128,-1,2
 177 734 177 734 142.5 703.5 c 128,-1,3
 108 673 108 673 108 620 c 2,4,-1
 108 615 l 2,5,6
 108 552 108 552 178 500 c 0,7,8
 208 478 208 478 245.5 456.5 c 128,-1,9
 283 435 283 435 320.5 410.5 c 128,-1,10
 358 386 358 386 388.5 358.5 c 128,-1,11
 419 331 419 331 438.5 291 c 128,-1,12
 458 251 458 251 458 203 c 2,13,-1
 458 193 l 2,14,15
 458 98 458 98 393.5 42 c 128,-1,16
 329 -14 329 -14 234 -14 c 0,17,18
 109 -14 109 -14 40 89 c 1,19,-1
 40 143 l 1,20,21
 66 86 66 86 116.5 50.5 c 128,-1,22
 167 15 167 15 242 15 c 128,-1,23
 317 15 317 15 372 63 c 128,-1,24
 427 111 427 111 427 191 c 2,25,-1
 427 197 l 2,26,27
 427 247 427 247 401 288.5 c 128,-1,28
 375 330 375 330 336 356.5 c 128,-1,29
 297 383 297 383 251 412 c 128,-1,30
 205 441 205 441 166 466 c 128,-1,31
 127 491 127 491 101 529 c 128,-1,32
 75 567 75 567 75 612 c 2,33,-1
 75 619 l 2,34,35
 75 689 75 689 120 726 c 128,-1,36
 165 763 165 763 231 763 c 0,37,38
 323 763 323 763 377 695 c 1,39,-1
 377 644 l 1,40,0
 354 686 354 686 314.5 710 c 128,-1,1
EndSplineSet
EndChar

StartChar: T
Encoding: 84 84 57
Width: 417
GlyphClass: 2
Flags: W
LayerCount: 2
Fore
SplineSet
397 750 m 1,0,-1
 397 721 l 1,1,-1
 226 721 l 1,2,-1
 226 0 l 1,3,-1
 193 0 l 1,4,-1
 193 721 l 1,5,-1
 20 721 l 1,6,-1
 20 750 l 1,7,-1
 397 750 l 1,0,-1
EndSplineSet
EndChar

StartChar: U
Encoding: 85 85 58
Width: 597
GlyphClass: 2
Flags: W
LayerCount: 2
Fore
SplineSet
304 -14 m 2,0,-1
 294 -14 l 2,1,2
 202 -14 202 -14 138.5 50 c 128,-1,3
 75 114 75 114 75 211 c 2,4,-1
 75 750 l 1,5,-1
 108 750 l 1,6,-1
 108 212 l 2,7,8
 108 127 108 127 163 71 c 128,-1,9
 218 15 218 15 299 15 c 128,-1,10
 380 15 380 15 434.5 70.5 c 128,-1,11
 489 126 489 126 489 212 c 2,12,-1
 489 750 l 1,13,-1
 522 750 l 1,14,-1
 522 213 l 2,15,16
 522 115 522 115 458.5 50.5 c 128,-1,17
 395 -14 395 -14 304 -14 c 2,0,-1
EndSplineSet
EndChar

StartChar: V
Encoding: 86 86 59
Width: 786
GlyphClass: 2
Flags: W
LayerCount: 2
Fore
SplineSet
393 -17 m 1,0,-1
 20 750 l 1,1,-1
 56 750 l 1,2,-1
 396 55 l 1,3,-1
 734 750 l 1,4,-1
 766 750 l 1,5,-1
 393 -17 l 1,0,-1
EndSplineSet
EndChar

StartChar: W
Encoding: 87 87 60
Width: 1023
GlyphClass: 2
Flags: W
LayerCount: 2
Fore
SplineSet
349 -13 m 1,0,-1
 20 750 l 1,1,-1
 57 750 l 1,2,-1
 354 63 l 1,3,-1
 493 388 l 1,4,-1
 338 750 l 1,5,-1
 374 750 l 1,6,-1
 513 421 l 1,7,-1
 656 750 l 1,8,-1
 684 750 l 1,9,-1
 528 389 l 1,10,-1
 670 60 l 1,11,-1
 973 750 l 1,12,-1
 1000 750 l 1,13,-1
 667 -13 l 1,14,-1
 508 353 l 1,15,-1
 349 -13 l 1,0,-1
EndSplineSet
EndChar

StartChar: X
Encoding: 88 88 61
Width: 483
GlyphClass: 2
Flags: W
LayerCount: 2
Fore
SplineSet
419 750 m 1,0,-1
 258 420 l 1,1,-1
 463 0 l 1,2,-1
 426 0 l 1,3,-1
 239 385 l 1,4,-1
 51 0 l 1,5,-1
 20 0 l 1,6,-1
 223 419 l 1,7,-1
 58 750 l 1,8,-1
 96 750 l 1,9,-1
 242 453 l 1,10,-1
 387 750 l 1,11,-1
 419 750 l 1,0,-1
EndSplineSet
EndChar

StartChar: Y
Encoding: 89 89 62
Width: 524
GlyphClass: 2
Flags: W
LayerCount: 2
Fore
SplineSet
281 0 m 1,0,-1
 248 0 l 1,1,-1
 248 300 l 1,2,-1
 20 750 l 1,3,-1
 56 750 l 1,4,-1
 267 335 l 1,5,-1
 474 750 l 1,6,-1
 504 750 l 1,7,-1
 281 300 l 1,8,-1
 281 0 l 1,0,-1
EndSplineSet
EndChar

StartChar: Z
Encoding: 90 90 63
Width: 427
GlyphClass: 2
Flags: W
LayerCount: 2
Fore
SplineSet
402 29 m 1,0,-1
 402 0 l 1,1,-1
 25 0 l 1,2,-1
 355 721 l 1,3,-1
 25 721 l 1,4,-1
 25 750 l 1,5,-1
 405 750 l 1,6,-1
 74 29 l 1,7,-1
 402 29 l 1,0,-1
EndSplineSet
EndChar

StartChar: bracketleft
Encoding: 91 91 64
Width: 215
GlyphClass: 2
Flags: W
LayerCount: 2
Fore
SplineSet
105 787 m 1,0,-1
 105 -54 l 1,1,-1
 200 -54 l 1,2,-1
 200 -83 l 1,3,-1
 72 -83 l 1,4,-1
 72 816 l 1,5,-1
 200 816 l 1,6,-1
 200 787 l 1,7,-1
 105 787 l 1,0,-1
EndSplineSet
EndChar

StartChar: backslash
Encoding: 92 92 65
Width: 646
GlyphClass: 2
Flags: W
LayerCount: 2
Fore
SplineSet
25 748 m 1,0,-1
 63 748 l 1,1,-1
 621 0 l 1,2,-1
 583 0 l 1,3,-1
 25 748 l 1,0,-1
EndSplineSet
EndChar

StartChar: bracketright
Encoding: 93 93 66
Width: 215
GlyphClass: 2
Flags: W
LayerCount: 2
Fore
SplineSet
112 -54 m 1,0,-1
 112 787 l 1,1,-1
 15 787 l 1,2,-1
 15 816 l 1,3,-1
 145 816 l 1,4,-1
 145 -83 l 1,5,-1
 15 -83 l 1,6,-1
 15 -54 l 1,7,-1
 112 -54 l 1,0,-1
EndSplineSet
EndChar

StartChar: asciicircum
Encoding: 94 94 67
Width: 330
GlyphClass: 2
Flags: W
LayerCount: 2
Fore
SplineSet
177 679 m 1,0,-1
 315 540 l 1,1,-1
 274 540 l 1,2,-1
 166 648 l 1,3,-1
 57 540 l 1,4,-1
 15 540 l 1,5,-1
 155 679 l 1,6,-1
 177 679 l 1,0,-1
EndSplineSet
EndChar

StartChar: underscore
Encoding: 95 95 68
Width: 358
GlyphClass: 2
Flags: W
LayerCount: 2
Fore
SplineSet
333 0 m 1,0,-1
 25 0 l 1,1,-1
 25 31 l 1,2,-1
 333 31 l 1,3,-1
 333 0 l 1,0,-1
EndSplineSet
EndChar

StartChar: grave
Encoding: 96 96 69
Width: 211
GlyphClass: 2
Flags: W
LayerCount: 2
Fore
SplineSet
15 644 m 1,0,-1
 56 644 l 1,1,-1
 196 529 l 1,2,-1
 154 529 l 1,3,-1
 15 644 l 1,0,-1
EndSplineSet
EndChar

StartChar: a
Encoding: 97 97 70
Width: 569
GlyphClass: 2
Flags: W
LayerCount: 2
Fore
SplineSet
509 450 m 1,0,-1
 509 0 l 1,1,-1
 477 0 l 1,2,-1
 477 112 l 1,3,4
 449 55 449 55 393 22 c 128,-1,5
 337 -11 337 -11 273 -11 c 0,6,7
 175 -11 175 -11 105 58.5 c 128,-1,8
 35 128 35 128 35 225 c 128,-1,9
 35 322 35 322 105 391.5 c 128,-1,10
 175 461 175 461 273 461 c 0,11,12
 337 461 337 461 395.5 427 c 128,-1,13
 454 393 454 393 477 337 c 1,14,-1
 477 450 l 1,15,-1
 509 450 l 1,0,-1
128.5 78.5 m 128,-1,17
 190 17 190 17 274.5 17 c 128,-1,18
 359 17 359 17 419 78.5 c 128,-1,19
 479 140 479 140 479 224.5 c 128,-1,20
 479 309 479 309 418.5 371 c 128,-1,21
 358 433 358 433 274 433 c 128,-1,22
 190 433 190 433 128.5 370.5 c 128,-1,23
 67 308 67 308 67 224 c 128,-1,16
 67 140 67 140 128.5 78.5 c 128,-1,17
EndSplineSet
EndChar

StartChar: b
Encoding: 98 98 71
Width: 569
GlyphClass: 2
Flags: W
LayerCount: 2
Fore
SplineSet
60 0 m 1,0,-1
 60 750 l 1,1,-1
 92 750 l 1,2,-1
 92 340 l 1,3,4
 119 395 119 395 176.5 428 c 128,-1,5
 234 461 234 461 296 461 c 0,6,7
 395 461 395 461 464.5 391.5 c 128,-1,8
 534 322 534 322 534 225 c 128,-1,9
 534 128 534 128 464.5 58.5 c 128,-1,10
 395 -11 395 -11 296 -11 c 0,11,12
 236 -11 236 -11 179 21.5 c 128,-1,13
 122 54 122 54 92 109 c 1,14,-1
 92 0 l 1,15,-1
 60 0 l 1,0,-1
151.5 78.5 m 128,-1,17
 213 17 213 17 297.5 17 c 128,-1,18
 382 17 382 17 442 78.5 c 128,-1,19
 502 140 502 140 502 224.5 c 128,-1,20
 502 309 502 309 441.5 371 c 128,-1,21
 381 433 381 433 297 433 c 128,-1,22
 213 433 213 433 151.5 370.5 c 128,-1,23
 90 308 90 308 90 224 c 128,-1,16
 90 140 90 140 151.5 78.5 c 128,-1,17
EndSplineSet
EndChar

StartChar: c
Encoding: 99 99 72
Width: 476
GlyphClass: 2
Flags: W
LayerCount: 2
Fore
SplineSet
278 -13 m 2,0,-1
 269 -13 l 2,1,2
 173 -13 173 -13 104 58 c 128,-1,3
 35 129 35 129 35 224.5 c 128,-1,4
 35 320 35 320 105 389.5 c 128,-1,5
 175 459 175 459 277 459 c 128,-1,6
 379 459 379 459 451 382 c 1,7,-1
 451 331 l 1,8,9
 420 377 420 377 372.5 404 c 128,-1,10
 325 431 325 431 273 431 c 0,11,12
 190 431 190 431 128.5 369.5 c 128,-1,13
 67 308 67 308 67 223 c 128,-1,14
 67 138 67 138 128.5 76.5 c 128,-1,15
 190 15 190 15 273 15 c 0,16,17
 325 15 325 15 372.5 42 c 128,-1,18
 420 69 420 69 451 116 c 1,19,-1
 451 64 l 1,20,21
 381 -13 381 -13 278 -13 c 2,0,-1
EndSplineSet
EndChar

StartChar: d
Encoding: 100 100 73
Width: 569
GlyphClass: 2
Flags: W
LayerCount: 2
Fore
SplineSet
509 750 m 1,0,-1
 509 0 l 1,1,-1
 477 0 l 1,2,-1
 477 109 l 1,3,4
 447 54 447 54 390 21.5 c 128,-1,5
 333 -11 333 -11 273 -11 c 0,6,7
 174 -11 174 -11 104.5 58.5 c 128,-1,8
 35 128 35 128 35 225 c 128,-1,9
 35 322 35 322 104.5 391.5 c 128,-1,10
 174 461 174 461 273 461 c 0,11,12
 335 461 335 461 392.5 428 c 128,-1,13
 450 395 450 395 477 340 c 1,14,-1
 477 750 l 1,15,-1
 509 750 l 1,0,-1
127 78.5 m 128,-1,17
 187 17 187 17 271.5 17 c 128,-1,18
 356 17 356 17 417.5 78.5 c 128,-1,19
 479 140 479 140 479 224 c 128,-1,20
 479 308 479 308 417.5 370.5 c 128,-1,21
 356 433 356 433 272 433 c 128,-1,22
 188 433 188 433 127.5 371 c 128,-1,23
 67 309 67 309 67 224.5 c 128,-1,16
 67 140 67 140 127 78.5 c 128,-1,17
EndSplineSet
EndChar

StartChar: e
Encoding: 101 101 74
Width: 495
GlyphClass: 2
Flags: W
LayerCount: 2
Fore
SplineSet
285 -12 m 2,0,-1
 276 -12 l 2,1,2
 181 -12 181 -12 110.5 59.5 c 128,-1,3
 40 131 40 131 40 226 c 128,-1,4
 40 321 40 321 110 390.5 c 128,-1,5
 180 460 180 460 283 460 c 128,-1,6
 386 460 386 460 460 378 c 1,7,-1
 146 68 l 1,8,9
 211 16 211 16 271 16 c 128,-1,10
 331 16 331 16 378.5 43.5 c 128,-1,11
 426 71 426 71 457 117 c 1,12,-1
 457 66 l 1,13,14
 386 -12 386 -12 285 -12 c 2,0,-1
133.5 370.5 m 128,-1,16
 72 309 72 309 72 229 c 128,-1,17
 72 149 72 149 125 89 c 1,18,-1
 416 378 l 1,19,20
 354 432 354 432 274.5 432 c 128,-1,15
 195 432 195 432 133.5 370.5 c 128,-1,16
EndSplineSet
EndChar

StartChar: f
Encoding: 102 102 75
Width: 252
GlyphClass: 2
Flags: W
LayerCount: 2
Fore
SplineSet
231 632 m 1,0,-1
 231 604 l 1,1,2
 173 604 173 604 132.5 564 c 128,-1,3
 92 524 92 524 92 463 c 2,4,-1
 92 200 l 1,5,-1
 232 200 l 1,6,-1
 232 172 l 1,7,-1
 92 172 l 1,8,-1
 92 0 l 1,9,-1
 60 0 l 1,10,-1
 60 463 l 2,11,12
 60 537 60 537 110 584.5 c 128,-1,13
 160 632 160 632 231 632 c 1,0,-1
EndSplineSet
EndChar

StartChar: g
Encoding: 103 103 76
Width: 570
GlyphClass: 2
Flags: W
LayerCount: 2
Fore
SplineSet
478 450 m 1,0,-1
 510 450 l 1,1,-1
 510 42 l 2,2,3
 510 -74 510 -74 446 -141 c 128,-1,4
 382 -208 382 -208 278 -208 c 0,5,6
 221 -208 221 -208 167 -182 c 128,-1,7
 113 -156 113 -156 83 -114 c 1,8,-1
 83 -68 l 1,9,10
 109 -116 109 -116 164.5 -148 c 128,-1,11
 220 -180 220 -180 278 -180 c 0,12,13
 366 -180 366 -180 422 -120.5 c 128,-1,14
 478 -61 478 -61 478 42 c 2,15,-1
 478 109 l 1,16,17
 451 54 451 54 393 21 c 128,-1,18
 335 -12 335 -12 273 -12 c 0,19,20
 175 -12 175 -12 105 57.5 c 128,-1,21
 35 127 35 127 35 224 c 128,-1,22
 35 321 35 321 105 390.5 c 128,-1,23
 175 460 175 460 273 460 c 0,24,25
 338 460 338 460 394.5 427.5 c 128,-1,26
 451 395 451 395 478 338 c 1,27,-1
 478 450 l 1,0,-1
128.5 77.5 m 128,-1,29
 190 16 190 16 274.5 16 c 128,-1,30
 359 16 359 16 419 77.5 c 128,-1,31
 479 139 479 139 479 224 c 128,-1,32
 479 309 479 309 419 370.5 c 128,-1,33
 359 432 359 432 274.5 432 c 128,-1,34
 190 432 190 432 128.5 370.5 c 128,-1,35
 67 309 67 309 67 224 c 128,-1,28
 67 139 67 139 128.5 77.5 c 128,-1,29
EndSplineSet
EndChar

StartChar: h
Encoding: 104 104 77
Width: 514
GlyphClass: 2
Flags: W
LayerCount: 2
Fore
SplineSet
92 0 m 1,0,-1
 60 0 l 1,1,-1
 60 749 l 1,2,-1
 92 749 l 1,3,-1
 92 363 l 1,4,5
 142 461 142 461 265 461 c 0,6,7
 349 461 349 461 406.5 403 c 128,-1,8
 464 345 464 345 464 262 c 2,9,-1
 464 0 l 1,10,-1
 432 0 l 1,11,-1
 432 262 l 2,12,13
 432 332 432 332 383 382.5 c 128,-1,14
 334 433 334 433 265 433 c 128,-1,15
 196 433 196 433 144 382 c 128,-1,16
 92 331 92 331 92 262 c 2,17,-1
 92 0 l 1,0,-1
EndSplineSet
EndChar

StartChar: i
Encoding: 105 105 78
Width: 178
GlyphClass: 2
Flags: W
LayerCount: 2
Fore
SplineSet
105 449 m 1,0,-1
 105 0 l 1,1,-1
 73 0 l 1,2,-1
 73 449 l 1,3,-1
 105 449 l 1,0,-1
60 586 m 128,-1,5
 60 613 60 613 89 613 c 128,-1,6
 118 613 118 613 118 586 c 128,-1,7
 118 559 118 559 89 559 c 128,-1,4
 60 559 60 559 60 586 c 128,-1,5
EndSplineSet
EndChar

StartChar: j
Encoding: 106 106 79
Width: 242
GlyphClass: 2
Flags: W
LayerCount: 2
Fore
SplineSet
-5 -198 m 1,0,-1
 -5 -170 l 1,1,2
 54 -170 54 -170 95 -130 c 128,-1,3
 136 -90 136 -90 136 -29 c 2,4,-1
 136 450 l 1,5,-1
 168 450 l 1,6,-1
 168 -29 l 2,7,8
 168 -103 168 -103 117.5 -150.5 c 128,-1,9
 67 -198 67 -198 -5 -198 c 1,0,-1
124 586 m 128,-1,11
 124 613 124 613 153 613 c 128,-1,12
 182 613 182 613 182 586 c 128,-1,13
 182 559 182 559 153 559 c 128,-1,10
 124 559 124 559 124 586 c 128,-1,11
EndSplineSet
EndChar

StartChar: k
Encoding: 107 107 80
Width: 388
GlyphClass: 2
Flags: W
LayerCount: 2
Fore
SplineSet
60 748 m 1,0,-1
 92 748 l 1,1,-1
 92 294 l 1,2,-1
 270 450 l 1,3,-1
 311 450 l 1,4,-1
 105 270 l 1,5,-1
 363 0 l 1,6,-1
 320 0 l 1,7,-1
 92 237 l 1,8,-1
 92 0 l 1,9,-1
 60 0 l 1,10,-1
 60 748 l 1,0,-1
EndSplineSet
EndChar

StartChar: l
Encoding: 108 108 81
Width: 251
GlyphClass: 2
Flags: W
LayerCount: 2
Fore
SplineSet
231 19 m 1,0,-1
 231 -9 l 1,1,2
 160 -9 160 -9 110 38.5 c 128,-1,3
 60 86 60 86 60 160 c 2,4,-1
 60 750 l 1,5,-1
 92 750 l 1,6,-1
 92 160 l 2,7,8
 92 99 92 99 132.5 59 c 128,-1,9
 173 19 173 19 231 19 c 1,0,-1
EndSplineSet
EndChar

StartChar: m
Encoding: 109 109 82
Width: 746
GlyphClass: 2
Flags: W
LayerCount: 2
Fore
SplineSet
429.5 432 m 128,-1,1
 472 461 472 461 533 461 c 128,-1,2
 594 461 594 461 640 417 c 128,-1,3
 686 373 686 373 686 298 c 2,4,-1
 686 0 l 1,5,-1
 654 0 l 1,6,-1
 654 298 l 2,7,8
 654 356 654 356 616 394.5 c 128,-1,9
 578 433 578 433 524.5 433 c 128,-1,10
 471 433 471 433 429.5 393 c 128,-1,11
 388 353 388 353 388 300 c 2,12,-1
 388 0 l 1,13,-1
 356 0 l 1,14,-1
 356 300 l 2,15,16
 356 354 356 354 318 393.5 c 128,-1,17
 280 433 280 433 226 433 c 128,-1,18
 172 433 172 433 132 393 c 128,-1,19
 92 353 92 353 92 300 c 2,20,-1
 92 0 l 1,21,-1
 60 0 l 1,22,-1
 60 450 l 1,23,-1
 92 450 l 1,24,-1
 92 387 l 1,25,26
 112 417 112 417 151.5 439 c 128,-1,27
 191 461 191 461 233.5 461 c 128,-1,28
 276 461 276 461 315 431.5 c 128,-1,29
 354 402 354 402 372 355 c 1,30,0
 387 403 387 403 429.5 432 c 128,-1,1
EndSplineSet
EndChar

StartChar: n
Encoding: 110 110 83
Width: 524
GlyphClass: 2
Flags: W
LayerCount: 2
Fore
SplineSet
92 0 m 1,0,-1
 60 0 l 1,1,-1
 60 450 l 1,2,-1
 92 450 l 1,3,-1
 92 359 l 1,4,5
 143 461 143 461 266 461 c 0,6,7
 350 461 350 461 407 403 c 128,-1,8
 464 345 464 345 464 262 c 2,9,-1
 464 0 l 1,10,-1
 432 0 l 1,11,-1
 432 262 l 2,12,13
 432 331 432 331 383.5 382 c 128,-1,14
 335 433 335 433 266 433 c 128,-1,15
 197 433 197 433 144.5 382 c 128,-1,16
 92 331 92 331 92 262 c 2,17,-1
 92 0 l 1,0,-1
EndSplineSet
EndChar

StartChar: o
Encoding: 111 111 84
Width: 546
GlyphClass: 2
Flags: W
LayerCount: 2
Fore
SplineSet
104 60.5 m 128,-1,1
 35 132 35 132 35 227 c 128,-1,2
 35 322 35 322 105 391.5 c 128,-1,3
 175 461 175 461 273.5 461 c 128,-1,4
 372 461 372 461 441.5 391.5 c 128,-1,5
 511 322 511 322 511 226.5 c 128,-1,6
 511 131 511 131 443 60 c 128,-1,7
 375 -11 375 -11 278 -11 c 2,8,-1
 269 -11 l 2,9,0
 173 -11 173 -11 104 60.5 c 128,-1,1
418.5 371 m 128,-1,11
 358 433 358 433 274 433 c 128,-1,12
 190 433 190 433 128.5 370.5 c 128,-1,13
 67 308 67 308 67 224 c 128,-1,14
 67 140 67 140 128.5 78.5 c 128,-1,15
 190 17 190 17 274.5 17 c 128,-1,16
 359 17 359 17 419 78.5 c 128,-1,17
 479 140 479 140 479 224.5 c 128,-1,10
 479 309 479 309 418.5 371 c 128,-1,11
EndSplineSet
EndChar

StartChar: p
Encoding: 112 112 85
Width: 569
GlyphClass: 2
Flags: W
LayerCount: 2
Fore
SplineSet
60 -200 m 1,0,-1
 60 450 l 1,1,-1
 92 450 l 1,2,-1
 92 340 l 1,3,4
 119 395 119 395 176.5 428 c 128,-1,5
 234 461 234 461 296 461 c 0,6,7
 395 461 395 461 464.5 391.5 c 128,-1,8
 534 322 534 322 534 225 c 128,-1,9
 534 128 534 128 464.5 58.5 c 128,-1,10
 395 -11 395 -11 296 -11 c 0,11,12
 236 -11 236 -11 179 21.5 c 128,-1,13
 122 54 122 54 92 109 c 1,14,-1
 92 -200 l 1,15,-1
 60 -200 l 1,0,-1
151.5 78.5 m 128,-1,17
 213 17 213 17 297.5 17 c 128,-1,18
 382 17 382 17 442 78.5 c 128,-1,19
 502 140 502 140 502 224.5 c 128,-1,20
 502 309 502 309 441.5 371 c 128,-1,21
 381 433 381 433 297 433 c 128,-1,22
 213 433 213 433 151.5 370.5 c 128,-1,23
 90 308 90 308 90 224 c 128,-1,16
 90 140 90 140 151.5 78.5 c 128,-1,17
EndSplineSet
EndChar

StartChar: q
Encoding: 113 113 86
Width: 569
GlyphClass: 2
Flags: W
LayerCount: 2
Fore
SplineSet
509 450 m 1,0,-1
 509 -200 l 1,1,-1
 477 -200 l 1,2,-1
 477 112 l 1,3,4
 449 55 449 55 393 22 c 128,-1,5
 337 -11 337 -11 273 -11 c 0,6,7
 175 -11 175 -11 105 58.5 c 128,-1,8
 35 128 35 128 35 225 c 128,-1,9
 35 322 35 322 105 391.5 c 128,-1,10
 175 461 175 461 273 461 c 0,11,12
 337 461 337 461 395.5 427 c 128,-1,13
 454 393 454 393 477 337 c 1,14,-1
 477 450 l 1,15,-1
 509 450 l 1,0,-1
128.5 78.5 m 128,-1,17
 190 17 190 17 274.5 17 c 128,-1,18
 359 17 359 17 419 78.5 c 128,-1,19
 479 140 479 140 479 224.5 c 128,-1,20
 479 309 479 309 418.5 371 c 128,-1,21
 358 433 358 433 274 433 c 128,-1,22
 190 433 190 433 128.5 370.5 c 128,-1,23
 67 308 67 308 67 224 c 128,-1,16
 67 140 67 140 128.5 78.5 c 128,-1,17
EndSplineSet
EndChar

StartChar: r
Encoding: 114 114 87
Width: 348
GlyphClass: 2
Flags: W
LayerCount: 2
Fore
SplineSet
226 433 m 128,-1,1
 173 433 173 433 132.5 393 c 128,-1,2
 92 353 92 353 92 300 c 2,3,-1
 92 0 l 1,4,-1
 60 0 l 1,5,-1
 60 450 l 1,6,-1
 92 450 l 1,7,-1
 92 383 l 1,8,9
 110 417 110 417 148 439 c 128,-1,10
 186 461 186 461 233 461 c 128,-1,11
 280 461 280 461 323 429 c 1,12,-1
 323 389 l 1,13,0
 279 433 279 433 226 433 c 128,-1,1
EndSplineSet
EndChar

StartChar: s
Encoding: 115 115 88
Width: 344
GlyphClass: 2
Flags: W
LayerCount: 2
Fore
SplineSet
158 434 m 0,0,1
 132 434 132 434 112 417 c 128,-1,2
 92 400 92 400 92 375 c 128,-1,3
 92 350 92 350 114.5 329 c 128,-1,4
 137 308 137 308 168.5 290.5 c 128,-1,5
 200 273 200 273 232 253 c 128,-1,6
 264 233 264 233 286.5 202 c 128,-1,7
 309 171 309 171 309 131 c 0,8,9
 309 72 309 72 264.5 30.5 c 128,-1,10
 220 -11 220 -11 157 -11 c 0,11,12
 117 -11 117 -11 82.5 6.5 c 128,-1,13
 48 24 48 24 32 53 c 1,14,-1
 32 101 l 1,15,16
 70 17 70 17 154 17 c 0,17,18
 206 17 206 17 241.5 49 c 128,-1,19
 277 81 277 81 277 120.5 c 128,-1,20
 277 160 277 160 254.5 187 c 128,-1,21
 232 214 232 214 200 233 c 128,-1,22
 168 252 168 252 136.5 270.5 c 128,-1,23
 105 289 105 289 82.5 315.5 c 128,-1,24
 60 342 60 342 60 377.5 c 128,-1,25
 60 413 60 413 88.5 437.5 c 128,-1,26
 117 462 117 462 162 462 c 128,-1,27
 207 462 207 462 239 427 c 1,28,-1
 239 386 l 1,29,30
 207 434 207 434 158 434 c 0,0,1
EndSplineSet
EndChar

StartChar: t
Encoding: 116 116 89
Width: 241
GlyphClass: 2
Flags: W
LayerCount: 2
Fore
SplineSet
221 22 m 1,0,-1
 221 -6 l 1,1,2
 150 -6 150 -6 100 41.5 c 128,-1,3
 50 89 50 89 50 163 c 2,4,-1
 50 631 l 1,5,-1
 82 631 l 1,6,-1
 82 449 l 1,7,-1
 220 449 l 1,8,-1
 220 421 l 1,9,-1
 82 421 l 1,10,-1
 82 163 l 2,11,12
 82 102 82 102 122.5 62 c 128,-1,13
 163 22 163 22 221 22 c 1,0,-1
EndSplineSet
EndChar

StartChar: u
Encoding: 117 117 90
Width: 504
GlyphClass: 2
Flags: W
LayerCount: 2
Fore
SplineSet
422 450 m 1,0,-1
 454 450 l 1,1,-1
 454 0 l 1,2,-1
 422 0 l 1,3,-1
 422 91 l 1,4,5
 371 -11 371 -11 248 -11 c 0,6,7
 164 -11 164 -11 107 47 c 128,-1,8
 50 105 50 105 50 188 c 2,9,-1
 50 450 l 1,10,-1
 82 450 l 1,11,-1
 82 188 l 2,12,13
 82 119 82 119 130.5 68 c 128,-1,14
 179 17 179 17 248 17 c 128,-1,15
 317 17 317 17 369.5 68 c 128,-1,16
 422 119 422 119 422 188 c 2,17,-1
 422 450 l 1,0,-1
EndSplineSet
EndChar

StartChar: v
Encoding: 118 118 91
Width: 493
GlyphClass: 2
Flags: W
LayerCount: 2
Fore
SplineSet
439 450 m 1,0,-1
 468 450 l 1,1,-1
 247 -13 l 1,2,-1
 25 450 l 1,3,-1
 60 450 l 1,4,-1
 250 55 l 1,5,-1
 439 450 l 1,0,-1
EndSplineSet
EndChar

StartChar: w
Encoding: 119 119 92
Width: 684
GlyphClass: 2
Flags: W
LayerCount: 2
Fore
SplineSet
25 450 m 1,0,-1
 58 450 l 1,1,-1
 243 57 l 1,2,-1
 330 240 l 1,3,-1
 233 448 l 1,4,-1
 265 448 l 1,5,-1
 346 271 l 1,6,-1
 429 450 l 1,7,-1
 459 450 l 1,8,-1
 361 240 l 1,9,-1
 447 55 l 1,10,-1
 630 449 l 1,11,-1
 659 449 l 1,12,-1
 446 -11 l 1,13,-1
 344 208 l 1,14,-1
 241 -11 l 1,15,-1
 25 450 l 1,0,-1
EndSplineSet
EndChar

StartChar: x
Encoding: 120 120 93
Width: 433
GlyphClass: 2
Flags: W
LayerCount: 2
Fore
SplineSet
232 273 m 1,0,-1
 413 0 l 1,1,-1
 376 0 l 1,2,-1
 214 245 l 1,3,-1
 53 0 l 1,4,-1
 21 0 l 1,5,-1
 198 270 l 1,6,-1
 79 450 l 1,7,-1
 116 450 l 1,8,-1
 216 298 l 1,9,-1
 316 450 l 1,10,-1
 348 450 l 1,11,-1
 232 273 l 1,0,-1
EndSplineSet
EndChar

StartChar: y
Encoding: 121 121 94
Width: 504
GlyphClass: 2
Flags: W
LayerCount: 2
Fore
SplineSet
422 450 m 1,0,-1
 454 450 l 1,1,-1
 454 14 l 2,2,3
 454 -75 454 -75 392 -137 c 128,-1,4
 330 -199 330 -199 240 -199 c 0,5,6
 132 -199 132 -199 69 -116 c 1,7,-1
 71 -66 l 1,8,9
 99 -114 99 -114 144.5 -142.5 c 128,-1,10
 190 -171 190 -171 240 -171 c 0,11,12
 314 -171 314 -171 368 -117.5 c 128,-1,13
 422 -64 422 -64 422 11 c 2,14,-1
 422 87 l 1,15,16
 373 -11 373 -11 251 -11 c 0,17,18
 168 -11 168 -11 109 47.5 c 128,-1,19
 50 106 50 106 50 188 c 2,20,-1
 50 450 l 1,21,-1
 82 450 l 1,22,-1
 82 188 l 2,23,24
 82 119 82 119 132.5 68 c 128,-1,25
 183 17 183 17 252 17 c 128,-1,26
 321 17 321 17 371.5 68 c 128,-1,27
 422 119 422 119 422 188 c 2,28,-1
 422 450 l 1,0,-1
EndSplineSet
EndChar

StartChar: z
Encoding: 122 122 95
Width: 363
GlyphClass: 2
Flags: W
LayerCount: 2
Fore
SplineSet
335 28 m 1,0,-1
 335 0 l 1,1,-1
 25 0 l 1,2,-1
 281 422 l 1,3,-1
 52 422 l 1,4,-1
 52 450 l 1,5,-1
 338 450 l 1,6,-1
 81 28 l 1,7,-1
 335 28 l 1,0,-1
EndSplineSet
EndChar

StartChar: braceleft
Encoding: 123 123 96
Width: 257
GlyphClass: 2
Flags: W
LayerCount: 2
Fore
SplineSet
167 667 m 2,0,-1
 167 506 l 2,1,2
 167 467 167 467 149.5 431.5 c 128,-1,3
 132 396 132 396 100 375 c 1,4,5
 167 331 167 331 167 246 c 2,6,-1
 167 77 l 2,7,8
 167 37 167 37 186 5 c 128,-1,9
 205 -27 205 -27 237 -45 c 1,10,-1
 237 -75 l 1,11,12
 192 -54 192 -54 163 -12 c 128,-1,13
 134 30 134 30 134 77 c 2,14,-1
 134 246 l 2,15,16
 134 290 134 290 105 326.5 c 128,-1,17
 76 363 76 363 34 375 c 1,18,19
 76 387 76 387 105 424.5 c 128,-1,20
 134 462 134 462 134 506 c 2,21,-1
 134 667 l 2,22,23
 134 714 134 714 163 754.5 c 128,-1,24
 192 795 192 795 237 817 c 1,25,-1
 237 787 l 1,26,27
 205 771 205 771 186 739 c 128,-1,28
 167 707 167 707 167 667 c 2,0,-1
EndSplineSet
EndChar

StartChar: bar
Encoding: 124 124 97
Width: 183
GlyphClass: 2
Flags: W
LayerCount: 2
Fore
SplineSet
75 0 m 1,0,-1
 75 748 l 1,1,-1
 108 748 l 1,2,-1
 108 0 l 1,3,-1
 75 0 l 1,0,-1
EndSplineSet
EndChar

StartChar: braceright
Encoding: 125 125 98
Width: 257
GlyphClass: 2
Flags: W
LayerCount: 2
Fore
SplineSet
125 667 m 2,0,-1
 125 506 l 2,1,2
 125 463 125 463 154 425 c 128,-1,3
 183 387 183 387 223 375 c 1,4,5
 183 363 183 363 154 326.5 c 128,-1,6
 125 290 125 290 125 246 c 2,7,-1
 125 77 l 2,8,9
 125 31 125 31 95 -12 c 128,-1,10
 65 -55 65 -55 20 -75 c 1,11,-1
 20 -45 l 1,12,13
 92 -6 92 -6 92 77 c 2,14,-1
 92 246 l 2,15,16
 92 332 92 332 158 375 c 1,17,18
 127 395 127 395 109.5 431 c 128,-1,19
 92 467 92 467 92 506 c 2,20,-1
 92 667 l 2,21,22
 92 707 92 707 72.5 739 c 128,-1,23
 53 771 53 771 20 787 c 1,24,-1
 20 817 l 1,25,26
 66 795 66 795 95.5 754.5 c 128,-1,27
 125 714 125 714 125 667 c 2,0,-1
EndSplineSet
EndChar

StartChar: asciitilde
Encoding: 126 126 99
Width: 533
GlyphClass: 2
Flags: W
LayerCount: 2
Fore
SplineSet
458 360 m 1,0,1
 418 314 418 314 377.5 314 c 128,-1,2
 337 314 337 314 269.5 350 c 128,-1,3
 202 386 202 386 164 386 c 1,4,5
 115 382 115 382 75 316 c 1,6,-1
 75 367 l 1,7,8
 114 411 114 411 163 415 c 1,9,10
 210 415 210 415 275.5 379 c 128,-1,11
 341 343 341 343 379 343 c 128,-1,12
 417 343 417 343 458 408 c 1,13,-1
 458 360 l 1,0,1
EndSplineSet
EndChar

StartChar: exclamdown
Encoding: 161 161 100
Width: 226
GlyphClass: 2
Flags: W
LayerCount: 2
Fore
SplineSet
131 0 m 1,0,-1
 98 0 l 1,1,-1
 98 650 l 1,2,-1
 131 650 l 1,3,-1
 131 0 l 1,0,-1
80 726 m 128,-1,5
 80 757 80 757 113 757 c 128,-1,6
 146 757 146 757 146 726 c 128,-1,7
 146 695 146 695 113 695 c 128,-1,4
 80 695 80 695 80 726 c 128,-1,5
EndSplineSet
EndChar

StartChar: cent
Encoding: 162 162 101
Width: 541
GlyphClass: 2
Flags: W
LayerCount: 2
Fore
SplineSet
286 -155 m 1,0,-1
 286 -9 l 1,1,-1
 282 -9 l 2,2,3
 176 -9 176 -9 113 60.5 c 128,-1,4
 50 130 50 130 50 224.5 c 128,-1,5
 50 319 50 319 111 387.5 c 128,-1,6
 172 456 172 456 281 456 c 2,7,-1
 286 456 l 1,8,-1
 286 564 l 1,9,-1
 320 564 l 1,10,-1
 320 456 l 1,11,-1
 325 456 l 2,12,13
 437 456 437 456 506 382 c 1,14,-1
 506 331 l 1,15,16
 475 376 475 376 426.5 402 c 128,-1,17
 378 428 378 428 325 428 c 2,18,-1
 320 428 l 1,19,-1
 320 19 l 1,20,-1
 325 19 l 2,21,22
 379 19 379 19 427 45 c 128,-1,23
 475 71 475 71 506 116 c 1,24,-1
 506 64 l 1,25,26
 474 29 474 29 425.5 10 c 128,-1,27
 377 -9 377 -9 324 -9 c 2,28,-1
 320 -9 l 1,29,-1
 320 -155 l 1,30,-1
 286 -155 l 1,0,-1
286 428 m 1,31,-1
 281 428 l 2,32,33
 187 428 187 428 136 368 c 128,-1,34
 85 308 85 308 85 223 c 128,-1,35
 85 138 85 138 136 78.5 c 128,-1,36
 187 19 187 19 281 19 c 2,37,-1
 286 19 l 1,38,-1
 286 428 l 1,31,-1
EndSplineSet
EndChar

StartChar: sterling
Encoding: 163 163 102
Width: 529
GlyphClass: 2
Flags: W
LayerCount: 2
Fore
SplineSet
177 312 m 1,0,-1
 379 312 l 1,1,-1
 379 284 l 1,2,-1
 178 284 l 1,3,-1
 178 101 l 1,4,5
 225 101 225 101 290.5 65 c 128,-1,6
 356 29 356 29 394 29 c 128,-1,7
 432 29 432 29 473 94 c 1,8,-1
 509 94 l 1,9,10
 450 -2 450 -2 392 -2 c 0,11,12
 352 -2 352 -2 284.5 34.5 c 128,-1,13
 217 71 217 71 178 71 c 2,14,-1
 145 71 l 1,15,16
 96 67 96 67 56 0 c 1,17,-1
 20 0 l 1,18,19
 70 93 70 93 145 101 c 1,20,-1
 145 284 l 1,21,-1
 53 284 l 1,22,-1
 53 312 l 1,23,-1
 145 312 l 1,24,-1
 145 548 l 2,25,26
 145 639 145 639 195 698.5 c 128,-1,27
 245 758 245 758 326 758 c 2,28,-1
 335 758 l 2,29,30
 403 758 403 758 460 708 c 1,31,-1
 460 673 l 1,32,33
 436 700 436 700 401 716.5 c 128,-1,34
 366 733 366 733 330 733 c 0,35,36
 258 733 258 733 217.5 681 c 128,-1,37
 177 629 177 629 177 548 c 2,38,-1
 177 312 l 1,0,-1
EndSplineSet
EndChar

StartChar: currency
Encoding: 164 164 103
Width: 843
GlyphClass: 2
Flags: W
LayerCount: 2
Fore
SplineSet
159 664 m 1,0,1
 268 761 268 761 417.5 761 c 128,-1,2
 567 761 567 761 682 658 c 1,3,-1
 771 748 l 1,4,-1
 793 722 l 1,5,-1
 706 635 l 1,6,7
 808 518 808 518 808 372 c 128,-1,8
 808 226 808 226 708 113 c 1,9,-1
 793 30 l 1,10,-1
 769 5 l 1,11,-1
 686 88 l 1,12,13
 569 -12 569 -12 418 -12 c 128,-1,14
 267 -12 267 -12 161 88 c 1,15,-1
 75 2 l 1,16,-1
 51 27 l 1,17,-1
 136 113 l 1,18,19
 35 221 35 221 35 371 c 128,-1,20
 35 521 35 521 135 640 c 1,21,-1
 50 723 l 1,22,-1
 75 749 l 1,23,-1
 159 664 l 1,0,1
425 728 m 128,-1,25
 275 728 275 728 172 625 c 128,-1,26
 69 522 69 522 69 371 c 128,-1,27
 69 220 69 220 172.5 120 c 128,-1,28
 276 20 276 20 418.5 20 c 128,-1,29
 561 20 561 20 669 123.5 c 128,-1,30
 777 227 777 227 777 377 c 128,-1,31
 777 527 777 527 676 627.5 c 128,-1,24
 575 728 575 728 425 728 c 128,-1,25
EndSplineSet
EndChar

StartChar: yen
Encoding: 165 165 104
Width: 534
GlyphClass: 2
Flags: W
LayerCount: 2
Fore
SplineSet
424 174 m 1,0,-1
 286 174 l 1,1,-1
 286 0 l 1,2,-1
 253 0 l 1,3,-1
 253 174 l 1,4,-1
 113 174 l 1,5,-1
 113 203 l 1,6,-1
 253 203 l 1,7,-1
 253 302 l 1,8,-1
 113 302 l 1,9,-1
 113 333 l 1,10,-1
 236 333 l 1,11,-1
 25 750 l 1,12,-1
 60 750 l 1,13,-1
 271 335 l 1,14,-1
 478 750 l 1,15,-1
 509 750 l 1,16,-1
 302 333 l 1,17,-1
 424 333 l 1,18,-1
 424 302 l 1,19,-1
 286 302 l 1,20,-1
 286 203 l 1,21,-1
 424 203 l 1,22,-1
 424 174 l 1,0,-1
EndSplineSet
EndChar

StartChar: brokenbar
Encoding: 166 166 105
Width: 215
GlyphClass: 2
Flags: W
LayerCount: 2
Fore
SplineSet
125 0 m 1,0,-1
 90 0 l 1,1,-1
 90 283 l 1,2,-1
 125 283 l 1,3,-1
 125 0 l 1,0,-1
125 466 m 1,4,-1
 90 466 l 1,5,-1
 90 750 l 1,6,-1
 125 750 l 1,7,-1
 125 466 l 1,4,-1
EndSplineSet
EndChar

StartChar: section
Encoding: 167 167 106
Width: 426
GlyphClass: 2
Flags: W
LayerCount: 2
Fore
SplineSet
50 375 m 0,0,1
 50 435 50 435 92 478.5 c 128,-1,2
 134 522 134 522 194 526 c 1,3,4
 150 553 150 553 127.5 578 c 128,-1,5
 105 603 105 603 105 646 c 128,-1,6
 105 689 105 689 140.5 722 c 128,-1,7
 176 755 176 755 224.5 755 c 128,-1,8
 273 755 273 755 314 720 c 1,9,-1
 314 667 l 1,10,11
 275 727 275 727 231.5 727 c 128,-1,12
 188 727 188 727 162.5 703 c 128,-1,13
 137 679 137 679 137 642 c 0,14,15
 137 618 137 618 148 605.5 c 128,-1,16
 159 593 159 593 164.5 586.5 c 128,-1,17
 170 580 170 580 182.5 571.5 c 128,-1,18
 195 563 195 563 199.5 559.5 c 128,-1,19
 204 556 204 556 218 548.5 c 128,-1,20
 232 541 232 541 233 540 c 2,21,-1
 261 525 l 1,22,23
 331 485 331 485 350 458 c 0,24,25
 376 421 376 421 376 368.5 c 128,-1,26
 376 316 376 316 334 272 c 128,-1,27
 292 228 292 228 231 222 c 1,28,29
 275 195 275 195 298 170 c 128,-1,30
 321 145 321 145 321 101 c 128,-1,31
 321 57 321 57 284.5 24.5 c 128,-1,32
 248 -8 248 -8 195 -8 c 128,-1,33
 142 -8 142 -8 105 29 c 1,34,-1
 105 84 l 1,35,36
 143 21 143 21 195 21 c 0,37,38
 234 21 234 21 261 44.5 c 128,-1,39
 288 68 288 68 288 106 c 0,40,41
 288 161 288 161 191 211 c 1,42,-1
 165 225 l 1,43,44
 82 268 82 268 60 319 c 0,45,46
 50 344 50 344 50 375 c 0,0,1
211 499 m 128,-1,48
 159 499 159 499 122 462.5 c 128,-1,49
 85 426 85 426 85 374 c 128,-1,50
 85 322 85 322 124 286.5 c 128,-1,51
 163 251 163 251 215 251 c 128,-1,52
 267 251 267 251 304 287.5 c 128,-1,53
 341 324 341 324 341 375.5 c 128,-1,54
 341 427 341 427 302 463 c 128,-1,47
 263 499 263 499 211 499 c 128,-1,48
EndSplineSet
EndChar

StartChar: dieresis
Encoding: 168 168 107
Width: 192
GlyphClass: 2
Flags: W
LayerCount: 2
Fore
SplineSet
15 585 m 128,-1,1
 15 612 15 612 44 612 c 128,-1,2
 73 612 73 612 73 585 c 128,-1,3
 73 558 73 558 44 558 c 128,-1,0
 15 558 15 558 15 585 c 128,-1,1
122 585 m 128,-1,5
 122 612 122 612 149.5 612 c 128,-1,6
 177 612 177 612 177 585 c 128,-1,7
 177 558 177 558 149.5 558 c 128,-1,4
 122 558 122 558 122 585 c 128,-1,5
EndSplineSet
EndChar

StartChar: copyright
Encoding: 169 169 108
Width: 890
GlyphClass: 2
Flags: W
LayerCount: 2
Fore
SplineSet
452 -13 m 2,0,-1
 437 -13 l 2,1,2
 282 -13 282 -13 168.5 104 c 128,-1,3
 55 221 55 221 55 377.5 c 128,-1,4
 55 534 55 534 170 648.5 c 128,-1,5
 285 763 285 763 446 763 c 128,-1,6
 607 763 607 763 721 649 c 128,-1,7
 835 535 835 535 835 377.5 c 128,-1,8
 835 220 835 220 722 103.5 c 128,-1,9
 609 -13 609 -13 452 -13 c 2,0,-1
697.5 628.5 m 128,-1,11
 593 734 593 734 445.5 734 c 128,-1,12
 298 734 298 734 193 628.5 c 128,-1,13
 88 523 88 523 88 375.5 c 128,-1,14
 88 228 88 228 193 122 c 128,-1,15
 298 16 298 16 445 16 c 128,-1,16
 592 16 592 16 697 122 c 128,-1,17
 802 228 802 228 802 375.5 c 128,-1,10
 802 523 802 523 697.5 628.5 c 128,-1,11
453 140 m 2,18,-1
 438 140 l 2,19,20
 345 140 345 140 276.5 211.5 c 128,-1,21
 208 283 208 283 208 378 c 128,-1,22
 208 473 208 473 278 542.5 c 128,-1,23
 348 612 348 612 450 612 c 128,-1,24
 552 612 552 612 624 535 c 1,25,-1
 624 484 l 1,26,27
 593 530 593 530 545.5 557 c 128,-1,28
 498 584 498 584 446 584 c 0,29,30
 363 584 363 584 301.5 522.5 c 128,-1,31
 240 461 240 461 240 376 c 128,-1,32
 240 291 240 291 301.5 229.5 c 128,-1,33
 363 168 363 168 446 168 c 0,34,35
 498 168 498 168 545.5 195 c 128,-1,36
 593 222 593 222 624 269 c 1,37,-1
 624 217 l 1,38,39
 554 140 554 140 453 140 c 2,18,-1
EndSplineSet
EndChar

StartChar: guillemotleft
Encoding: 171 171 109
Width: 483
GlyphClass: 2
Flags: W
LayerCount: 2
Fore
SplineSet
70 240 m 1,0,-1
 288 433 l 1,1,-1
 288 390 l 1,2,-1
 104 227 l 1,3,-1
 288 63 l 1,4,-1
 288 18 l 1,5,-1
 70 214 l 1,6,-1
 70 240 l 1,0,-1
245 240 m 1,7,-1
 463 433 l 1,8,-1
 463 390 l 1,9,-1
 279 227 l 1,10,-1
 463 63 l 1,11,-1
 463 18 l 1,12,-1
 245 214 l 1,13,-1
 245 240 l 1,7,-1
EndSplineSet
EndChar

StartChar: logicalnot
Encoding: 172 172 110
Width: 410
GlyphClass: 2
Flags: W
LayerCount: 2
Fore
SplineSet
329 188 m 1,0,-1
 329 282 l 1,1,-1
 50 282 l 1,2,-1
 50 313 l 1,3,-1
 360 313 l 1,4,-1
 360 188 l 1,5,-1
 329 188 l 1,0,-1
EndSplineSet
EndChar

StartChar: uni00AD
Encoding: 173 173 111
Width: 411
GlyphClass: 2
Flags: W
LayerCount: 2
Fore
SplineSet
361 282 m 1,0,-1
 50 282 l 1,1,-1
 50 313 l 1,2,-1
 361 313 l 1,3,-1
 361 282 l 1,0,-1
EndSplineSet
EndChar

StartChar: registered
Encoding: 174 174 112
Width: 890
GlyphClass: 2
Flags: W
LayerCount: 2
Fore
SplineSet
452 -13 m 2,0,-1
 437 -13 l 2,1,2
 282 -13 282 -13 168.5 104 c 128,-1,3
 55 221 55 221 55 377.5 c 128,-1,4
 55 534 55 534 170 648.5 c 128,-1,5
 285 763 285 763 446 763 c 128,-1,6
 607 763 607 763 721 649 c 128,-1,7
 835 535 835 535 835 377.5 c 128,-1,8
 835 220 835 220 722 103.5 c 128,-1,9
 609 -13 609 -13 452 -13 c 2,0,-1
697.5 628.5 m 128,-1,11
 593 734 593 734 445.5 734 c 128,-1,12
 298 734 298 734 193 628.5 c 128,-1,13
 88 523 88 523 88 375.5 c 128,-1,14
 88 228 88 228 193 122 c 128,-1,15
 298 16 298 16 445 16 c 128,-1,16
 592 16 592 16 697 122 c 128,-1,17
 802 228 802 228 802 375.5 c 128,-1,10
 802 523 802 523 697.5 628.5 c 128,-1,11
368 309 m 1,18,-1
 368 154 l 1,19,-1
 337 154 l 1,20,-1
 337 604 l 1,21,-1
 436 604 l 2,22,23
 497 604 497 604 540.5 560.5 c 128,-1,24
 584 517 584 517 584 460.5 c 128,-1,25
 584 404 584 404 553 364 c 128,-1,26
 522 324 522 324 473 312 c 1,27,-1
 589 154 l 1,28,-1
 548 154 l 1,29,-1
 438 309 l 1,30,-1
 368 309 l 1,18,-1
368 577 m 1,31,-1
 368 336 l 1,32,-1
 438 336 l 2,33,34
 484 336 484 336 519.5 372.5 c 128,-1,35
 555 409 555 409 555 456.5 c 128,-1,36
 555 504 555 504 519.5 540.5 c 128,-1,37
 484 577 484 577 438 577 c 2,38,-1
 368 577 l 1,31,-1
EndSplineSet
EndChar

StartChar: macron
Encoding: 175 175 113
Width: 341
GlyphClass: 2
Flags: W
LayerCount: 2
Fore
SplineSet
272 566 m 1,0,-1
 75 566 l 1,1,-1
 75 594 l 1,2,-1
 272 594 l 1,3,-1
 272 566 l 1,0,-1
EndSplineSet
EndChar

StartChar: degree
Encoding: 176 176 114
Width: 191
GlyphClass: 2
Flags: W
LayerCount: 2
Fore
SplineSet
97 600 m 2,0,-1
 93 600 l 2,1,2
 63 600 63 600 41.5 622.5 c 128,-1,3
 20 645 20 645 20 675.5 c 128,-1,4
 20 706 20 706 42 728 c 128,-1,5
 64 750 64 750 95.5 750 c 128,-1,6
 127 750 127 750 149 728 c 128,-1,7
 171 706 171 706 171 675.5 c 128,-1,8
 171 645 171 645 149 622.5 c 128,-1,9
 127 600 127 600 97 600 c 2,0,-1
130.5 711 m 128,-1,11
 116 726 116 726 95.5 726 c 128,-1,12
 75 726 75 726 60 710.5 c 128,-1,13
 45 695 45 695 45 675 c 128,-1,14
 45 655 45 655 60 639.5 c 128,-1,15
 75 624 75 624 95.5 624 c 128,-1,16
 116 624 116 624 130.5 639 c 128,-1,17
 145 654 145 654 145 675 c 128,-1,10
 145 696 145 696 130.5 711 c 128,-1,11
EndSplineSet
EndChar

StartChar: plusminus
Encoding: 177 177 115
Width: 451
GlyphClass: 2
Flags: W
LayerCount: 2
Fore
SplineSet
210 387 m 1,0,-1
 70 387 l 1,1,-1
 70 418 l 1,2,-1
 210 418 l 1,3,-1
 210 557 l 1,4,-1
 243 557 l 1,5,-1
 243 418 l 1,6,-1
 381 418 l 1,7,-1
 381 387 l 1,8,-1
 243 387 l 1,9,-1
 243 253 l 1,10,-1
 210 253 l 1,11,-1
 210 387 l 1,0,-1
381 168 m 1,12,-1
 70 168 l 1,13,-1
 70 199 l 1,14,-1
 381 199 l 1,15,-1
 381 168 l 1,12,-1
EndSplineSet
EndChar

StartChar: acute
Encoding: 180 180 116
Width: 211
GlyphClass: 2
Flags: W
LayerCount: 2
Fore
SplineSet
155 644 m 1,0,-1
 196 644 l 1,1,-1
 57 529 l 1,2,-1
 15 529 l 1,3,-1
 155 644 l 1,0,-1
EndSplineSet
EndChar

StartChar: mu
Encoding: 181 181 117
Width: 555
GlyphClass: 2
Flags: W
LayerCount: 2
Fore
SplineSet
75 -200 m 1,0,-1
 75 450 l 1,1,-1
 108 450 l 1,2,-1
 108 188 l 2,3,4
 108 119 108 119 158.5 68 c 128,-1,5
 209 17 209 17 278 17 c 128,-1,6
 347 17 347 17 397.5 68 c 128,-1,7
 448 119 448 119 448 188 c 2,8,-1
 448 450 l 1,9,-1
 480 450 l 1,10,-1
 480 0 l 1,11,-1
 448 0 l 1,12,-1
 448 87 l 1,13,14
 421 43 421 43 374.5 16 c 128,-1,15
 328 -11 328 -11 276 -11 c 128,-1,16
 224 -11 224 -11 179 14 c 128,-1,17
 134 39 134 39 107 82 c 1,18,-1
 107 -200 l 1,19,-1
 75 -200 l 1,0,-1
EndSplineSet
EndChar

StartChar: paragraph
Encoding: 182 182 118
Width: 564
GlyphClass: 2
Flags: W
LayerCount: 2
Fore
SplineSet
271 -200 m 1,0,-1
 240 -200 l 1,1,-1
 240 455 l 1,2,-1
 220 455 l 2,3,4
 159 455 159 455 117 498.5 c 128,-1,5
 75 542 75 542 75 602.5 c 128,-1,6
 75 663 75 663 118 706.5 c 128,-1,7
 161 750 161 750 223 750 c 2,8,-1
 534 750 l 1,9,-1
 534 721 l 1,10,-1
 444 721 l 1,11,-1
 444 -200 l 1,12,-1
 413 -200 l 1,13,-1
 413 721 l 1,14,-1
 271 721 l 1,15,-1
 271 -200 l 1,0,-1
EndSplineSet
EndChar

StartChar: periodcentered
Encoding: 183 183 119
Width: 212
GlyphClass: 2
Flags: W
LayerCount: 2
Fore
SplineSet
75 292 m 128,-1,1
 75 323 75 323 106 323 c 128,-1,2
 137 323 137 323 137 292 c 128,-1,3
 137 261 137 261 106 261 c 128,-1,0
 75 261 75 261 75 292 c 128,-1,1
EndSplineSet
EndChar

StartChar: cedilla
Encoding: 184 184 120
Width: 142
GlyphClass: 2
Flags: W
LayerCount: 2
Fore
SplineSet
15 -75 m 1,0,-1
 15 9 l 1,1,-1
 40 9 l 1,2,-1
 40 -49 l 1,3,-1
 50 -49 l 2,4,5
 82 -49 82 -49 104.5 -71 c 128,-1,6
 127 -93 127 -93 127 -123 c 2,7,-1
 127 -127 l 2,8,9
 127 -157 127 -157 105 -178.5 c 128,-1,10
 83 -200 83 -200 50 -200 c 2,11,-1
 15 -200 l 1,12,-1
 15 -175 l 1,13,-1
 50 -175 l 2,14,15
 73 -175 73 -175 88 -160.5 c 128,-1,16
 103 -146 103 -146 103 -125 c 128,-1,17
 103 -104 103 -104 88 -89.5 c 128,-1,18
 73 -75 73 -75 50 -75 c 2,19,-1
 15 -75 l 1,0,-1
EndSplineSet
EndChar

StartChar: guillemotright
Encoding: 187 187 121
Width: 483
GlyphClass: 2
Flags: W
LayerCount: 2
Fore
SplineSet
195 433 m 1,0,-1
 413 240 l 1,1,-1
 413 214 l 1,2,-1
 195 18 l 1,3,-1
 195 63 l 1,4,-1
 379 227 l 1,5,-1
 195 390 l 1,6,-1
 195 433 l 1,0,-1
20 433 m 1,7,-1
 238 240 l 1,8,-1
 238 214 l 1,9,-1
 20 18 l 1,10,-1
 20 63 l 1,11,-1
 204 227 l 1,12,-1
 20 390 l 1,13,-1
 20 433 l 1,7,-1
EndSplineSet
EndChar

StartChar: questiondown
Encoding: 191 191 122
Width: 626
GlyphClass: 2
Flags: W
LayerCount: 2
Fore
SplineSet
571 244 m 1,0,1
 565 133 565 133 495 63 c 128,-1,2
 425 -7 425 -7 313.5 -7 c 128,-1,3
 202 -7 202 -7 128.5 66 c 128,-1,4
 55 139 55 139 55 235.5 c 128,-1,5
 55 332 55 332 126 420 c 1,6,7
 195 488 195 488 294 494 c 1,8,-1
 294 659 l 1,9,-1
 326 659 l 1,10,-1
 326 465 l 1,11,-1
 312 465 l 2,12,13
 212 465 212 465 149.5 399 c 128,-1,14
 87 333 87 333 87 240.5 c 128,-1,15
 87 148 87 148 152.5 85 c 128,-1,16
 218 22 218 22 315 22 c 128,-1,17
 412 22 412 22 472.5 82.5 c 128,-1,18
 533 143 533 143 537 244 c 1,19,-1
 571 244 l 1,0,1
342 731 m 128,-1,21
 342 700 342 700 307.5 700 c 128,-1,22
 273 700 273 700 273 731 c 128,-1,23
 273 762 273 762 307.5 762 c 128,-1,20
 342 762 342 762 342 731 c 128,-1,21
EndSplineSet
EndChar

StartChar: Agrave
Encoding: 192 192 123
Width: 809
GlyphClass: 2
Flags: W
LayerCount: 2
Fore
SplineSet
404 768 m 1,0,-1
 779 0 l 1,1,-1
 744 0 l 1,2,-1
 602 286 l 1,3,-1
 201 286 l 1,4,-1
 61 0 l 1,5,-1
 30 0 l 1,6,-1
 404 768 l 1,0,-1
401 699 m 1,7,-1
 214 315 l 1,8,-1
 590 315 l 1,9,-1
 401 699 l 1,7,-1
314 944 m 1,10,-1
 355 944 l 1,11,-1
 495 829 l 1,12,-1
 453 829 l 1,13,-1
 314 944 l 1,10,-1
EndSplineSet
EndChar

StartChar: Aacute
Encoding: 193 193 124
Width: 809
GlyphClass: 2
Flags: W
LayerCount: 2
Fore
SplineSet
404 768 m 1,0,-1
 779 0 l 1,1,-1
 744 0 l 1,2,-1
 602 286 l 1,3,-1
 201 286 l 1,4,-1
 61 0 l 1,5,-1
 30 0 l 1,6,-1
 404 768 l 1,0,-1
401 699 m 1,7,-1
 214 315 l 1,8,-1
 590 315 l 1,9,-1
 401 699 l 1,7,-1
454 944 m 1,10,-1
 495 944 l 1,11,-1
 356 829 l 1,12,-1
 314 829 l 1,13,-1
 454 944 l 1,10,-1
EndSplineSet
EndChar

StartChar: Acircumflex
Encoding: 194 194 125
Width: 809
GlyphClass: 2
Flags: W
LayerCount: 2
Fore
SplineSet
404 768 m 1,0,-1
 779 0 l 1,1,-1
 744 0 l 1,2,-1
 602 286 l 1,3,-1
 201 286 l 1,4,-1
 61 0 l 1,5,-1
 30 0 l 1,6,-1
 404 768 l 1,0,-1
401 699 m 1,7,-1
 214 315 l 1,8,-1
 590 315 l 1,9,-1
 401 699 l 1,7,-1
421 944 m 1,10,-1
 553 829 l 1,11,-1
 512 829 l 1,12,-1
 405 920 l 1,13,-1
 299 829 l 1,14,-1
 257 829 l 1,15,-1
 391 944 l 1,16,-1
 421 944 l 1,10,-1
EndSplineSet
EndChar

StartChar: Atilde
Encoding: 195 195 126
Width: 809
GlyphClass: 2
Flags: W
LayerCount: 2
Fore
SplineSet
404 768 m 1,0,-1
 779 0 l 1,1,-1
 744 0 l 1,2,-1
 602 286 l 1,3,-1
 201 286 l 1,4,-1
 61 0 l 1,5,-1
 30 0 l 1,6,-1
 404 768 l 1,0,-1
401 699 m 1,7,-1
 214 315 l 1,8,-1
 590 315 l 1,9,-1
 401 699 l 1,7,-1
485 847 m 0,10,11
 456 847 456 847 406.5 874.5 c 128,-1,12
 357 902 357 902 327 901.5 c 128,-1,13
 297 901 297 901 265 848 c 1,14,-1
 234 848 l 1,15,16
 273 928 273 928 329 928 c 2,17,-1
 338 928 l 2,18,19
 368 928 368 928 413 901.5 c 128,-1,20
 458 875 458 875 485.5 875 c 128,-1,21
 513 875 513 875 544 924 c 1,22,-1
 575 924 l 1,23,24
 528 847 528 847 485 847 c 0,10,11
EndSplineSet
EndChar

StartChar: Adieresis
Encoding: 196 196 127
Width: 809
GlyphClass: 2
Flags: W
LayerCount: 2
Fore
SplineSet
404 768 m 1,0,-1
 779 0 l 1,1,-1
 744 0 l 1,2,-1
 602 286 l 1,3,-1
 201 286 l 1,4,-1
 61 0 l 1,5,-1
 30 0 l 1,6,-1
 404 768 l 1,0,-1
401 699 m 1,7,-1
 214 315 l 1,8,-1
 590 315 l 1,9,-1
 401 699 l 1,7,-1
323 885 m 128,-1,11
 323 912 323 912 352 912 c 128,-1,12
 381 912 381 912 381 885 c 128,-1,13
 381 858 381 858 352 858 c 128,-1,10
 323 858 323 858 323 885 c 128,-1,11
430 885 m 128,-1,15
 430 912 430 912 457.5 912 c 128,-1,16
 485 912 485 912 485 885 c 128,-1,17
 485 858 485 858 457.5 858 c 128,-1,14
 430 858 430 858 430 885 c 128,-1,15
EndSplineSet
EndChar

StartChar: Aring
Encoding: 197 197 128
Width: 809
GlyphClass: 2
Flags: W
LayerCount: 2
Fore
SplineSet
404 768 m 1,0,-1
 779 0 l 1,1,-1
 744 0 l 1,2,-1
 602 286 l 1,3,-1
 201 286 l 1,4,-1
 61 0 l 1,5,-1
 30 0 l 1,6,-1
 404 768 l 1,0,-1
401 699 m 1,7,-1
 214 315 l 1,8,-1
 590 315 l 1,9,-1
 401 699 l 1,7,-1
406 812 m 2,10,-1
 402 812 l 2,11,12
 372 812 372 812 350.5 834.5 c 128,-1,13
 329 857 329 857 329 887.5 c 128,-1,14
 329 918 329 918 351 940 c 128,-1,15
 373 962 373 962 404.5 962 c 128,-1,16
 436 962 436 962 458 940 c 128,-1,17
 480 918 480 918 480 887.5 c 128,-1,18
 480 857 480 857 458 834.5 c 128,-1,19
 436 812 436 812 406 812 c 2,10,-1
439.5 923 m 128,-1,21
 425 938 425 938 404.5 938 c 128,-1,22
 384 938 384 938 369 922.5 c 128,-1,23
 354 907 354 907 354 887 c 128,-1,24
 354 867 354 867 369 851.5 c 128,-1,25
 384 836 384 836 404.5 836 c 128,-1,26
 425 836 425 836 439.5 851 c 128,-1,27
 454 866 454 866 454 887 c 128,-1,20
 454 908 454 908 439.5 923 c 128,-1,21
EndSplineSet
EndChar

StartChar: AE
Encoding: 198 198 129
Width: 691
GlyphClass: 2
Flags: W
LayerCount: 2
Fore
SplineSet
666 750 m 1,0,-1
 666 721 l 1,1,-1
 430 721 l 1,2,-1
 430 316 l 1,3,-1
 627 316 l 1,4,-1
 627 287 l 1,5,-1
 430 287 l 1,6,-1
 430 29 l 1,7,-1
 666 29 l 1,8,-1
 666 0 l 1,9,-1
 397 0 l 1,10,-1
 397 286 l 1,11,-1
 196 286 l 1,12,-1
 56 0 l 1,13,-1
 25 0 l 1,14,-1
 397 750 l 1,15,-1
 666 750 l 1,0,-1
397 315 m 1,16,-1
 397 692 l 1,17,-1
 209 315 l 1,18,-1
 397 315 l 1,16,-1
EndSplineSet
EndChar

StartChar: Ccedilla
Encoding: 199 199 130
Width: 718
GlyphClass: 2
Flags: W
LayerCount: 2
Fore
SplineSet
417 -75 m 1,0,-1
 417 -10 l 1,1,2
 268 -2 268 -2 161.5 113.5 c 128,-1,3
 55 229 55 229 55 382.5 c 128,-1,4
 55 536 55 536 170 650.5 c 128,-1,5
 285 765 285 765 445 765 c 0,6,7
 552 765 552 765 648 709 c 1,8,-1
 648 672 l 1,9,10
 554 736 554 736 445 736 c 0,11,12
 298 736 298 736 193 630.5 c 128,-1,13
 88 525 88 525 88 377.5 c 128,-1,14
 88 230 88 230 193 124 c 128,-1,15
 298 18 298 18 445 18 c 0,16,17
 554 18 554 18 648 82 c 1,18,-1
 648 45 l 1,19,20
 557 -11 557 -11 450 -11 c 2,21,-1
 442 -11 l 1,22,-1
 442 -49 l 1,23,-1
 452 -49 l 2,24,25
 484 -49 484 -49 506.5 -71 c 128,-1,26
 529 -93 529 -93 529 -123 c 2,27,-1
 529 -127 l 2,28,29
 529 -157 529 -157 507 -178.5 c 128,-1,30
 485 -200 485 -200 452 -200 c 2,31,-1
 417 -200 l 1,32,-1
 417 -175 l 1,33,-1
 452 -175 l 2,34,35
 475 -175 475 -175 490 -160.5 c 128,-1,36
 505 -146 505 -146 505 -125 c 128,-1,37
 505 -104 505 -104 490 -89.5 c 128,-1,38
 475 -75 475 -75 452 -75 c 2,39,-1
 417 -75 l 1,0,-1
EndSplineSet
EndChar

StartChar: Egrave
Encoding: 200 200 131
Width: 389
GlyphClass: 2
Flags: W
LayerCount: 2
Fore
SplineSet
85 750 m 1,0,-1
 354 750 l 1,1,-1
 354 721 l 1,2,-1
 118 721 l 1,3,-1
 118 313 l 1,4,-1
 315 313 l 1,5,-1
 315 284 l 1,6,-1
 118 284 l 1,7,-1
 118 29 l 1,8,-1
 354 29 l 1,9,-1
 354 0 l 1,10,-1
 85 0 l 1,11,-1
 85 750 l 1,0,-1
131 944 m 1,12,-1
 172 944 l 1,13,-1
 312 829 l 1,14,-1
 270 829 l 1,15,-1
 131 944 l 1,12,-1
EndSplineSet
EndChar

StartChar: Eacute
Encoding: 201 201 132
Width: 389
GlyphClass: 2
Flags: W
LayerCount: 2
Fore
SplineSet
85 750 m 1,0,-1
 354 750 l 1,1,-1
 354 721 l 1,2,-1
 118 721 l 1,3,-1
 118 313 l 1,4,-1
 315 313 l 1,5,-1
 315 284 l 1,6,-1
 118 284 l 1,7,-1
 118 29 l 1,8,-1
 354 29 l 1,9,-1
 354 0 l 1,10,-1
 85 0 l 1,11,-1
 85 750 l 1,0,-1
270 944 m 1,12,-1
 311 944 l 1,13,-1
 172 829 l 1,14,-1
 130 829 l 1,15,-1
 270 944 l 1,12,-1
EndSplineSet
EndChar

StartChar: Ecircumflex
Encoding: 202 202 133
Width: 389
GlyphClass: 2
Flags: W
LayerCount: 2
Fore
SplineSet
85 750 m 1,0,-1
 354 750 l 1,1,-1
 354 721 l 1,2,-1
 118 721 l 1,3,-1
 118 313 l 1,4,-1
 315 313 l 1,5,-1
 315 284 l 1,6,-1
 118 284 l 1,7,-1
 118 29 l 1,8,-1
 354 29 l 1,9,-1
 354 0 l 1,10,-1
 85 0 l 1,11,-1
 85 750 l 1,0,-1
238 944 m 1,12,-1
 370 829 l 1,13,-1
 329 829 l 1,14,-1
 222 920 l 1,15,-1
 116 829 l 1,16,-1
 74 829 l 1,17,-1
 208 944 l 1,18,-1
 238 944 l 1,12,-1
EndSplineSet
EndChar

StartChar: Edieresis
Encoding: 203 203 134
Width: 389
GlyphClass: 2
Flags: W
LayerCount: 2
Fore
SplineSet
85 750 m 1,0,-1
 354 750 l 1,1,-1
 354 721 l 1,2,-1
 118 721 l 1,3,-1
 118 313 l 1,4,-1
 315 313 l 1,5,-1
 315 284 l 1,6,-1
 118 284 l 1,7,-1
 118 29 l 1,8,-1
 354 29 l 1,9,-1
 354 0 l 1,10,-1
 85 0 l 1,11,-1
 85 750 l 1,0,-1
137 885 m 128,-1,13
 137 912 137 912 166 912 c 128,-1,14
 195 912 195 912 195 885 c 128,-1,15
 195 858 195 858 166 858 c 128,-1,12
 137 858 137 858 137 885 c 128,-1,13
244 885 m 128,-1,17
 244 912 244 912 271.5 912 c 128,-1,18
 299 912 299 912 299 885 c 128,-1,19
 299 858 299 858 271.5 858 c 128,-1,16
 244 858 244 858 244 885 c 128,-1,17
EndSplineSet
EndChar

StartChar: Igrave
Encoding: 204 204 135
Width: 213
GlyphClass: 2
Flags: W
LayerCount: 2
Fore
SplineSet
90 750 m 1,0,-1
 123 750 l 1,1,-1
 123 0 l 1,2,-1
 90 0 l 1,3,-1
 90 750 l 1,0,-1
16 944 m 1,4,-1
 57 944 l 1,5,-1
 197 829 l 1,6,-1
 155 829 l 1,7,-1
 16 944 l 1,4,-1
EndSplineSet
EndChar

StartChar: Iacute
Encoding: 205 205 136
Width: 213
GlyphClass: 2
Flags: W
LayerCount: 2
Fore
SplineSet
90 750 m 1,0,-1
 123 750 l 1,1,-1
 123 0 l 1,2,-1
 90 0 l 1,3,-1
 90 750 l 1,0,-1
156 944 m 1,4,-1
 197 944 l 1,5,-1
 58 829 l 1,6,-1
 16 829 l 1,7,-1
 156 944 l 1,4,-1
EndSplineSet
EndChar

StartChar: Icircumflex
Encoding: 206 206 137
Width: 213
GlyphClass: 2
Flags: W
LayerCount: 2
Fore
SplineSet
90 750 m 1,0,-1
 123 750 l 1,1,-1
 123 0 l 1,2,-1
 90 0 l 1,3,-1
 90 750 l 1,0,-1
123 944 m 1,4,-1
 255 829 l 1,5,-1
 214 829 l 1,6,-1
 107 920 l 1,7,-1
 1 829 l 1,8,-1
 -41 829 l 1,9,-1
 93 944 l 1,10,-1
 123 944 l 1,4,-1
EndSplineSet
EndChar

StartChar: Idieresis
Encoding: 207 207 138
Width: 213
GlyphClass: 2
Flags: W
LayerCount: 2
Fore
SplineSet
90 750 m 1,0,-1
 123 750 l 1,1,-1
 123 0 l 1,2,-1
 90 0 l 1,3,-1
 90 750 l 1,0,-1
25 885 m 128,-1,5
 25 912 25 912 54 912 c 128,-1,6
 83 912 83 912 83 885 c 128,-1,7
 83 858 83 858 54 858 c 128,-1,4
 25 858 25 858 25 885 c 128,-1,5
132 885 m 128,-1,9
 132 912 132 912 159.5 912 c 128,-1,10
 187 912 187 912 187 885 c 128,-1,11
 187 858 187 858 159.5 858 c 128,-1,8
 132 858 132 858 132 885 c 128,-1,9
EndSplineSet
EndChar

StartChar: Eth
Encoding: 208 208 139
Width: 526
GlyphClass: 2
Flags: W
LayerCount: 2
Fore
SplineSet
75 750 m 1,0,-1
 107 750 l 2,1,2
 275 750 275 750 378 639.5 c 128,-1,3
 481 529 481 529 481 374.5 c 128,-1,4
 481 220 481 220 378.5 110 c 128,-1,5
 276 0 276 0 107 0 c 2,6,-1
 75 0 l 1,7,-1
 75 361 l 1,8,-1
 15 361 l 1,9,-1
 15 390 l 1,10,-1
 75 390 l 1,11,-1
 75 750 l 1,0,-1
115 720 m 2,12,-1
 107 720 l 1,13,-1
 107 390 l 1,14,-1
 231 390 l 1,15,-1
 231 361 l 1,16,-1
 107 361 l 1,17,-1
 107 31 l 1,18,-1
 115 31 l 2,19,20
 261 31 261 31 354.5 132 c 128,-1,21
 448 233 448 233 448 374.5 c 128,-1,22
 448 516 448 516 354.5 618 c 128,-1,23
 261 720 261 720 115 720 c 2,12,-1
EndSplineSet
EndChar

StartChar: Ntilde
Encoding: 209 209 140
Width: 751
GlyphClass: 2
Flags: W
LayerCount: 2
Fore
SplineSet
637 750 m 1,0,-1
 666 750 l 1,1,-1
 666 -11 l 1,2,-1
 114 668 l 1,3,-1
 114 0 l 1,4,-1
 85 0 l 1,5,-1
 85 761 l 1,6,-1
 637 83 l 1,7,-1
 637 750 l 1,0,-1
456 847 m 0,8,9
 427 847 427 847 377.5 874.5 c 128,-1,10
 328 902 328 902 298 901.5 c 128,-1,11
 268 901 268 901 236 848 c 1,12,-1
 205 848 l 1,13,14
 244 928 244 928 300 928 c 2,15,-1
 309 928 l 2,16,17
 339 928 339 928 384 901.5 c 128,-1,18
 429 875 429 875 456.5 875 c 128,-1,19
 484 875 484 875 515 924 c 1,20,-1
 546 924 l 1,21,22
 499 847 499 847 456 847 c 0,8,9
EndSplineSet
EndChar

StartChar: Ograve
Encoding: 210 210 141
Width: 890
GlyphClass: 2
Flags: W
LayerCount: 2
Fore
SplineSet
168.5 104 m 128,-1,1
 55 221 55 221 55 377.5 c 128,-1,2
 55 534 55 534 170 648.5 c 128,-1,3
 285 763 285 763 446 763 c 128,-1,4
 607 763 607 763 721 649 c 128,-1,5
 835 535 835 535 835 377.5 c 128,-1,6
 835 220 835 220 722 103.5 c 128,-1,7
 609 -13 609 -13 452 -13 c 2,8,-1
 437 -13 l 2,9,0
 282 -13 282 -13 168.5 104 c 128,-1,1
697.5 628.5 m 128,-1,11
 593 734 593 734 445.5 734 c 128,-1,12
 298 734 298 734 193 628.5 c 128,-1,13
 88 523 88 523 88 375.5 c 128,-1,14
 88 228 88 228 193 122 c 128,-1,15
 298 16 298 16 445 16 c 128,-1,16
 592 16 592 16 697 122 c 128,-1,17
 802 228 802 228 802 375.5 c 128,-1,10
 802 523 802 523 697.5 628.5 c 128,-1,11
354 944 m 1,18,-1
 395 944 l 1,19,-1
 535 829 l 1,20,-1
 493 829 l 1,21,-1
 354 944 l 1,18,-1
EndSplineSet
EndChar

StartChar: Oacute
Encoding: 211 211 142
Width: 890
GlyphClass: 2
Flags: W
LayerCount: 2
Fore
SplineSet
168.5 104 m 128,-1,1
 55 221 55 221 55 377.5 c 128,-1,2
 55 534 55 534 170 648.5 c 128,-1,3
 285 763 285 763 446 763 c 128,-1,4
 607 763 607 763 721 649 c 128,-1,5
 835 535 835 535 835 377.5 c 128,-1,6
 835 220 835 220 722 103.5 c 128,-1,7
 609 -13 609 -13 452 -13 c 2,8,-1
 437 -13 l 2,9,0
 282 -13 282 -13 168.5 104 c 128,-1,1
697.5 628.5 m 128,-1,11
 593 734 593 734 445.5 734 c 128,-1,12
 298 734 298 734 193 628.5 c 128,-1,13
 88 523 88 523 88 375.5 c 128,-1,14
 88 228 88 228 193 122 c 128,-1,15
 298 16 298 16 445 16 c 128,-1,16
 592 16 592 16 697 122 c 128,-1,17
 802 228 802 228 802 375.5 c 128,-1,10
 802 523 802 523 697.5 628.5 c 128,-1,11
494 944 m 1,18,-1
 535 944 l 1,19,-1
 396 829 l 1,20,-1
 354 829 l 1,21,-1
 494 944 l 1,18,-1
EndSplineSet
EndChar

StartChar: Ocircumflex
Encoding: 212 212 143
Width: 890
GlyphClass: 2
Flags: W
LayerCount: 2
Fore
SplineSet
168.5 104 m 128,-1,1
 55 221 55 221 55 377.5 c 128,-1,2
 55 534 55 534 170 648.5 c 128,-1,3
 285 763 285 763 446 763 c 128,-1,4
 607 763 607 763 721 649 c 128,-1,5
 835 535 835 535 835 377.5 c 128,-1,6
 835 220 835 220 722 103.5 c 128,-1,7
 609 -13 609 -13 452 -13 c 2,8,-1
 437 -13 l 2,9,0
 282 -13 282 -13 168.5 104 c 128,-1,1
697.5 628.5 m 128,-1,11
 593 734 593 734 445.5 734 c 128,-1,12
 298 734 298 734 193 628.5 c 128,-1,13
 88 523 88 523 88 375.5 c 128,-1,14
 88 228 88 228 193 122 c 128,-1,15
 298 16 298 16 445 16 c 128,-1,16
 592 16 592 16 697 122 c 128,-1,17
 802 228 802 228 802 375.5 c 128,-1,10
 802 523 802 523 697.5 628.5 c 128,-1,11
461 944 m 1,18,-1
 593 829 l 1,19,-1
 552 829 l 1,20,-1
 445 920 l 1,21,-1
 339 829 l 1,22,-1
 297 829 l 1,23,-1
 431 944 l 1,24,-1
 461 944 l 1,18,-1
EndSplineSet
EndChar

StartChar: Otilde
Encoding: 213 213 144
Width: 890
GlyphClass: 2
Flags: W
LayerCount: 2
Fore
SplineSet
168.5 104 m 128,-1,1
 55 221 55 221 55 377.5 c 128,-1,2
 55 534 55 534 170 648.5 c 128,-1,3
 285 763 285 763 446 763 c 128,-1,4
 607 763 607 763 721 649 c 128,-1,5
 835 535 835 535 835 377.5 c 128,-1,6
 835 220 835 220 722 103.5 c 128,-1,7
 609 -13 609 -13 452 -13 c 2,8,-1
 437 -13 l 2,9,0
 282 -13 282 -13 168.5 104 c 128,-1,1
697.5 628.5 m 128,-1,11
 593 734 593 734 445.5 734 c 128,-1,12
 298 734 298 734 193 628.5 c 128,-1,13
 88 523 88 523 88 375.5 c 128,-1,14
 88 228 88 228 193 122 c 128,-1,15
 298 16 298 16 445 16 c 128,-1,16
 592 16 592 16 697 122 c 128,-1,17
 802 228 802 228 802 375.5 c 128,-1,10
 802 523 802 523 697.5 628.5 c 128,-1,11
525 847 m 0,18,19
 496 847 496 847 446.5 874.5 c 128,-1,20
 397 902 397 902 367 901.5 c 128,-1,21
 337 901 337 901 305 848 c 1,22,-1
 274 848 l 1,23,24
 313 928 313 928 369 928 c 2,25,-1
 378 928 l 2,26,27
 408 928 408 928 453 901.5 c 128,-1,28
 498 875 498 875 525.5 875 c 128,-1,29
 553 875 553 875 584 924 c 1,30,-1
 615 924 l 1,31,32
 568 847 568 847 525 847 c 0,18,19
EndSplineSet
EndChar

StartChar: Odieresis
Encoding: 214 214 145
Width: 890
GlyphClass: 2
Flags: W
LayerCount: 2
Fore
SplineSet
168.5 104 m 128,-1,1
 55 221 55 221 55 377.5 c 128,-1,2
 55 534 55 534 170 648.5 c 128,-1,3
 285 763 285 763 446 763 c 128,-1,4
 607 763 607 763 721 649 c 128,-1,5
 835 535 835 535 835 377.5 c 128,-1,6
 835 220 835 220 722 103.5 c 128,-1,7
 609 -13 609 -13 452 -13 c 2,8,-1
 437 -13 l 2,9,0
 282 -13 282 -13 168.5 104 c 128,-1,1
697.5 628.5 m 128,-1,11
 593 734 593 734 445.5 734 c 128,-1,12
 298 734 298 734 193 628.5 c 128,-1,13
 88 523 88 523 88 375.5 c 128,-1,14
 88 228 88 228 193 122 c 128,-1,15
 298 16 298 16 445 16 c 128,-1,16
 592 16 592 16 697 122 c 128,-1,17
 802 228 802 228 802 375.5 c 128,-1,10
 802 523 802 523 697.5 628.5 c 128,-1,11
364 885 m 128,-1,19
 364 912 364 912 393 912 c 128,-1,20
 422 912 422 912 422 885 c 128,-1,21
 422 858 422 858 393 858 c 128,-1,18
 364 858 364 858 364 885 c 128,-1,19
471 885 m 128,-1,23
 471 912 471 912 498.5 912 c 128,-1,24
 526 912 526 912 526 885 c 128,-1,25
 526 858 526 858 498.5 858 c 128,-1,22
 471 858 471 858 471 885 c 128,-1,23
EndSplineSet
EndChar

StartChar: multiply
Encoding: 215 215 146
Width: 393
GlyphClass: 2
Flags: W
LayerCount: 2
Fore
SplineSet
174 405 m 1,0,-1
 75 504 l 1,1,-1
 97 526 l 1,2,-1
 196 427 l 1,3,-1
 294 525 l 1,4,-1
 318 502 l 1,5,-1
 219 403 l 1,6,-1
 317 306 l 1,7,-1
 295 284 l 1,8,-1
 197 381 l 1,9,-1
 103 287 l 1,10,-1
 79 310 l 1,11,-1
 174 405 l 1,0,-1
EndSplineSet
EndChar

StartChar: Oslash
Encoding: 216 216 147
Width: 880
GlyphClass: 2
Flags: W
LayerCount: 2
Fore
SplineSet
830 375 m 0,0,1
 830 220 830 220 717 103.5 c 128,-1,2
 604 -13 604 -13 447 -13 c 2,3,-1
 432 -13 l 2,4,5
 316 -13 316 -13 221 54 c 1,6,-1
 181 0 l 1,7,-1
 144 0 l 1,8,-1
 198 72 l 1,9,10
 129 128 129 128 89.5 207 c 128,-1,11
 50 286 50 286 50 375 c 0,12,13
 50 534 50 534 165 648.5 c 128,-1,14
 280 763 280 763 440 763 c 0,15,16
 561 763 561 763 661 694 c 1,17,-1
 701 748 l 1,18,-1
 740 748 l 1,19,-1
 685 675 l 1,20,21
 753 620 753 620 791.5 542 c 128,-1,22
 830 464 830 464 830 375 c 0,0,1
440 734 m 0,23,24
 293 734 293 734 188 628.5 c 128,-1,25
 83 523 83 523 83 375 c 0,26,27
 83 292 83 292 118.5 219.5 c 128,-1,28
 154 147 154 147 216 96 c 1,29,-1
 643 670 l 1,30,31
 549 734 549 734 440 734 c 0,23,24
797 375 m 0,32,33
 797 457 797 457 762.5 528.5 c 128,-1,34
 728 600 728 600 667 651 c 1,35,-1
 239 79 l 1,36,37
 332 16 332 16 440 16 c 0,38,39
 587 16 587 16 692 122 c 128,-1,40
 797 228 797 228 797 375 c 0,32,33
EndSplineSet
EndChar

StartChar: Ugrave
Encoding: 217 217 148
Width: 617
GlyphClass: 2
Flags: W
LayerCount: 2
Fore
SplineSet
314 -14 m 2,0,-1
 304 -14 l 2,1,2
 212 -14 212 -14 148.5 50 c 128,-1,3
 85 114 85 114 85 211 c 2,4,-1
 85 750 l 1,5,-1
 118 750 l 1,6,-1
 118 212 l 2,7,8
 118 127 118 127 173 71 c 128,-1,9
 228 15 228 15 309 15 c 128,-1,10
 390 15 390 15 444.5 70.5 c 128,-1,11
 499 126 499 126 499 212 c 2,12,-1
 499 750 l 1,13,-1
 532 750 l 1,14,-1
 532 213 l 2,15,16
 532 115 532 115 468.5 50.5 c 128,-1,17
 405 -14 405 -14 314 -14 c 2,0,-1
218 944 m 1,18,-1
 259 944 l 1,19,-1
 399 829 l 1,20,-1
 357 829 l 1,21,-1
 218 944 l 1,18,-1
EndSplineSet
EndChar

StartChar: Uacute
Encoding: 218 218 149
Width: 617
GlyphClass: 2
Flags: W
LayerCount: 2
Fore
SplineSet
314 -14 m 2,0,-1
 304 -14 l 2,1,2
 212 -14 212 -14 148.5 50 c 128,-1,3
 85 114 85 114 85 211 c 2,4,-1
 85 750 l 1,5,-1
 118 750 l 1,6,-1
 118 212 l 2,7,8
 118 127 118 127 173 71 c 128,-1,9
 228 15 228 15 309 15 c 128,-1,10
 390 15 390 15 444.5 70.5 c 128,-1,11
 499 126 499 126 499 212 c 2,12,-1
 499 750 l 1,13,-1
 532 750 l 1,14,-1
 532 213 l 2,15,16
 532 115 532 115 468.5 50.5 c 128,-1,17
 405 -14 405 -14 314 -14 c 2,0,-1
358 944 m 1,18,-1
 399 944 l 1,19,-1
 260 829 l 1,20,-1
 218 829 l 1,21,-1
 358 944 l 1,18,-1
EndSplineSet
EndChar

StartChar: Ucircumflex
Encoding: 219 219 150
Width: 617
GlyphClass: 2
Flags: W
LayerCount: 2
Fore
SplineSet
314 -14 m 2,0,-1
 304 -14 l 2,1,2
 212 -14 212 -14 148.5 50 c 128,-1,3
 85 114 85 114 85 211 c 2,4,-1
 85 750 l 1,5,-1
 118 750 l 1,6,-1
 118 212 l 2,7,8
 118 127 118 127 173 71 c 128,-1,9
 228 15 228 15 309 15 c 128,-1,10
 390 15 390 15 444.5 70.5 c 128,-1,11
 499 126 499 126 499 212 c 2,12,-1
 499 750 l 1,13,-1
 532 750 l 1,14,-1
 532 213 l 2,15,16
 532 115 532 115 468.5 50.5 c 128,-1,17
 405 -14 405 -14 314 -14 c 2,0,-1
324 944 m 1,18,-1
 456 829 l 1,19,-1
 415 829 l 1,20,-1
 308 920 l 1,21,-1
 202 829 l 1,22,-1
 160 829 l 1,23,-1
 294 944 l 1,24,-1
 324 944 l 1,18,-1
EndSplineSet
EndChar

StartChar: Udieresis
Encoding: 220 220 151
Width: 617
GlyphClass: 2
Flags: W
LayerCount: 2
Fore
SplineSet
314 -14 m 2,0,-1
 304 -14 l 2,1,2
 212 -14 212 -14 148.5 50 c 128,-1,3
 85 114 85 114 85 211 c 2,4,-1
 85 750 l 1,5,-1
 118 750 l 1,6,-1
 118 212 l 2,7,8
 118 127 118 127 173 71 c 128,-1,9
 228 15 228 15 309 15 c 128,-1,10
 390 15 390 15 444.5 70.5 c 128,-1,11
 499 126 499 126 499 212 c 2,12,-1
 499 750 l 1,13,-1
 532 750 l 1,14,-1
 532 213 l 2,15,16
 532 115 532 115 468.5 50.5 c 128,-1,17
 405 -14 405 -14 314 -14 c 2,0,-1
227 885 m 128,-1,19
 227 912 227 912 256 912 c 128,-1,20
 285 912 285 912 285 885 c 128,-1,21
 285 858 285 858 256 858 c 128,-1,18
 227 858 227 858 227 885 c 128,-1,19
334 885 m 128,-1,23
 334 912 334 912 361.5 912 c 128,-1,24
 389 912 389 912 389 885 c 128,-1,25
 389 858 389 858 361.5 858 c 128,-1,22
 334 858 334 858 334 885 c 128,-1,23
EndSplineSet
EndChar

StartChar: Yacute
Encoding: 221 221 152
Width: 544
GlyphClass: 2
Flags: W
LayerCount: 2
Fore
SplineSet
291 0 m 1,0,-1
 258 0 l 1,1,-1
 258 300 l 1,2,-1
 30 750 l 1,3,-1
 66 750 l 1,4,-1
 277 335 l 1,5,-1
 484 750 l 1,6,-1
 514 750 l 1,7,-1
 291 300 l 1,8,-1
 291 0 l 1,0,-1
321 944 m 1,9,-1
 362 944 l 1,10,-1
 223 829 l 1,11,-1
 181 829 l 1,12,-1
 321 944 l 1,9,-1
EndSplineSet
EndChar

StartChar: Thorn
Encoding: 222 222 153
Width: 410
GlyphClass: 2
Flags: W
LayerCount: 2
Fore
SplineSet
75 0 m 1,0,-1
 75 749 l 1,1,-1
 107 749 l 1,2,-1
 107 631 l 1,3,-1
 116 631 l 2,4,5
 213 631 213 631 286.5 559.5 c 128,-1,6
 360 488 360 488 360 391 c 128,-1,7
 360 294 360 294 284 223.5 c 128,-1,8
 208 153 208 153 116 153 c 2,9,-1
 107 153 l 1,10,-1
 107 0 l 1,11,-1
 75 0 l 1,0,-1
107 602 m 1,12,-1
 107 182 l 1,13,-1
 116 182 l 2,14,15
 200 182 200 182 264 243 c 128,-1,16
 328 304 328 304 328 390 c 128,-1,17
 328 476 328 476 264 539 c 128,-1,18
 200 602 200 602 116 602 c 2,19,-1
 107 602 l 1,12,-1
EndSplineSet
EndChar

StartChar: germandbls
Encoding: 223 223 154
Width: 572
GlyphClass: 2
Flags: W
LayerCount: 2
Fore
SplineSet
317.5 666 m 128,-1,1
 359 625 359 625 359 564 c 128,-1,2
 359 503 359 503 303 456 c 1,3,4
 399 452 399 452 465.5 385 c 128,-1,5
 532 318 532 318 532 222.5 c 128,-1,6
 532 127 532 127 463 58.5 c 128,-1,7
 394 -10 394 -10 297 -10 c 0,8,9
 250 -10 250 -10 202 10 c 1,10,-1
 202 44 l 1,11,12
 248 19 248 19 297 19 c 0,13,14
 380 19 380 19 441 79.5 c 128,-1,15
 502 140 502 140 502 223.5 c 128,-1,16
 502 307 502 307 441.5 367 c 128,-1,17
 381 427 381 427 297 427 c 2,18,-1
 216 427 l 1,19,-1
 216 456 l 1,20,21
 261 456 261 456 294 489.5 c 128,-1,22
 327 523 327 523 327 567.5 c 128,-1,23
 327 612 327 612 294 645 c 128,-1,24
 261 678 261 678 217 678 c 128,-1,25
 173 678 173 678 140 645 c 128,-1,26
 107 612 107 612 107 567 c 2,27,-1
 107 0 l 1,28,-1
 75 0 l 1,29,-1
 75 567 l 2,30,31
 75 625 75 625 116.5 666 c 128,-1,32
 158 707 158 707 217 707 c 128,-1,0
 276 707 276 707 317.5 666 c 128,-1,1
EndSplineSet
EndChar

StartChar: agrave
Encoding: 224 224 155
Width: 589
GlyphClass: 2
Flags: W
LayerCount: 2
Fore
SplineSet
519 450 m 1,0,-1
 519 0 l 1,1,-1
 487 0 l 1,2,-1
 487 112 l 1,3,4
 459 55 459 55 403 22 c 128,-1,5
 347 -11 347 -11 283 -11 c 0,6,7
 185 -11 185 -11 115 58.5 c 128,-1,8
 45 128 45 128 45 225 c 128,-1,9
 45 322 45 322 115 391.5 c 128,-1,10
 185 461 185 461 283 461 c 0,11,12
 347 461 347 461 405.5 427 c 128,-1,13
 464 393 464 393 487 337 c 1,14,-1
 487 450 l 1,15,-1
 519 450 l 1,0,-1
138.5 78.5 m 128,-1,17
 200 17 200 17 284.5 17 c 128,-1,18
 369 17 369 17 429 78.5 c 128,-1,19
 489 140 489 140 489 224.5 c 128,-1,20
 489 309 489 309 428.5 371 c 128,-1,21
 368 433 368 433 284 433 c 128,-1,22
 200 433 200 433 138.5 370.5 c 128,-1,23
 77 308 77 308 77 224 c 128,-1,16
 77 140 77 140 138.5 78.5 c 128,-1,17
204 644 m 1,24,-1
 245 644 l 1,25,-1
 385 529 l 1,26,-1
 343 529 l 1,27,-1
 204 644 l 1,24,-1
EndSplineSet
EndChar

StartChar: aacute
Encoding: 225 225 156
Width: 589
GlyphClass: 2
Flags: W
LayerCount: 2
Fore
SplineSet
519 450 m 1,0,-1
 519 0 l 1,1,-1
 487 0 l 1,2,-1
 487 112 l 1,3,4
 459 55 459 55 403 22 c 128,-1,5
 347 -11 347 -11 283 -11 c 0,6,7
 185 -11 185 -11 115 58.5 c 128,-1,8
 45 128 45 128 45 225 c 128,-1,9
 45 322 45 322 115 391.5 c 128,-1,10
 185 461 185 461 283 461 c 0,11,12
 347 461 347 461 405.5 427 c 128,-1,13
 464 393 464 393 487 337 c 1,14,-1
 487 450 l 1,15,-1
 519 450 l 1,0,-1
138.5 78.5 m 128,-1,17
 200 17 200 17 284.5 17 c 128,-1,18
 369 17 369 17 429 78.5 c 128,-1,19
 489 140 489 140 489 224.5 c 128,-1,20
 489 309 489 309 428.5 371 c 128,-1,21
 368 433 368 433 284 433 c 128,-1,22
 200 433 200 433 138.5 370.5 c 128,-1,23
 77 308 77 308 77 224 c 128,-1,16
 77 140 77 140 138.5 78.5 c 128,-1,17
344 644 m 1,24,-1
 385 644 l 1,25,-1
 246 529 l 1,26,-1
 204 529 l 1,27,-1
 344 644 l 1,24,-1
EndSplineSet
EndChar

StartChar: acircumflex
Encoding: 226 226 157
Width: 589
GlyphClass: 2
Flags: W
LayerCount: 2
Fore
SplineSet
519 450 m 1,0,-1
 519 0 l 1,1,-1
 487 0 l 1,2,-1
 487 112 l 1,3,4
 459 55 459 55 403 22 c 128,-1,5
 347 -11 347 -11 283 -11 c 0,6,7
 185 -11 185 -11 115 58.5 c 128,-1,8
 45 128 45 128 45 225 c 128,-1,9
 45 322 45 322 115 391.5 c 128,-1,10
 185 461 185 461 283 461 c 0,11,12
 347 461 347 461 405.5 427 c 128,-1,13
 464 393 464 393 487 337 c 1,14,-1
 487 450 l 1,15,-1
 519 450 l 1,0,-1
138.5 78.5 m 128,-1,17
 200 17 200 17 284.5 17 c 128,-1,18
 369 17 369 17 429 78.5 c 128,-1,19
 489 140 489 140 489 224.5 c 128,-1,20
 489 309 489 309 428.5 371 c 128,-1,21
 368 433 368 433 284 433 c 128,-1,22
 200 433 200 433 138.5 370.5 c 128,-1,23
 77 308 77 308 77 224 c 128,-1,16
 77 140 77 140 138.5 78.5 c 128,-1,17
310 644 m 1,24,-1
 442 529 l 1,25,-1
 401 529 l 1,26,-1
 294 620 l 1,27,-1
 188 529 l 1,28,-1
 146 529 l 1,29,-1
 280 644 l 1,30,-1
 310 644 l 1,24,-1
EndSplineSet
EndChar

StartChar: atilde
Encoding: 227 227 158
Width: 589
GlyphClass: 2
Flags: W
LayerCount: 2
Fore
SplineSet
519 450 m 1,0,-1
 519 0 l 1,1,-1
 487 0 l 1,2,-1
 487 112 l 1,3,4
 459 55 459 55 403 22 c 128,-1,5
 347 -11 347 -11 283 -11 c 0,6,7
 185 -11 185 -11 115 58.5 c 128,-1,8
 45 128 45 128 45 225 c 128,-1,9
 45 322 45 322 115 391.5 c 128,-1,10
 185 461 185 461 283 461 c 0,11,12
 347 461 347 461 405.5 427 c 128,-1,13
 464 393 464 393 487 337 c 1,14,-1
 487 450 l 1,15,-1
 519 450 l 1,0,-1
138.5 78.5 m 128,-1,17
 200 17 200 17 284.5 17 c 128,-1,18
 369 17 369 17 429 78.5 c 128,-1,19
 489 140 489 140 489 224.5 c 128,-1,20
 489 309 489 309 428.5 371 c 128,-1,21
 368 433 368 433 284 433 c 128,-1,22
 200 433 200 433 138.5 370.5 c 128,-1,23
 77 308 77 308 77 224 c 128,-1,16
 77 140 77 140 138.5 78.5 c 128,-1,17
375 547 m 0,24,25
 346 547 346 547 296.5 574.5 c 128,-1,26
 247 602 247 602 217 601.5 c 128,-1,27
 187 601 187 601 155 548 c 1,28,-1
 124 548 l 1,29,30
 163 628 163 628 219 628 c 2,31,-1
 228 628 l 2,32,33
 258 628 258 628 303 601.5 c 128,-1,34
 348 575 348 575 375.5 575 c 128,-1,35
 403 575 403 575 434 624 c 1,36,-1
 465 624 l 1,37,38
 418 547 418 547 375 547 c 0,24,25
EndSplineSet
EndChar

StartChar: adieresis
Encoding: 228 228 159
Width: 589
GlyphClass: 2
Flags: W
LayerCount: 2
Fore
SplineSet
519 450 m 1,0,-1
 519 0 l 1,1,-1
 487 0 l 1,2,-1
 487 112 l 1,3,4
 459 55 459 55 403 22 c 128,-1,5
 347 -11 347 -11 283 -11 c 0,6,7
 185 -11 185 -11 115 58.5 c 128,-1,8
 45 128 45 128 45 225 c 128,-1,9
 45 322 45 322 115 391.5 c 128,-1,10
 185 461 185 461 283 461 c 0,11,12
 347 461 347 461 405.5 427 c 128,-1,13
 464 393 464 393 487 337 c 1,14,-1
 487 450 l 1,15,-1
 519 450 l 1,0,-1
138.5 78.5 m 128,-1,17
 200 17 200 17 284.5 17 c 128,-1,18
 369 17 369 17 429 78.5 c 128,-1,19
 489 140 489 140 489 224.5 c 128,-1,20
 489 309 489 309 428.5 371 c 128,-1,21
 368 433 368 433 284 433 c 128,-1,22
 200 433 200 433 138.5 370.5 c 128,-1,23
 77 308 77 308 77 224 c 128,-1,16
 77 140 77 140 138.5 78.5 c 128,-1,17
213 585 m 128,-1,25
 213 612 213 612 242 612 c 128,-1,26
 271 612 271 612 271 585 c 128,-1,27
 271 558 271 558 242 558 c 128,-1,24
 213 558 213 558 213 585 c 128,-1,25
320 585 m 128,-1,29
 320 612 320 612 347.5 612 c 128,-1,30
 375 612 375 612 375 585 c 128,-1,31
 375 558 375 558 347.5 558 c 128,-1,28
 320 558 320 558 320 585 c 128,-1,29
EndSplineSet
EndChar

StartChar: aring
Encoding: 229 229 160
Width: 589
GlyphClass: 2
Flags: W
LayerCount: 2
Fore
SplineSet
519 450 m 1,0,-1
 519 0 l 1,1,-1
 487 0 l 1,2,-1
 487 112 l 1,3,4
 459 55 459 55 403 22 c 128,-1,5
 347 -11 347 -11 283 -11 c 0,6,7
 185 -11 185 -11 115 58.5 c 128,-1,8
 45 128 45 128 45 225 c 128,-1,9
 45 322 45 322 115 391.5 c 128,-1,10
 185 461 185 461 283 461 c 0,11,12
 347 461 347 461 405.5 427 c 128,-1,13
 464 393 464 393 487 337 c 1,14,-1
 487 450 l 1,15,-1
 519 450 l 1,0,-1
138.5 78.5 m 128,-1,17
 200 17 200 17 284.5 17 c 128,-1,18
 369 17 369 17 429 78.5 c 128,-1,19
 489 140 489 140 489 224.5 c 128,-1,20
 489 309 489 309 428.5 371 c 128,-1,21
 368 433 368 433 284 433 c 128,-1,22
 200 433 200 433 138.5 370.5 c 128,-1,23
 77 308 77 308 77 224 c 128,-1,16
 77 140 77 140 138.5 78.5 c 128,-1,17
296 512 m 2,24,-1
 292 512 l 2,25,26
 262 512 262 512 240.5 534.5 c 128,-1,27
 219 557 219 557 219 587.5 c 128,-1,28
 219 618 219 618 241 640 c 128,-1,29
 263 662 263 662 294.5 662 c 128,-1,30
 326 662 326 662 348 640 c 128,-1,31
 370 618 370 618 370 587.5 c 128,-1,32
 370 557 370 557 348 534.5 c 128,-1,33
 326 512 326 512 296 512 c 2,24,-1
329.5 623 m 128,-1,35
 315 638 315 638 294.5 638 c 128,-1,36
 274 638 274 638 259 622.5 c 128,-1,37
 244 607 244 607 244 587 c 128,-1,38
 244 567 244 567 259 551.5 c 128,-1,39
 274 536 274 536 294.5 536 c 128,-1,40
 315 536 315 536 329.5 551 c 128,-1,41
 344 566 344 566 344 587 c 128,-1,34
 344 608 344 608 329.5 623 c 128,-1,35
EndSplineSet
EndChar

StartChar: ae
Encoding: 230 230 161
Width: 932
GlyphClass: 2
Flags: W
LayerCount: 2
Fore
SplineSet
722 -11 m 2,0,-1
 707 -11 l 2,1,2
 645 -11 645 -11 592 23 c 128,-1,3
 539 57 539 57 508 112 c 1,4,-1
 508 0 l 1,5,-1
 482 0 l 1,6,-1
 482 105 l 1,7,8
 450 51 450 51 395 20 c 128,-1,9
 340 -11 340 -11 278 -11 c 0,10,11
 180 -11 180 -11 110 58.5 c 128,-1,12
 40 128 40 128 40 225 c 128,-1,13
 40 322 40 322 110 391.5 c 128,-1,14
 180 461 180 461 278 461 c 0,15,16
 340 461 340 461 395 430 c 128,-1,17
 450 399 450 399 482 345 c 1,18,-1
 482 450 l 1,19,-1
 508 450 l 1,20,-1
 508 339 l 1,21,22
 539 394 539 394 594 427.5 c 128,-1,23
 649 461 649 461 715 461 c 0,24,25
 823 461 823 461 897 379 c 1,26,-1
 583 69 l 1,27,28
 648 17 648 17 708 17 c 128,-1,29
 768 17 768 17 815.5 44.5 c 128,-1,30
 863 72 863 72 894 118 c 1,31,-1
 894 67 l 1,32,33
 823 -11 823 -11 722 -11 c 2,0,-1
133.5 78.5 m 128,-1,35
 195 17 195 17 279.5 17 c 128,-1,36
 364 17 364 17 424 78.5 c 128,-1,37
 484 140 484 140 484 224.5 c 128,-1,38
 484 309 484 309 423.5 371 c 128,-1,39
 363 433 363 433 279 433 c 128,-1,40
 195 433 195 433 133.5 370.5 c 128,-1,41
 72 308 72 308 72 224 c 128,-1,34
 72 140 72 140 133.5 78.5 c 128,-1,35
569.5 371.5 m 128,-1,43
 508 310 508 310 508 230.5 c 128,-1,44
 508 151 508 151 562 90 c 1,45,-1
 853 379 l 1,46,47
 791 433 791 433 711 433 c 128,-1,42
 631 433 631 433 569.5 371.5 c 128,-1,43
EndSplineSet
EndChar

StartChar: ccedilla
Encoding: 231 231 162
Width: 496
GlyphClass: 2
Flags: W
LayerCount: 2
Fore
SplineSet
239 -75 m 1,0,-1
 239 -9 l 1,1,2
 156 5 156 5 100.5 73 c 128,-1,3
 45 141 45 141 45 230.5 c 128,-1,4
 45 320 45 320 115 389.5 c 128,-1,5
 185 459 185 459 287 459 c 128,-1,6
 389 459 389 459 461 382 c 1,7,-1
 461 331 l 1,8,9
 430 377 430 377 382.5 404 c 128,-1,10
 335 431 335 431 283 431 c 0,11,12
 200 431 200 431 138.5 369.5 c 128,-1,13
 77 308 77 308 77 223 c 128,-1,14
 77 138 77 138 138.5 76.5 c 128,-1,15
 200 15 200 15 283 15 c 0,16,17
 335 15 335 15 382.5 42 c 128,-1,18
 430 69 430 69 461 116 c 1,19,-1
 461 64 l 1,20,21
 391 -13 391 -13 288 -13 c 2,22,-1
 279 -13 l 2,23,24
 267 -13 267 -13 264 -12 c 1,25,-1
 264 -49 l 1,26,-1
 274 -49 l 2,27,28
 306 -49 306 -49 328.5 -71 c 128,-1,29
 351 -93 351 -93 351 -123 c 2,30,-1
 351 -127 l 2,31,32
 351 -157 351 -157 329 -178.5 c 128,-1,33
 307 -200 307 -200 274 -200 c 2,34,-1
 239 -200 l 1,35,-1
 239 -175 l 1,36,-1
 274 -175 l 2,37,38
 297 -175 297 -175 312 -160.5 c 128,-1,39
 327 -146 327 -146 327 -125 c 128,-1,40
 327 -104 327 -104 312 -89.5 c 128,-1,41
 297 -75 297 -75 274 -75 c 2,42,-1
 239 -75 l 1,0,-1
EndSplineSet
EndChar

StartChar: egrave
Encoding: 232 232 163
Width: 515
GlyphClass: 2
Flags: W
LayerCount: 2
Fore
SplineSet
295 -12 m 2,0,-1
 286 -12 l 2,1,2
 191 -12 191 -12 120.5 59.5 c 128,-1,3
 50 131 50 131 50 226 c 128,-1,4
 50 321 50 321 120 390.5 c 128,-1,5
 190 460 190 460 293 460 c 128,-1,6
 396 460 396 460 470 378 c 1,7,-1
 156 68 l 1,8,9
 221 16 221 16 281 16 c 128,-1,10
 341 16 341 16 388.5 43.5 c 128,-1,11
 436 71 436 71 467 117 c 1,12,-1
 467 66 l 1,13,14
 396 -12 396 -12 295 -12 c 2,0,-1
143.5 370.5 m 128,-1,16
 82 309 82 309 82 229 c 128,-1,17
 82 149 82 149 135 89 c 1,18,-1
 426 378 l 1,19,20
 364 432 364 432 284.5 432 c 128,-1,15
 205 432 205 432 143.5 370.5 c 128,-1,16
167 644 m 1,21,-1
 208 644 l 1,22,-1
 348 529 l 1,23,-1
 306 529 l 1,24,-1
 167 644 l 1,21,-1
EndSplineSet
EndChar

StartChar: eacute
Encoding: 233 233 164
Width: 515
GlyphClass: 2
Flags: W
LayerCount: 2
Fore
SplineSet
295 -12 m 2,0,-1
 286 -12 l 2,1,2
 191 -12 191 -12 120.5 59.5 c 128,-1,3
 50 131 50 131 50 226 c 128,-1,4
 50 321 50 321 120 390.5 c 128,-1,5
 190 460 190 460 293 460 c 128,-1,6
 396 460 396 460 470 378 c 1,7,-1
 156 68 l 1,8,9
 221 16 221 16 281 16 c 128,-1,10
 341 16 341 16 388.5 43.5 c 128,-1,11
 436 71 436 71 467 117 c 1,12,-1
 467 66 l 1,13,14
 396 -12 396 -12 295 -12 c 2,0,-1
143.5 370.5 m 128,-1,16
 82 309 82 309 82 229 c 128,-1,17
 82 149 82 149 135 89 c 1,18,-1
 426 378 l 1,19,20
 364 432 364 432 284.5 432 c 128,-1,15
 205 432 205 432 143.5 370.5 c 128,-1,16
307 644 m 1,21,-1
 348 644 l 1,22,-1
 209 529 l 1,23,-1
 167 529 l 1,24,-1
 307 644 l 1,21,-1
EndSplineSet
EndChar

StartChar: ecircumflex
Encoding: 234 234 165
Width: 515
GlyphClass: 2
Flags: W
LayerCount: 2
Fore
SplineSet
295 -12 m 2,0,-1
 286 -12 l 2,1,2
 191 -12 191 -12 120.5 59.5 c 128,-1,3
 50 131 50 131 50 226 c 128,-1,4
 50 321 50 321 120 390.5 c 128,-1,5
 190 460 190 460 293 460 c 128,-1,6
 396 460 396 460 470 378 c 1,7,-1
 156 68 l 1,8,9
 221 16 221 16 281 16 c 128,-1,10
 341 16 341 16 388.5 43.5 c 128,-1,11
 436 71 436 71 467 117 c 1,12,-1
 467 66 l 1,13,14
 396 -12 396 -12 295 -12 c 2,0,-1
143.5 370.5 m 128,-1,16
 82 309 82 309 82 229 c 128,-1,17
 82 149 82 149 135 89 c 1,18,-1
 426 378 l 1,19,20
 364 432 364 432 284.5 432 c 128,-1,15
 205 432 205 432 143.5 370.5 c 128,-1,16
273 644 m 1,21,-1
 405 529 l 1,22,-1
 364 529 l 1,23,-1
 257 620 l 1,24,-1
 151 529 l 1,25,-1
 109 529 l 1,26,-1
 243 644 l 1,27,-1
 273 644 l 1,21,-1
EndSplineSet
EndChar

StartChar: edieresis
Encoding: 235 235 166
Width: 515
GlyphClass: 2
Flags: W
LayerCount: 2
Fore
SplineSet
295 -12 m 2,0,-1
 286 -12 l 2,1,2
 191 -12 191 -12 120.5 59.5 c 128,-1,3
 50 131 50 131 50 226 c 128,-1,4
 50 321 50 321 120 390.5 c 128,-1,5
 190 460 190 460 293 460 c 128,-1,6
 396 460 396 460 470 378 c 1,7,-1
 156 68 l 1,8,9
 221 16 221 16 281 16 c 128,-1,10
 341 16 341 16 388.5 43.5 c 128,-1,11
 436 71 436 71 467 117 c 1,12,-1
 467 66 l 1,13,14
 396 -12 396 -12 295 -12 c 2,0,-1
143.5 370.5 m 128,-1,16
 82 309 82 309 82 229 c 128,-1,17
 82 149 82 149 135 89 c 1,18,-1
 426 378 l 1,19,20
 364 432 364 432 284.5 432 c 128,-1,15
 205 432 205 432 143.5 370.5 c 128,-1,16
176 585 m 128,-1,22
 176 612 176 612 205 612 c 128,-1,23
 234 612 234 612 234 585 c 128,-1,24
 234 558 234 558 205 558 c 128,-1,21
 176 558 176 558 176 585 c 128,-1,22
283 585 m 128,-1,26
 283 612 283 612 310.5 612 c 128,-1,27
 338 612 338 612 338 585 c 128,-1,28
 338 558 338 558 310.5 558 c 128,-1,25
 283 558 283 558 283 585 c 128,-1,26
EndSplineSet
EndChar

StartChar: igrave
Encoding: 236 236 167
Width: 198
GlyphClass: 2
Flags: W
LayerCount: 2
Fore
SplineSet
115 449 m 1,0,-1
 115 0 l 1,1,-1
 83 0 l 1,2,-1
 83 449 l 1,3,-1
 115 449 l 1,0,-1
9 644 m 1,4,-1
 50 644 l 1,5,-1
 190 529 l 1,6,-1
 148 529 l 1,7,-1
 9 644 l 1,4,-1
EndSplineSet
EndChar

StartChar: iacute
Encoding: 237 237 168
Width: 198
GlyphClass: 2
Flags: W
LayerCount: 2
Fore
SplineSet
115 449 m 1,0,-1
 115 0 l 1,1,-1
 83 0 l 1,2,-1
 83 449 l 1,3,-1
 115 449 l 1,0,-1
149 644 m 1,4,-1
 190 644 l 1,5,-1
 51 529 l 1,6,-1
 9 529 l 1,7,-1
 149 644 l 1,4,-1
EndSplineSet
EndChar

StartChar: icircumflex
Encoding: 238 238 169
Width: 198
GlyphClass: 2
Flags: W
LayerCount: 2
Fore
SplineSet
115 449 m 1,0,-1
 115 0 l 1,1,-1
 83 0 l 1,2,-1
 83 449 l 1,3,-1
 115 449 l 1,0,-1
115 644 m 1,4,-1
 247 529 l 1,5,-1
 206 529 l 1,6,-1
 99 620 l 1,7,-1
 -7 529 l 1,8,-1
 -49 529 l 1,9,-1
 85 644 l 1,10,-1
 115 644 l 1,4,-1
EndSplineSet
EndChar

StartChar: idieresis
Encoding: 239 239 170
Width: 198
GlyphClass: 2
Flags: W
LayerCount: 2
Fore
SplineSet
115 449 m 1,0,-1
 115 0 l 1,1,-1
 83 0 l 1,2,-1
 83 449 l 1,3,-1
 115 449 l 1,0,-1
18 585 m 128,-1,5
 18 612 18 612 47 612 c 128,-1,6
 76 612 76 612 76 585 c 128,-1,7
 76 558 76 558 47 558 c 128,-1,4
 18 558 18 558 18 585 c 128,-1,5
125 585 m 128,-1,9
 125 612 125 612 152.5 612 c 128,-1,10
 180 612 180 612 180 585 c 128,-1,11
 180 558 180 558 152.5 558 c 128,-1,8
 125 558 125 558 125 585 c 128,-1,9
EndSplineSet
EndChar

StartChar: eth
Encoding: 240 240 171
Width: 571
GlyphClass: 2
Flags: W
LayerCount: 2
Fore
SplineSet
531 304 m 2,0,-1
 531 228 l 2,1,2
 531 133 531 133 462.5 60 c 128,-1,3
 394 -13 394 -13 301 -13 c 2,4,-1
 286 -13 l 2,5,6
 190 -13 190 -13 122.5 58 c 128,-1,7
 55 129 55 129 55 224.5 c 128,-1,8
 55 320 55 320 124.5 389.5 c 128,-1,9
 194 459 194 459 293 459 c 0,10,11
 357 459 357 459 414 425 c 128,-1,12
 471 391 471 391 500 331 c 1,13,-1
 500 340 l 2,14,15
 500 497 500 497 292 580 c 1,16,-1
 107 504 l 1,17,-1
 107 533 l 1,18,-1
 254 595 l 1,19,-1
 107 656 l 1,20,-1
 107 685 l 1,21,-1
 290 610 l 1,22,-1
 460 682 l 1,23,-1
 460 651 l 1,24,-1
 327 595 l 1,25,26
 376 574 376 574 407.5 554.5 c 128,-1,27
 439 535 439 535 470 502 c 0,28,29
 531 437 531 437 531 304 c 2,0,-1
147 76.5 m 128,-1,31
 207 15 207 15 291.5 15 c 128,-1,32
 376 15 376 15 437.5 76.5 c 128,-1,33
 499 138 499 138 499 222 c 128,-1,34
 499 306 499 306 437.5 368.5 c 128,-1,35
 376 431 376 431 292 431 c 128,-1,36
 208 431 208 431 147.5 369 c 128,-1,37
 87 307 87 307 87 222.5 c 128,-1,30
 87 138 87 138 147 76.5 c 128,-1,31
EndSplineSet
EndChar

StartChar: ntilde
Encoding: 241 241 172
Width: 544
GlyphClass: 2
Flags: W
LayerCount: 2
Fore
SplineSet
102 0 m 1,0,-1
 70 0 l 1,1,-1
 70 450 l 1,2,-1
 102 450 l 1,3,-1
 102 359 l 1,4,5
 153 461 153 461 276 461 c 0,6,7
 360 461 360 461 417 403 c 128,-1,8
 474 345 474 345 474 262 c 2,9,-1
 474 0 l 1,10,-1
 442 0 l 1,11,-1
 442 262 l 2,12,13
 442 331 442 331 393.5 382 c 128,-1,14
 345 433 345 433 276 433 c 128,-1,15
 207 433 207 433 154.5 382 c 128,-1,16
 102 331 102 331 102 262 c 2,17,-1
 102 0 l 1,0,-1
352 547 m 0,18,19
 323 547 323 547 273.5 574.5 c 128,-1,20
 224 602 224 602 194 601.5 c 128,-1,21
 164 601 164 601 132 548 c 1,22,-1
 101 548 l 1,23,24
 140 628 140 628 196 628 c 2,25,-1
 205 628 l 2,26,27
 235 628 235 628 280 601.5 c 128,-1,28
 325 575 325 575 352.5 575 c 128,-1,29
 380 575 380 575 411 624 c 1,30,-1
 442 624 l 1,31,32
 395 547 395 547 352 547 c 0,18,19
EndSplineSet
EndChar

StartChar: ograve
Encoding: 242 242 173
Width: 566
GlyphClass: 2
Flags: W
LayerCount: 2
Fore
SplineSet
114 60.5 m 128,-1,1
 45 132 45 132 45 227 c 128,-1,2
 45 322 45 322 115 391.5 c 128,-1,3
 185 461 185 461 283.5 461 c 128,-1,4
 382 461 382 461 451.5 391.5 c 128,-1,5
 521 322 521 322 521 226.5 c 128,-1,6
 521 131 521 131 453 60 c 128,-1,7
 385 -11 385 -11 288 -11 c 2,8,-1
 279 -11 l 2,9,0
 183 -11 183 -11 114 60.5 c 128,-1,1
428.5 371 m 128,-1,11
 368 433 368 433 284 433 c 128,-1,12
 200 433 200 433 138.5 370.5 c 128,-1,13
 77 308 77 308 77 224 c 128,-1,14
 77 140 77 140 138.5 78.5 c 128,-1,15
 200 17 200 17 284.5 17 c 128,-1,16
 369 17 369 17 429 78.5 c 128,-1,17
 489 140 489 140 489 224.5 c 128,-1,10
 489 309 489 309 428.5 371 c 128,-1,11
192 644 m 1,18,-1
 233 644 l 1,19,-1
 373 529 l 1,20,-1
 331 529 l 1,21,-1
 192 644 l 1,18,-1
EndSplineSet
EndChar

StartChar: oacute
Encoding: 243 243 174
Width: 566
GlyphClass: 2
Flags: W
LayerCount: 2
Fore
SplineSet
114 60.5 m 128,-1,1
 45 132 45 132 45 227 c 128,-1,2
 45 322 45 322 115 391.5 c 128,-1,3
 185 461 185 461 283.5 461 c 128,-1,4
 382 461 382 461 451.5 391.5 c 128,-1,5
 521 322 521 322 521 226.5 c 128,-1,6
 521 131 521 131 453 60 c 128,-1,7
 385 -11 385 -11 288 -11 c 2,8,-1
 279 -11 l 2,9,0
 183 -11 183 -11 114 60.5 c 128,-1,1
428.5 371 m 128,-1,11
 368 433 368 433 284 433 c 128,-1,12
 200 433 200 433 138.5 370.5 c 128,-1,13
 77 308 77 308 77 224 c 128,-1,14
 77 140 77 140 138.5 78.5 c 128,-1,15
 200 17 200 17 284.5 17 c 128,-1,16
 369 17 369 17 429 78.5 c 128,-1,17
 489 140 489 140 489 224.5 c 128,-1,10
 489 309 489 309 428.5 371 c 128,-1,11
332 644 m 1,18,-1
 373 644 l 1,19,-1
 234 529 l 1,20,-1
 192 529 l 1,21,-1
 332 644 l 1,18,-1
EndSplineSet
EndChar

StartChar: ocircumflex
Encoding: 244 244 175
Width: 566
GlyphClass: 2
Flags: W
LayerCount: 2
Fore
SplineSet
114 60.5 m 128,-1,1
 45 132 45 132 45 227 c 128,-1,2
 45 322 45 322 115 391.5 c 128,-1,3
 185 461 185 461 283.5 461 c 128,-1,4
 382 461 382 461 451.5 391.5 c 128,-1,5
 521 322 521 322 521 226.5 c 128,-1,6
 521 131 521 131 453 60 c 128,-1,7
 385 -11 385 -11 288 -11 c 2,8,-1
 279 -11 l 2,9,0
 183 -11 183 -11 114 60.5 c 128,-1,1
428.5 371 m 128,-1,11
 368 433 368 433 284 433 c 128,-1,12
 200 433 200 433 138.5 370.5 c 128,-1,13
 77 308 77 308 77 224 c 128,-1,14
 77 140 77 140 138.5 78.5 c 128,-1,15
 200 17 200 17 284.5 17 c 128,-1,16
 369 17 369 17 429 78.5 c 128,-1,17
 489 140 489 140 489 224.5 c 128,-1,10
 489 309 489 309 428.5 371 c 128,-1,11
299 644 m 1,18,-1
 431 529 l 1,19,-1
 390 529 l 1,20,-1
 283 620 l 1,21,-1
 177 529 l 1,22,-1
 135 529 l 1,23,-1
 269 644 l 1,24,-1
 299 644 l 1,18,-1
EndSplineSet
EndChar

StartChar: otilde
Encoding: 245 245 176
Width: 566
GlyphClass: 2
Flags: W
LayerCount: 2
Fore
SplineSet
114 60.5 m 128,-1,1
 45 132 45 132 45 227 c 128,-1,2
 45 322 45 322 115 391.5 c 128,-1,3
 185 461 185 461 283.5 461 c 128,-1,4
 382 461 382 461 451.5 391.5 c 128,-1,5
 521 322 521 322 521 226.5 c 128,-1,6
 521 131 521 131 453 60 c 128,-1,7
 385 -11 385 -11 288 -11 c 2,8,-1
 279 -11 l 2,9,0
 183 -11 183 -11 114 60.5 c 128,-1,1
428.5 371 m 128,-1,11
 368 433 368 433 284 433 c 128,-1,12
 200 433 200 433 138.5 370.5 c 128,-1,13
 77 308 77 308 77 224 c 128,-1,14
 77 140 77 140 138.5 78.5 c 128,-1,15
 200 17 200 17 284.5 17 c 128,-1,16
 369 17 369 17 429 78.5 c 128,-1,17
 489 140 489 140 489 224.5 c 128,-1,10
 489 309 489 309 428.5 371 c 128,-1,11
363 547 m 0,18,19
 334 547 334 547 284.5 574.5 c 128,-1,20
 235 602 235 602 205 601.5 c 128,-1,21
 175 601 175 601 143 548 c 1,22,-1
 112 548 l 1,23,24
 151 628 151 628 207 628 c 2,25,-1
 216 628 l 2,26,27
 246 628 246 628 291 601.5 c 128,-1,28
 336 575 336 575 363.5 575 c 128,-1,29
 391 575 391 575 422 624 c 1,30,-1
 453 624 l 1,31,32
 406 547 406 547 363 547 c 0,18,19
EndSplineSet
EndChar

StartChar: odieresis
Encoding: 246 246 177
Width: 566
GlyphClass: 2
Flags: W
LayerCount: 2
Fore
SplineSet
114 60.5 m 128,-1,1
 45 132 45 132 45 227 c 128,-1,2
 45 322 45 322 115 391.5 c 128,-1,3
 185 461 185 461 283.5 461 c 128,-1,4
 382 461 382 461 451.5 391.5 c 128,-1,5
 521 322 521 322 521 226.5 c 128,-1,6
 521 131 521 131 453 60 c 128,-1,7
 385 -11 385 -11 288 -11 c 2,8,-1
 279 -11 l 2,9,0
 183 -11 183 -11 114 60.5 c 128,-1,1
428.5 371 m 128,-1,11
 368 433 368 433 284 433 c 128,-1,12
 200 433 200 433 138.5 370.5 c 128,-1,13
 77 308 77 308 77 224 c 128,-1,14
 77 140 77 140 138.5 78.5 c 128,-1,15
 200 17 200 17 284.5 17 c 128,-1,16
 369 17 369 17 429 78.5 c 128,-1,17
 489 140 489 140 489 224.5 c 128,-1,10
 489 309 489 309 428.5 371 c 128,-1,11
202 585 m 128,-1,19
 202 612 202 612 231 612 c 128,-1,20
 260 612 260 612 260 585 c 128,-1,21
 260 558 260 558 231 558 c 128,-1,18
 202 558 202 558 202 585 c 128,-1,19
309 585 m 128,-1,23
 309 612 309 612 336.5 612 c 128,-1,24
 364 612 364 612 364 585 c 128,-1,25
 364 558 364 558 336.5 558 c 128,-1,22
 309 558 309 558 309 585 c 128,-1,23
EndSplineSet
EndChar

StartChar: divide
Encoding: 247 247 178
Width: 461
GlyphClass: 2
Flags: W
LayerCount: 2
Fore
SplineSet
386 387 m 1,0,-1
 75 387 l 1,1,-1
 75 418 l 1,2,-1
 386 418 l 1,3,-1
 386 387 l 1,0,-1
199 286 m 128,-1,5
 199 317 199 317 233.5 317 c 128,-1,6
 268 317 268 317 268 286 c 128,-1,7
 268 255 268 255 233.5 255 c 128,-1,4
 199 255 199 255 199 286 c 128,-1,5
199 526 m 128,-1,9
 199 557 199 557 233.5 557 c 128,-1,10
 268 557 268 557 268 526 c 128,-1,11
 268 495 268 495 233.5 495 c 128,-1,8
 199 495 199 495 199 526 c 128,-1,9
EndSplineSet
EndChar

StartChar: oslash
Encoding: 248 248 179
Width: 556
GlyphClass: 2
Flags: W
LayerCount: 2
Fore
SplineSet
432 404 m 1,0,1
 516 332 516 332 516 231.5 c 128,-1,2
 516 131 516 131 448.5 60 c 128,-1,3
 381 -11 381 -11 285 -11 c 2,4,-1
 270 -11 l 2,5,6
 202 -11 202 -11 149 26 c 1,7,-1
 130 0 l 1,8,-1
 93 0 l 1,9,-1
 126 44 l 1,10,11
 40 115 40 115 40 218.5 c 128,-1,12
 40 322 40 322 110 391.5 c 128,-1,13
 180 461 180 461 278 461 c 0,14,15
 349 461 349 461 408 423 c 1,16,-1
 428 450 l 1,17,-1
 467 450 l 1,18,-1
 432 404 l 1,0,1
278 433 m 0,19,20
 195 433 195 433 133.5 370.5 c 128,-1,21
 72 308 72 308 72 220 c 128,-1,22
 72 132 72 132 144 68 c 1,23,-1
 390 399 l 1,24,25
 338 433 338 433 278 433 c 0,19,20
424 78.5 m 128,-1,27
 484 140 484 140 484 228.5 c 128,-1,28
 484 317 484 317 414 380 c 1,29,-1
 168 50 l 1,30,31
 218 17 218 17 278 17 c 0,32,26
 364 17 364 17 424 78.5 c 128,-1,27
EndSplineSet
EndChar

StartChar: ugrave
Encoding: 249 249 180
Width: 524
GlyphClass: 2
Flags: W
LayerCount: 2
Fore
SplineSet
432 450 m 1,0,-1
 464 450 l 1,1,-1
 464 0 l 1,2,-1
 432 0 l 1,3,-1
 432 91 l 1,4,5
 381 -11 381 -11 258 -11 c 0,6,7
 174 -11 174 -11 117 47 c 128,-1,8
 60 105 60 105 60 188 c 2,9,-1
 60 450 l 1,10,-1
 92 450 l 1,11,-1
 92 188 l 2,12,13
 92 119 92 119 140.5 68 c 128,-1,14
 189 17 189 17 258 17 c 128,-1,15
 327 17 327 17 379.5 68 c 128,-1,16
 432 119 432 119 432 188 c 2,17,-1
 432 450 l 1,0,-1
171 644 m 1,18,-1
 212 644 l 1,19,-1
 352 529 l 1,20,-1
 310 529 l 1,21,-1
 171 644 l 1,18,-1
EndSplineSet
EndChar

StartChar: uacute
Encoding: 250 250 181
Width: 524
GlyphClass: 2
Flags: W
LayerCount: 2
Fore
SplineSet
432 450 m 1,0,-1
 464 450 l 1,1,-1
 464 0 l 1,2,-1
 432 0 l 1,3,-1
 432 91 l 1,4,5
 381 -11 381 -11 258 -11 c 0,6,7
 174 -11 174 -11 117 47 c 128,-1,8
 60 105 60 105 60 188 c 2,9,-1
 60 450 l 1,10,-1
 92 450 l 1,11,-1
 92 188 l 2,12,13
 92 119 92 119 140.5 68 c 128,-1,14
 189 17 189 17 258 17 c 128,-1,15
 327 17 327 17 379.5 68 c 128,-1,16
 432 119 432 119 432 188 c 2,17,-1
 432 450 l 1,0,-1
311 644 m 1,18,-1
 352 644 l 1,19,-1
 213 529 l 1,20,-1
 171 529 l 1,21,-1
 311 644 l 1,18,-1
EndSplineSet
EndChar

StartChar: ucircumflex
Encoding: 251 251 182
Width: 524
GlyphClass: 2
Flags: W
LayerCount: 2
Fore
SplineSet
432 450 m 1,0,-1
 464 450 l 1,1,-1
 464 0 l 1,2,-1
 432 0 l 1,3,-1
 432 91 l 1,4,5
 381 -11 381 -11 258 -11 c 0,6,7
 174 -11 174 -11 117 47 c 128,-1,8
 60 105 60 105 60 188 c 2,9,-1
 60 450 l 1,10,-1
 92 450 l 1,11,-1
 92 188 l 2,12,13
 92 119 92 119 140.5 68 c 128,-1,14
 189 17 189 17 258 17 c 128,-1,15
 327 17 327 17 379.5 68 c 128,-1,16
 432 119 432 119 432 188 c 2,17,-1
 432 450 l 1,0,-1
278 644 m 1,18,-1
 410 529 l 1,19,-1
 369 529 l 1,20,-1
 262 620 l 1,21,-1
 156 529 l 1,22,-1
 114 529 l 1,23,-1
 248 644 l 1,24,-1
 278 644 l 1,18,-1
EndSplineSet
EndChar

StartChar: udieresis
Encoding: 252 252 183
Width: 524
GlyphClass: 2
Flags: W
LayerCount: 2
Fore
SplineSet
432 450 m 1,0,-1
 464 450 l 1,1,-1
 464 0 l 1,2,-1
 432 0 l 1,3,-1
 432 91 l 1,4,5
 381 -11 381 -11 258 -11 c 0,6,7
 174 -11 174 -11 117 47 c 128,-1,8
 60 105 60 105 60 188 c 2,9,-1
 60 450 l 1,10,-1
 92 450 l 1,11,-1
 92 188 l 2,12,13
 92 119 92 119 140.5 68 c 128,-1,14
 189 17 189 17 258 17 c 128,-1,15
 327 17 327 17 379.5 68 c 128,-1,16
 432 119 432 119 432 188 c 2,17,-1
 432 450 l 1,0,-1
181 585 m 128,-1,19
 181 612 181 612 210 612 c 128,-1,20
 239 612 239 612 239 585 c 128,-1,21
 239 558 239 558 210 558 c 128,-1,18
 181 558 181 558 181 585 c 128,-1,19
288 585 m 128,-1,23
 288 612 288 612 315.5 612 c 128,-1,24
 343 612 343 612 343 585 c 128,-1,25
 343 558 343 558 315.5 558 c 128,-1,22
 288 558 288 558 288 585 c 128,-1,23
EndSplineSet
EndChar

StartChar: yacute
Encoding: 253 253 184
Width: 524
GlyphClass: 2
Flags: W
LayerCount: 2
Fore
SplineSet
432 450 m 1,0,-1
 464 450 l 1,1,-1
 464 14 l 2,2,3
 464 -75 464 -75 402 -137 c 128,-1,4
 340 -199 340 -199 250 -199 c 0,5,6
 142 -199 142 -199 79 -116 c 1,7,-1
 81 -66 l 1,8,9
 109 -114 109 -114 154.5 -142.5 c 128,-1,10
 200 -171 200 -171 250 -171 c 0,11,12
 324 -171 324 -171 378 -117.5 c 128,-1,13
 432 -64 432 -64 432 11 c 2,14,-1
 432 87 l 1,15,16
 383 -11 383 -11 261 -11 c 0,17,18
 178 -11 178 -11 119 47.5 c 128,-1,19
 60 106 60 106 60 188 c 2,20,-1
 60 450 l 1,21,-1
 92 450 l 1,22,-1
 92 188 l 2,23,24
 92 119 92 119 142.5 68 c 128,-1,25
 193 17 193 17 262 17 c 128,-1,26
 331 17 331 17 381.5 68 c 128,-1,27
 432 119 432 119 432 188 c 2,28,-1
 432 450 l 1,0,-1
311 644 m 1,29,-1
 352 644 l 1,30,-1
 213 529 l 1,31,-1
 171 529 l 1,32,-1
 311 644 l 1,29,-1
EndSplineSet
EndChar

StartChar: thorn
Encoding: 254 254 185
Width: 589
GlyphClass: 2
Flags: W
LayerCount: 2
Fore
SplineSet
75 -200 m 1,0,-1
 75 629 l 1,1,-1
 107 629 l 1,2,-1
 107 345 l 1,3,4
 140 398 140 398 195.5 429 c 128,-1,5
 251 460 251 460 311 460 c 0,6,7
 410 460 410 460 479.5 390.5 c 128,-1,8
 549 321 549 321 549 224 c 128,-1,9
 549 127 549 127 479.5 57.5 c 128,-1,10
 410 -12 410 -12 311 -12 c 0,11,12
 250 -12 250 -12 195 19 c 128,-1,13
 140 50 140 50 107 103 c 1,14,-1
 107 -200 l 1,15,-1
 75 -200 l 1,0,-1
457 370.5 m 128,-1,17
 397 432 397 432 312.5 432 c 128,-1,18
 228 432 228 432 166.5 370.5 c 128,-1,19
 105 309 105 309 105 224 c 128,-1,20
 105 139 105 139 166.5 77.5 c 128,-1,21
 228 16 228 16 312.5 16 c 128,-1,22
 397 16 397 16 457 77.5 c 128,-1,23
 517 139 517 139 517 224 c 128,-1,16
 517 309 517 309 457 370.5 c 128,-1,17
EndSplineSet
EndChar

StartChar: ydieresis
Encoding: 255 255 186
Width: 524
GlyphClass: 2
Flags: W
LayerCount: 2
Fore
SplineSet
432 450 m 1,0,-1
 464 450 l 1,1,-1
 464 14 l 2,2,3
 464 -75 464 -75 402 -137 c 128,-1,4
 340 -199 340 -199 250 -199 c 0,5,6
 142 -199 142 -199 79 -116 c 1,7,-1
 81 -66 l 1,8,9
 109 -114 109 -114 154.5 -142.5 c 128,-1,10
 200 -171 200 -171 250 -171 c 0,11,12
 324 -171 324 -171 378 -117.5 c 128,-1,13
 432 -64 432 -64 432 11 c 2,14,-1
 432 87 l 1,15,16
 383 -11 383 -11 261 -11 c 0,17,18
 178 -11 178 -11 119 47.5 c 128,-1,19
 60 106 60 106 60 188 c 2,20,-1
 60 450 l 1,21,-1
 92 450 l 1,22,-1
 92 188 l 2,23,24
 92 119 92 119 142.5 68 c 128,-1,25
 193 17 193 17 262 17 c 128,-1,26
 331 17 331 17 381.5 68 c 128,-1,27
 432 119 432 119 432 188 c 2,28,-1
 432 450 l 1,0,-1
181 585 m 128,-1,30
 181 612 181 612 210 612 c 128,-1,31
 239 612 239 612 239 585 c 128,-1,32
 239 558 239 558 210 558 c 128,-1,29
 181 558 181 558 181 585 c 128,-1,30
288 585 m 128,-1,34
 288 612 288 612 315.5 612 c 128,-1,35
 343 612 343 612 343 585 c 128,-1,36
 343 558 343 558 315.5 558 c 128,-1,33
 288 558 288 558 288 585 c 128,-1,34
EndSplineSet
EndChar

StartChar: Amacron
Encoding: 256 256 187
Width: 789
GlyphClass: 2
Flags: W
LayerCount: 2
Fore
SplineSet
394 768 m 1,0,-1
 769 0 l 1,1,-1
 734 0 l 1,2,-1
 592 286 l 1,3,-1
 191 286 l 1,4,-1
 51 0 l 1,5,-1
 20 0 l 1,6,-1
 394 768 l 1,0,-1
391 699 m 1,7,-1
 204 315 l 1,8,-1
 580 315 l 1,9,-1
 391 699 l 1,7,-1
EndSplineSet
EndChar

StartChar: amacron
Encoding: 257 257 188
Width: 569
GlyphClass: 2
Flags: W
LayerCount: 2
Fore
SplineSet
509 450 m 1,0,-1
 509 0 l 1,1,-1
 477 0 l 1,2,-1
 477 112 l 1,3,4
 449 55 449 55 393 22 c 128,-1,5
 337 -11 337 -11 273 -11 c 0,6,7
 175 -11 175 -11 105 58.5 c 128,-1,8
 35 128 35 128 35 225 c 128,-1,9
 35 322 35 322 105 391.5 c 128,-1,10
 175 461 175 461 273 461 c 0,11,12
 337 461 337 461 395.5 427 c 128,-1,13
 454 393 454 393 477 337 c 1,14,-1
 477 450 l 1,15,-1
 509 450 l 1,0,-1
128.5 78.5 m 128,-1,17
 190 17 190 17 274.5 17 c 128,-1,18
 359 17 359 17 419 78.5 c 128,-1,19
 479 140 479 140 479 224.5 c 128,-1,20
 479 309 479 309 418.5 371 c 128,-1,21
 358 433 358 433 274 433 c 128,-1,22
 190 433 190 433 128.5 370.5 c 128,-1,23
 67 308 67 308 67 224 c 128,-1,16
 67 140 67 140 128.5 78.5 c 128,-1,17
383 566 m 1,24,-1
 186 566 l 1,25,-1
 186 594 l 1,26,-1
 383 594 l 1,27,-1
 383 566 l 1,24,-1
EndSplineSet
EndChar

StartChar: Abreve
Encoding: 258 258 189
Width: 789
GlyphClass: 2
Flags: W
LayerCount: 2
Fore
SplineSet
394 768 m 1,0,-1
 769 0 l 1,1,-1
 734 0 l 1,2,-1
 592 286 l 1,3,-1
 191 286 l 1,4,-1
 51 0 l 1,5,-1
 20 0 l 1,6,-1
 394 768 l 1,0,-1
391 699 m 1,7,-1
 204 315 l 1,8,-1
 580 315 l 1,9,-1
 391 699 l 1,7,-1
329 880.5 m 128,-1,11
 358 853 358 853 393.5 853 c 128,-1,12
 429 853 429 853 457.5 880.5 c 128,-1,13
 486 908 486 908 490 944 c 1,14,-1
 519 944 l 1,15,16
 517 897 517 897 481.5 862.5 c 128,-1,17
 446 828 446 828 398 828 c 2,18,-1
 390 828 l 2,19,20
 342 828 342 828 307 862 c 128,-1,21
 272 896 272 896 270 944 c 1,22,-1
 298 944 l 1,23,10
 300 908 300 908 329 880.5 c 128,-1,11
EndSplineSet
EndChar

StartChar: abreve
Encoding: 259 259 190
Width: 569
GlyphClass: 2
Flags: W
LayerCount: 2
Fore
SplineSet
509 450 m 1,0,-1
 509 0 l 1,1,-1
 477 0 l 1,2,-1
 477 112 l 1,3,4
 449 55 449 55 393 22 c 128,-1,5
 337 -11 337 -11 273 -11 c 0,6,7
 175 -11 175 -11 105 58.5 c 128,-1,8
 35 128 35 128 35 225 c 128,-1,9
 35 322 35 322 105 391.5 c 128,-1,10
 175 461 175 461 273 461 c 0,11,12
 337 461 337 461 395.5 427 c 128,-1,13
 454 393 454 393 477 337 c 1,14,-1
 477 450 l 1,15,-1
 509 450 l 1,0,-1
128.5 78.5 m 128,-1,17
 190 17 190 17 274.5 17 c 128,-1,18
 359 17 359 17 419 78.5 c 128,-1,19
 479 140 479 140 479 224.5 c 128,-1,20
 479 309 479 309 418.5 371 c 128,-1,21
 358 433 358 433 274 433 c 128,-1,22
 190 433 190 433 128.5 370.5 c 128,-1,23
 67 308 67 308 67 224 c 128,-1,16
 67 140 67 140 128.5 78.5 c 128,-1,17
219 580.5 m 128,-1,25
 248 553 248 553 283.5 553 c 128,-1,26
 319 553 319 553 347.5 580.5 c 128,-1,27
 376 608 376 608 380 644 c 1,28,-1
 409 644 l 1,29,30
 407 597 407 597 371.5 562.5 c 128,-1,31
 336 528 336 528 288 528 c 2,32,-1
 280 528 l 2,33,34
 232 528 232 528 197 562 c 128,-1,35
 162 596 162 596 160 644 c 1,36,-1
 188 644 l 1,37,24
 190 608 190 608 219 580.5 c 128,-1,25
EndSplineSet
EndChar

StartChar: Aogonek
Encoding: 260 260 191
Width: 789
GlyphClass: 2
Flags: W
LayerCount: 2
Fore
SplineSet
734 -175 m 2,0,-1
 769 -175 l 1,1,-1
 769 -200 l 1,2,-1
 729 -200 l 2,3,4
 696 -200 696 -200 675 -180 c 128,-1,5
 654 -160 654 -160 654 -130 c 2,6,-1
 654 -123 l 1,7,-1
 734 0 l 1,8,-1
 592 286 l 1,9,-1
 191 286 l 1,10,-1
 51 0 l 1,11,-1
 20 0 l 1,12,-1
 394 768 l 1,13,-1
 769 0 l 1,14,-1
 689 -125 l 1,15,16
 689 -147 689 -147 700.5 -161 c 128,-1,17
 712 -175 712 -175 734 -175 c 2,0,-1
391 699 m 1,18,-1
 204 315 l 1,19,-1
 580 315 l 1,20,-1
 391 699 l 1,18,-1
EndSplineSet
EndChar

StartChar: aogonek
Encoding: 261 261 192
Width: 569
GlyphClass: 2
Flags: W
LayerCount: 2
Fore
SplineSet
509 450 m 1,0,-1
 509 0 l 1,1,-1
 508 0 l 1,2,-1
 421 -125 l 1,3,4
 421 -146 421 -146 434.5 -160.5 c 128,-1,5
 448 -175 448 -175 471 -175 c 2,6,-1
 509 -175 l 1,7,-1
 509 -200 l 1,8,-1
 469 -200 l 2,9,10
 436 -200 436 -200 415 -180 c 128,-1,11
 394 -160 394 -160 394 -130 c 2,12,-1
 394 -123 l 1,13,-1
 480 0 l 1,14,-1
 477 0 l 1,15,-1
 477 112 l 1,16,17
 449 55 449 55 393 22 c 128,-1,18
 337 -11 337 -11 273 -11 c 0,19,20
 175 -11 175 -11 105 58.5 c 128,-1,21
 35 128 35 128 35 225 c 128,-1,22
 35 322 35 322 105 391.5 c 128,-1,23
 175 461 175 461 273 461 c 0,24,25
 337 461 337 461 395.5 427 c 128,-1,26
 454 393 454 393 477 337 c 1,27,-1
 477 450 l 1,28,-1
 509 450 l 1,0,-1
128.5 78.5 m 128,-1,30
 190 17 190 17 274.5 17 c 128,-1,31
 359 17 359 17 419 78.5 c 128,-1,32
 479 140 479 140 479 224.5 c 128,-1,33
 479 309 479 309 418.5 371 c 128,-1,34
 358 433 358 433 274 433 c 128,-1,35
 190 433 190 433 128.5 370.5 c 128,-1,36
 67 308 67 308 67 224 c 128,-1,29
 67 140 67 140 128.5 78.5 c 128,-1,30
EndSplineSet
EndChar

StartChar: Cacute
Encoding: 262 262 193
Width: 698
GlyphClass: 2
Flags: W
LayerCount: 2
Fore
SplineSet
440 -11 m 2,0,-1
 429 -11 l 2,1,2
 326 -11 326 -11 237 43 c 128,-1,3
 148 97 148 97 96.5 186.5 c 128,-1,4
 45 276 45 276 45 377 c 0,5,6
 45 536 45 536 160 650.5 c 128,-1,7
 275 765 275 765 435 765 c 0,8,9
 542 765 542 765 638 709 c 1,10,-1
 638 672 l 1,11,12
 544 736 544 736 435 736 c 0,13,14
 288 736 288 736 183 630.5 c 128,-1,15
 78 525 78 525 78 377.5 c 128,-1,16
 78 230 78 230 183 124 c 128,-1,17
 288 18 288 18 435 18 c 0,18,19
 544 18 544 18 638 82 c 1,20,-1
 638 45 l 1,21,22
 547 -11 547 -11 440 -11 c 2,0,-1
483 944 m 1,23,-1
 524 944 l 1,24,-1
 385 829 l 1,25,-1
 343 829 l 1,26,-1
 483 944 l 1,23,-1
EndSplineSet
EndChar

StartChar: cacute
Encoding: 263 263 194
Width: 476
GlyphClass: 2
Flags: W
LayerCount: 2
Fore
SplineSet
278 -13 m 2,0,-1
 269 -13 l 2,1,2
 173 -13 173 -13 104 58 c 128,-1,3
 35 129 35 129 35 224.5 c 128,-1,4
 35 320 35 320 105 389.5 c 128,-1,5
 175 459 175 459 277 459 c 128,-1,6
 379 459 379 459 451 382 c 1,7,-1
 451 331 l 1,8,9
 420 377 420 377 372.5 404 c 128,-1,10
 325 431 325 431 273 431 c 0,11,12
 190 431 190 431 128.5 369.5 c 128,-1,13
 67 308 67 308 67 223 c 128,-1,14
 67 138 67 138 128.5 76.5 c 128,-1,15
 190 15 190 15 273 15 c 0,16,17
 325 15 325 15 372.5 42 c 128,-1,18
 420 69 420 69 451 116 c 1,19,-1
 451 64 l 1,20,21
 381 -13 381 -13 278 -13 c 2,0,-1
287 644 m 1,22,-1
 328 644 l 1,23,-1
 189 529 l 1,24,-1
 147 529 l 1,25,-1
 287 644 l 1,22,-1
EndSplineSet
EndChar

StartChar: Ccircumflex
Encoding: 264 264 195
Width: 698
GlyphClass: 2
Flags: W
LayerCount: 2
Fore
SplineSet
440 -11 m 2,0,-1
 429 -11 l 2,1,2
 326 -11 326 -11 237 43 c 128,-1,3
 148 97 148 97 96.5 186.5 c 128,-1,4
 45 276 45 276 45 377 c 0,5,6
 45 536 45 536 160 650.5 c 128,-1,7
 275 765 275 765 435 765 c 0,8,9
 542 765 542 765 638 709 c 1,10,-1
 638 672 l 1,11,12
 544 736 544 736 435 736 c 0,13,14
 288 736 288 736 183 630.5 c 128,-1,15
 78 525 78 525 78 377.5 c 128,-1,16
 78 230 78 230 183 124 c 128,-1,17
 288 18 288 18 435 18 c 0,18,19
 544 18 544 18 638 82 c 1,20,-1
 638 45 l 1,21,22
 547 -11 547 -11 440 -11 c 2,0,-1
452 944 m 1,23,-1
 584 829 l 1,24,-1
 543 829 l 1,25,-1
 436 920 l 1,26,-1
 330 829 l 1,27,-1
 288 829 l 1,28,-1
 422 944 l 1,29,-1
 452 944 l 1,23,-1
EndSplineSet
EndChar

StartChar: ccircumflex
Encoding: 265 265 196
Width: 476
GlyphClass: 2
Flags: W
LayerCount: 2
Fore
SplineSet
278 -13 m 2,0,-1
 269 -13 l 2,1,2
 173 -13 173 -13 104 58 c 128,-1,3
 35 129 35 129 35 224.5 c 128,-1,4
 35 320 35 320 105 389.5 c 128,-1,5
 175 459 175 459 277 459 c 128,-1,6
 379 459 379 459 451 382 c 1,7,-1
 451 331 l 1,8,9
 420 377 420 377 372.5 404 c 128,-1,10
 325 431 325 431 273 431 c 0,11,12
 190 431 190 431 128.5 369.5 c 128,-1,13
 67 308 67 308 67 223 c 128,-1,14
 67 138 67 138 128.5 76.5 c 128,-1,15
 190 15 190 15 273 15 c 0,16,17
 325 15 325 15 372.5 42 c 128,-1,18
 420 69 420 69 451 116 c 1,19,-1
 451 64 l 1,20,21
 381 -13 381 -13 278 -13 c 2,0,-1
293 644 m 1,22,-1
 425 529 l 1,23,-1
 384 529 l 1,24,-1
 277 620 l 1,25,-1
 171 529 l 1,26,-1
 129 529 l 1,27,-1
 263 644 l 1,28,-1
 293 644 l 1,22,-1
EndSplineSet
EndChar

StartChar: Cdotaccent
Encoding: 266 266 197
Width: 698
GlyphClass: 2
Flags: W
LayerCount: 2
Fore
SplineSet
440 -11 m 2,0,-1
 429 -11 l 2,1,2
 326 -11 326 -11 237 43 c 128,-1,3
 148 97 148 97 96.5 186.5 c 128,-1,4
 45 276 45 276 45 377 c 0,5,6
 45 536 45 536 160 650.5 c 128,-1,7
 275 765 275 765 435 765 c 0,8,9
 542 765 542 765 638 709 c 1,10,-1
 638 672 l 1,11,12
 544 736 544 736 435 736 c 0,13,14
 288 736 288 736 183 630.5 c 128,-1,15
 78 525 78 525 78 377.5 c 128,-1,16
 78 230 78 230 183 124 c 128,-1,17
 288 18 288 18 435 18 c 0,18,19
 544 18 544 18 638 82 c 1,20,-1
 638 45 l 1,21,22
 547 -11 547 -11 440 -11 c 2,0,-1
410 886 m 128,-1,24
 410 913 410 913 439 913 c 128,-1,25
 468 913 468 913 468 886 c 128,-1,26
 468 859 468 859 439 859 c 128,-1,23
 410 859 410 859 410 886 c 128,-1,24
EndSplineSet
EndChar

StartChar: cdotaccent
Encoding: 267 267 198
Width: 476
GlyphClass: 2
Flags: W
LayerCount: 2
Fore
SplineSet
278 -13 m 2,0,-1
 269 -13 l 2,1,2
 173 -13 173 -13 104 58 c 128,-1,3
 35 129 35 129 35 224.5 c 128,-1,4
 35 320 35 320 105 389.5 c 128,-1,5
 175 459 175 459 277 459 c 128,-1,6
 379 459 379 459 451 382 c 1,7,-1
 451 331 l 1,8,9
 420 377 420 377 372.5 404 c 128,-1,10
 325 431 325 431 273 431 c 0,11,12
 190 431 190 431 128.5 369.5 c 128,-1,13
 67 308 67 308 67 223 c 128,-1,14
 67 138 67 138 128.5 76.5 c 128,-1,15
 190 15 190 15 273 15 c 0,16,17
 325 15 325 15 372.5 42 c 128,-1,18
 420 69 420 69 451 116 c 1,19,-1
 451 64 l 1,20,21
 381 -13 381 -13 278 -13 c 2,0,-1
241 586 m 128,-1,23
 241 613 241 613 270 613 c 128,-1,24
 299 613 299 613 299 586 c 128,-1,25
 299 559 299 559 270 559 c 128,-1,22
 241 559 241 559 241 586 c 128,-1,23
EndSplineSet
EndChar

StartChar: Ccaron
Encoding: 268 268 199
Width: 698
GlyphClass: 2
Flags: W
LayerCount: 2
Fore
SplineSet
440 -11 m 2,0,-1
 429 -11 l 2,1,2
 326 -11 326 -11 237 43 c 128,-1,3
 148 97 148 97 96.5 186.5 c 128,-1,4
 45 276 45 276 45 377 c 0,5,6
 45 536 45 536 160 650.5 c 128,-1,7
 275 765 275 765 435 765 c 0,8,9
 542 765 542 765 638 709 c 1,10,-1
 638 672 l 1,11,12
 544 736 544 736 435 736 c 0,13,14
 288 736 288 736 183 630.5 c 128,-1,15
 78 525 78 525 78 377.5 c 128,-1,16
 78 230 78 230 183 124 c 128,-1,17
 288 18 288 18 435 18 c 0,18,19
 544 18 544 18 638 82 c 1,20,-1
 638 45 l 1,21,22
 547 -11 547 -11 440 -11 c 2,0,-1
581 944 m 1,23,-1
 449 829 l 1,24,-1
 419 829 l 1,25,-1
 285 944 l 1,26,-1
 327 944 l 1,27,-1
 433 853 l 1,28,-1
 540 944 l 1,29,-1
 581 944 l 1,23,-1
EndSplineSet
EndChar

StartChar: ccaron
Encoding: 269 269 200
Width: 476
GlyphClass: 2
Flags: W
LayerCount: 2
Fore
SplineSet
278 -13 m 2,0,-1
 269 -13 l 2,1,2
 173 -13 173 -13 104 58 c 128,-1,3
 35 129 35 129 35 224.5 c 128,-1,4
 35 320 35 320 105 389.5 c 128,-1,5
 175 459 175 459 277 459 c 128,-1,6
 379 459 379 459 451 382 c 1,7,-1
 451 331 l 1,8,9
 420 377 420 377 372.5 404 c 128,-1,10
 325 431 325 431 273 431 c 0,11,12
 190 431 190 431 128.5 369.5 c 128,-1,13
 67 308 67 308 67 223 c 128,-1,14
 67 138 67 138 128.5 76.5 c 128,-1,15
 190 15 190 15 273 15 c 0,16,17
 325 15 325 15 372.5 42 c 128,-1,18
 420 69 420 69 451 116 c 1,19,-1
 451 64 l 1,20,21
 381 -13 381 -13 278 -13 c 2,0,-1
425 644 m 1,22,-1
 293 529 l 1,23,-1
 263 529 l 1,24,-1
 129 644 l 1,25,-1
 171 644 l 1,26,-1
 277 553 l 1,27,-1
 384 644 l 1,28,-1
 425 644 l 1,22,-1
EndSplineSet
EndChar

StartChar: Dcaron
Encoding: 270 270 201
Width: 526
GlyphClass: 2
Flags: W
LayerCount: 2
Fore
SplineSet
75 750 m 1,0,-1
 107 750 l 2,1,2
 275 750 275 750 378 639.5 c 128,-1,3
 481 529 481 529 481 374.5 c 128,-1,4
 481 220 481 220 378.5 110 c 128,-1,5
 276 0 276 0 107 0 c 2,6,-1
 75 0 l 1,7,-1
 75 750 l 1,0,-1
115 720 m 2,8,-1
 107 720 l 1,9,-1
 107 31 l 1,10,-1
 115 31 l 2,11,12
 261 31 261 31 354.5 132 c 128,-1,13
 448 233 448 233 448 374.5 c 128,-1,14
 448 516 448 516 354.5 618 c 128,-1,15
 261 720 261 720 115 720 c 2,8,-1
353 944 m 1,16,-1
 221 829 l 1,17,-1
 191 829 l 1,18,-1
 57 944 l 1,19,-1
 99 944 l 1,20,-1
 205 853 l 1,21,-1
 312 944 l 1,22,-1
 353 944 l 1,16,-1
EndSplineSet
EndChar

StartChar: dcaron
Encoding: 271 271 202
Width: 645
GlyphClass: 2
Flags: W
LayerCount: 2
Fore
SplineSet
509 750 m 1,0,-1
 509 0 l 1,1,-1
 477 0 l 1,2,-1
 477 109 l 1,3,4
 447 54 447 54 390 21.5 c 128,-1,5
 333 -11 333 -11 273 -11 c 0,6,7
 174 -11 174 -11 104.5 58.5 c 128,-1,8
 35 128 35 128 35 225 c 128,-1,9
 35 322 35 322 104.5 391.5 c 128,-1,10
 174 461 174 461 273 461 c 0,11,12
 335 461 335 461 392.5 428 c 128,-1,13
 450 395 450 395 477 340 c 1,14,-1
 477 750 l 1,15,-1
 509 750 l 1,0,-1
127 78.5 m 128,-1,17
 187 17 187 17 271.5 17 c 128,-1,18
 356 17 356 17 417.5 78.5 c 128,-1,19
 479 140 479 140 479 224 c 128,-1,20
 479 308 479 308 417.5 370.5 c 128,-1,21
 356 433 356 433 272 433 c 128,-1,22
 188 433 188 433 127.5 371 c 128,-1,23
 67 309 67 309 67 224.5 c 128,-1,16
 67 140 67 140 127 78.5 c 128,-1,17
590 633 m 1,24,-1
 590 689 l 1,25,26
 559 689 559 689 559 720 c 128,-1,27
 559 751 559 751 593.5 751 c 128,-1,28
 628 751 628 751 628 720 c 0,29,30
 628 713 628 713 625 704 c 2,31,-1
 594 633 l 1,32,-1
 590 633 l 1,24,-1
EndSplineSet
EndChar

StartChar: Dcroat
Encoding: 272 272 203
Width: 526
GlyphClass: 2
Flags: W
LayerCount: 2
Fore
SplineSet
75 750 m 1,0,-1
 107 750 l 2,1,2
 275 750 275 750 378 639.5 c 128,-1,3
 481 529 481 529 481 374.5 c 128,-1,4
 481 220 481 220 378.5 110 c 128,-1,5
 276 0 276 0 107 0 c 2,6,-1
 75 0 l 1,7,-1
 75 361 l 1,8,-1
 15 361 l 1,9,-1
 15 390 l 1,10,-1
 75 390 l 1,11,-1
 75 750 l 1,0,-1
115 720 m 2,12,-1
 107 720 l 1,13,-1
 107 390 l 1,14,-1
 231 390 l 1,15,-1
 231 361 l 1,16,-1
 107 361 l 1,17,-1
 107 31 l 1,18,-1
 115 31 l 2,19,20
 261 31 261 31 354.5 132 c 128,-1,21
 448 233 448 233 448 374.5 c 128,-1,22
 448 516 448 516 354.5 618 c 128,-1,23
 261 720 261 720 115 720 c 2,12,-1
EndSplineSet
EndChar

StartChar: dcroat
Encoding: 273 273 204
Width: 595
GlyphClass: 2
Flags: W
LayerCount: 2
Fore
SplineSet
509 750 m 1,0,-1
 509 595 l 1,1,-1
 576 595 l 1,2,-1
 576 566 l 1,3,-1
 509 566 l 1,4,-1
 509 0 l 1,5,-1
 477 0 l 1,6,-1
 477 109 l 1,7,8
 447 54 447 54 390 21.5 c 128,-1,9
 333 -11 333 -11 273 -11 c 0,10,11
 174 -11 174 -11 104.5 58.5 c 128,-1,12
 35 128 35 128 35 225 c 128,-1,13
 35 322 35 322 104.5 391.5 c 128,-1,14
 174 461 174 461 273 461 c 0,15,16
 335 461 335 461 392.5 428 c 128,-1,17
 450 395 450 395 477 340 c 1,18,-1
 477 566 l 1,19,-1
 360 566 l 1,20,-1
 360 595 l 1,21,-1
 477 595 l 1,22,-1
 477 750 l 1,23,-1
 509 750 l 1,0,-1
127 78.5 m 128,-1,25
 187 17 187 17 271.5 17 c 128,-1,26
 356 17 356 17 417.5 78.5 c 128,-1,27
 479 140 479 140 479 224 c 128,-1,28
 479 308 479 308 417.5 370.5 c 128,-1,29
 356 433 356 433 272 433 c 128,-1,30
 188 433 188 433 127.5 371 c 128,-1,31
 67 309 67 309 67 224.5 c 128,-1,24
 67 140 67 140 127 78.5 c 128,-1,25
EndSplineSet
EndChar

StartChar: Emacron
Encoding: 274 274 205
Width: 369
GlyphClass: 2
Flags: W
LayerCount: 2
Fore
SplineSet
75 750 m 1,0,-1
 344 750 l 1,1,-1
 344 721 l 1,2,-1
 108 721 l 1,3,-1
 108 313 l 1,4,-1
 305 313 l 1,5,-1
 305 284 l 1,6,-1
 108 284 l 1,7,-1
 108 29 l 1,8,-1
 344 29 l 1,9,-1
 344 0 l 1,10,-1
 75 0 l 1,11,-1
 75 750 l 1,0,-1
EndSplineSet
EndChar

StartChar: emacron
Encoding: 275 275 206
Width: 495
GlyphClass: 2
Flags: W
LayerCount: 2
Fore
SplineSet
285 -12 m 2,0,-1
 276 -12 l 2,1,2
 181 -12 181 -12 110.5 59.5 c 128,-1,3
 40 131 40 131 40 226 c 128,-1,4
 40 321 40 321 110 390.5 c 128,-1,5
 180 460 180 460 283 460 c 128,-1,6
 386 460 386 460 460 378 c 1,7,-1
 146 68 l 1,8,9
 211 16 211 16 271 16 c 128,-1,10
 331 16 331 16 378.5 43.5 c 128,-1,11
 426 71 426 71 457 117 c 1,12,-1
 457 66 l 1,13,14
 386 -12 386 -12 285 -12 c 2,0,-1
133.5 370.5 m 128,-1,16
 72 309 72 309 72 229 c 128,-1,17
 72 149 72 149 125 89 c 1,18,-1
 416 378 l 1,19,20
 354 432 354 432 274.5 432 c 128,-1,15
 195 432 195 432 133.5 370.5 c 128,-1,16
346 566 m 1,21,-1
 149 566 l 1,22,-1
 149 594 l 1,23,-1
 346 594 l 1,24,-1
 346 566 l 1,21,-1
EndSplineSet
EndChar

StartChar: Ebreve
Encoding: 276 276 207
Width: 369
GlyphClass: 2
Flags: W
LayerCount: 2
Fore
SplineSet
75 750 m 1,0,-1
 344 750 l 1,1,-1
 344 721 l 1,2,-1
 108 721 l 1,3,-1
 108 313 l 1,4,-1
 305 313 l 1,5,-1
 305 284 l 1,6,-1
 108 284 l 1,7,-1
 108 29 l 1,8,-1
 344 29 l 1,9,-1
 344 0 l 1,10,-1
 75 0 l 1,11,-1
 75 750 l 1,0,-1
145 880.5 m 128,-1,13
 174 853 174 853 209.5 853 c 128,-1,14
 245 853 245 853 273.5 880.5 c 128,-1,15
 302 908 302 908 306 944 c 1,16,-1
 335 944 l 1,17,18
 333 897 333 897 297.5 862.5 c 128,-1,19
 262 828 262 828 214 828 c 2,20,-1
 206 828 l 2,21,22
 158 828 158 828 123 862 c 128,-1,23
 88 896 88 896 86 944 c 1,24,-1
 114 944 l 1,25,12
 116 908 116 908 145 880.5 c 128,-1,13
EndSplineSet
EndChar

StartChar: ebreve
Encoding: 277 277 208
Width: 495
GlyphClass: 2
Flags: W
LayerCount: 2
Fore
SplineSet
285 -12 m 2,0,-1
 276 -12 l 2,1,2
 181 -12 181 -12 110.5 59.5 c 128,-1,3
 40 131 40 131 40 226 c 128,-1,4
 40 321 40 321 110 390.5 c 128,-1,5
 180 460 180 460 283 460 c 128,-1,6
 386 460 386 460 460 378 c 1,7,-1
 146 68 l 1,8,9
 211 16 211 16 271 16 c 128,-1,10
 331 16 331 16 378.5 43.5 c 128,-1,11
 426 71 426 71 457 117 c 1,12,-1
 457 66 l 1,13,14
 386 -12 386 -12 285 -12 c 2,0,-1
133.5 370.5 m 128,-1,16
 72 309 72 309 72 229 c 128,-1,17
 72 149 72 149 125 89 c 1,18,-1
 416 378 l 1,19,20
 354 432 354 432 274.5 432 c 128,-1,15
 195 432 195 432 133.5 370.5 c 128,-1,16
182 580.5 m 128,-1,22
 211 553 211 553 246.5 553 c 128,-1,23
 282 553 282 553 310.5 580.5 c 128,-1,24
 339 608 339 608 343 644 c 1,25,-1
 372 644 l 1,26,27
 370 597 370 597 334.5 562.5 c 128,-1,28
 299 528 299 528 251 528 c 2,29,-1
 243 528 l 2,30,31
 195 528 195 528 160 562 c 128,-1,32
 125 596 125 596 123 644 c 1,33,-1
 151 644 l 1,34,21
 153 608 153 608 182 580.5 c 128,-1,22
EndSplineSet
EndChar

StartChar: Edotaccent
Encoding: 278 278 209
Width: 369
GlyphClass: 2
Flags: W
LayerCount: 2
Fore
SplineSet
75 750 m 1,0,-1
 344 750 l 1,1,-1
 344 721 l 1,2,-1
 108 721 l 1,3,-1
 108 313 l 1,4,-1
 305 313 l 1,5,-1
 305 284 l 1,6,-1
 108 284 l 1,7,-1
 108 29 l 1,8,-1
 344 29 l 1,9,-1
 344 0 l 1,10,-1
 75 0 l 1,11,-1
 75 750 l 1,0,-1
184 886 m 128,-1,13
 184 913 184 913 213 913 c 128,-1,14
 242 913 242 913 242 886 c 128,-1,15
 242 859 242 859 213 859 c 128,-1,12
 184 859 184 859 184 886 c 128,-1,13
EndSplineSet
EndChar

StartChar: edotaccent
Encoding: 279 279 210
Width: 495
GlyphClass: 2
Flags: W
LayerCount: 2
Fore
SplineSet
285 -12 m 2,0,-1
 276 -12 l 2,1,2
 181 -12 181 -12 110.5 59.5 c 128,-1,3
 40 131 40 131 40 226 c 128,-1,4
 40 321 40 321 110 390.5 c 128,-1,5
 180 460 180 460 283 460 c 128,-1,6
 386 460 386 460 460 378 c 1,7,-1
 146 68 l 1,8,9
 211 16 211 16 271 16 c 128,-1,10
 331 16 331 16 378.5 43.5 c 128,-1,11
 426 71 426 71 457 117 c 1,12,-1
 457 66 l 1,13,14
 386 -12 386 -12 285 -12 c 2,0,-1
133.5 370.5 m 128,-1,16
 72 309 72 309 72 229 c 128,-1,17
 72 149 72 149 125 89 c 1,18,-1
 416 378 l 1,19,20
 354 432 354 432 274.5 432 c 128,-1,15
 195 432 195 432 133.5 370.5 c 128,-1,16
218 586 m 128,-1,22
 218 613 218 613 247 613 c 128,-1,23
 276 613 276 613 276 586 c 128,-1,24
 276 559 276 559 247 559 c 128,-1,21
 218 559 218 559 218 586 c 128,-1,22
EndSplineSet
EndChar

StartChar: Eogonek
Encoding: 280 280 211
Width: 369
GlyphClass: 2
Flags: W
LayerCount: 2
Fore
SplineSet
75 750 m 1,0,-1
 344 750 l 1,1,-1
 344 721 l 1,2,-1
 108 721 l 1,3,-1
 108 313 l 1,4,-1
 305 313 l 1,5,-1
 305 284 l 1,6,-1
 108 284 l 1,7,-1
 108 29 l 1,8,-1
 343 29 l 1,9,-1
 343 0 l 1,10,-1
 256 -125 l 1,11,12
 256 -146 256 -146 269.5 -160.5 c 128,-1,13
 283 -175 283 -175 306 -175 c 2,14,-1
 344 -175 l 1,15,-1
 344 -200 l 1,16,-1
 304 -200 l 2,17,18
 271 -200 271 -200 250 -180 c 128,-1,19
 229 -160 229 -160 229 -130 c 2,20,-1
 229 -123 l 1,21,-1
 315 0 l 1,22,-1
 75 0 l 1,23,-1
 75 750 l 1,0,-1
EndSplineSet
EndChar

StartChar: eogonek
Encoding: 281 281 212
Width: 495
GlyphClass: 2
Flags: W
LayerCount: 2
Fore
SplineSet
290 -12 m 1,0,-1
 276 -12 l 2,1,2
 181 -12 181 -12 110.5 59.5 c 128,-1,3
 40 131 40 131 40 226 c 128,-1,4
 40 321 40 321 110 390.5 c 128,-1,5
 180 460 180 460 283 460 c 128,-1,6
 386 460 386 460 460 378 c 1,7,-1
 146 68 l 1,8,9
 211 16 211 16 271 16 c 128,-1,10
 331 16 331 16 378.5 43.5 c 128,-1,11
 426 71 426 71 457 117 c 1,12,-1
 457 66 l 1,13,14
 400 2 400 2 320 -9 c 1,15,-1
 240 -125 l 1,16,17
 240 -146 240 -146 253.5 -160.5 c 128,-1,18
 267 -175 267 -175 290 -175 c 2,19,-1
 328 -175 l 1,20,-1
 328 -200 l 1,21,-1
 288 -200 l 2,22,23
 255 -200 255 -200 234 -180 c 128,-1,24
 213 -160 213 -160 213 -130 c 2,25,-1
 213 -123 l 1,26,-1
 290 -12 l 1,0,-1
133.5 370.5 m 128,-1,28
 72 309 72 309 72 229 c 128,-1,29
 72 149 72 149 125 89 c 1,30,-1
 416 378 l 1,31,32
 354 432 354 432 274.5 432 c 128,-1,27
 195 432 195 432 133.5 370.5 c 128,-1,28
EndSplineSet
EndChar

StartChar: Ecaron
Encoding: 282 282 213
Width: 369
GlyphClass: 2
Flags: W
LayerCount: 2
Fore
SplineSet
75 750 m 1,0,-1
 344 750 l 1,1,-1
 344 721 l 1,2,-1
 108 721 l 1,3,-1
 108 313 l 1,4,-1
 305 313 l 1,5,-1
 305 284 l 1,6,-1
 108 284 l 1,7,-1
 108 29 l 1,8,-1
 344 29 l 1,9,-1
 344 0 l 1,10,-1
 75 0 l 1,11,-1
 75 750 l 1,0,-1
359 944 m 1,12,-1
 227 829 l 1,13,-1
 197 829 l 1,14,-1
 63 944 l 1,15,-1
 105 944 l 1,16,-1
 211 853 l 1,17,-1
 318 944 l 1,18,-1
 359 944 l 1,12,-1
EndSplineSet
EndChar

StartChar: ecaron
Encoding: 283 283 214
Width: 495
GlyphClass: 2
Flags: W
LayerCount: 2
Fore
SplineSet
285 -12 m 2,0,-1
 276 -12 l 2,1,2
 181 -12 181 -12 110.5 59.5 c 128,-1,3
 40 131 40 131 40 226 c 128,-1,4
 40 321 40 321 110 390.5 c 128,-1,5
 180 460 180 460 283 460 c 128,-1,6
 386 460 386 460 460 378 c 1,7,-1
 146 68 l 1,8,9
 211 16 211 16 271 16 c 128,-1,10
 331 16 331 16 378.5 43.5 c 128,-1,11
 426 71 426 71 457 117 c 1,12,-1
 457 66 l 1,13,14
 386 -12 386 -12 285 -12 c 2,0,-1
133.5 370.5 m 128,-1,16
 72 309 72 309 72 229 c 128,-1,17
 72 149 72 149 125 89 c 1,18,-1
 416 378 l 1,19,20
 354 432 354 432 274.5 432 c 128,-1,15
 195 432 195 432 133.5 370.5 c 128,-1,16
395 644 m 1,21,-1
 263 529 l 1,22,-1
 233 529 l 1,23,-1
 99 644 l 1,24,-1
 141 644 l 1,25,-1
 247 553 l 1,26,-1
 354 644 l 1,27,-1
 395 644 l 1,21,-1
EndSplineSet
EndChar

StartChar: Gcircumflex
Encoding: 284 284 215
Width: 693
GlyphClass: 2
Flags: W
LayerCount: 2
Fore
SplineSet
357 286 m 1,0,-1
 357 315 l 1,1,-1
 638 315 l 1,2,-1
 638 44 l 1,3,4
 550 -11 550 -11 440 -11 c 2,5,-1
 429 -11 l 2,6,7
 326 -11 326 -11 237 43 c 128,-1,8
 148 97 148 97 96.5 186.5 c 128,-1,9
 45 276 45 276 45 377 c 0,10,11
 45 536 45 536 160 650.5 c 128,-1,12
 275 765 275 765 435 765 c 0,13,14
 542 765 542 765 638 709 c 1,15,-1
 638 672 l 1,16,17
 544 736 544 736 435 736 c 0,18,19
 288 736 288 736 183 630.5 c 128,-1,20
 78 525 78 525 78 377.5 c 128,-1,21
 78 230 78 230 183 124 c 128,-1,22
 288 18 288 18 435 18 c 0,23,24
 517 18 517 18 605 60 c 1,25,-1
 605 286 l 1,26,-1
 357 286 l 1,0,-1
450 944 m 1,27,-1
 582 829 l 1,28,-1
 541 829 l 1,29,-1
 434 920 l 1,30,-1
 328 829 l 1,31,-1
 286 829 l 1,32,-1
 420 944 l 1,33,-1
 450 944 l 1,27,-1
EndSplineSet
EndChar

StartChar: gcircumflex
Encoding: 285 285 216
Width: 570
GlyphClass: 2
Flags: W
LayerCount: 2
Fore
SplineSet
478 450 m 1,0,-1
 510 450 l 1,1,-1
 510 42 l 2,2,3
 510 -74 510 -74 446 -141 c 128,-1,4
 382 -208 382 -208 278 -208 c 0,5,6
 221 -208 221 -208 167 -182 c 128,-1,7
 113 -156 113 -156 83 -114 c 1,8,-1
 83 -68 l 1,9,10
 109 -116 109 -116 164.5 -148 c 128,-1,11
 220 -180 220 -180 278 -180 c 0,12,13
 366 -180 366 -180 422 -120.5 c 128,-1,14
 478 -61 478 -61 478 42 c 2,15,-1
 478 109 l 1,16,17
 451 54 451 54 393 21 c 128,-1,18
 335 -12 335 -12 273 -12 c 0,19,20
 175 -12 175 -12 105 57.5 c 128,-1,21
 35 127 35 127 35 224 c 128,-1,22
 35 321 35 321 105 390.5 c 128,-1,23
 175 460 175 460 273 460 c 0,24,25
 338 460 338 460 394.5 427.5 c 128,-1,26
 451 395 451 395 478 338 c 1,27,-1
 478 450 l 1,0,-1
128.5 77.5 m 128,-1,29
 190 16 190 16 274.5 16 c 128,-1,30
 359 16 359 16 419 77.5 c 128,-1,31
 479 139 479 139 479 224 c 128,-1,32
 479 309 479 309 419 370.5 c 128,-1,33
 359 432 359 432 274.5 432 c 128,-1,34
 190 432 190 432 128.5 370.5 c 128,-1,35
 67 309 67 309 67 224 c 128,-1,28
 67 139 67 139 128.5 77.5 c 128,-1,29
301 644 m 1,36,-1
 433 529 l 1,37,-1
 392 529 l 1,38,-1
 285 620 l 1,39,-1
 179 529 l 1,40,-1
 137 529 l 1,41,-1
 271 644 l 1,42,-1
 301 644 l 1,36,-1
EndSplineSet
EndChar

StartChar: Gbreve
Encoding: 286 286 217
Width: 693
GlyphClass: 2
Flags: W
LayerCount: 2
Fore
SplineSet
357 286 m 1,0,-1
 357 315 l 1,1,-1
 638 315 l 1,2,-1
 638 44 l 1,3,4
 550 -11 550 -11 440 -11 c 2,5,-1
 429 -11 l 2,6,7
 326 -11 326 -11 237 43 c 128,-1,8
 148 97 148 97 96.5 186.5 c 128,-1,9
 45 276 45 276 45 377 c 0,10,11
 45 536 45 536 160 650.5 c 128,-1,12
 275 765 275 765 435 765 c 0,13,14
 542 765 542 765 638 709 c 1,15,-1
 638 672 l 1,16,17
 544 736 544 736 435 736 c 0,18,19
 288 736 288 736 183 630.5 c 128,-1,20
 78 525 78 525 78 377.5 c 128,-1,21
 78 230 78 230 183 124 c 128,-1,22
 288 18 288 18 435 18 c 0,23,24
 517 18 517 18 605 60 c 1,25,-1
 605 286 l 1,26,-1
 357 286 l 1,0,-1
372 880.5 m 128,-1,28
 401 853 401 853 436.5 853 c 128,-1,29
 472 853 472 853 500.5 880.5 c 128,-1,30
 529 908 529 908 533 944 c 1,31,-1
 562 944 l 1,32,33
 560 897 560 897 524.5 862.5 c 128,-1,34
 489 828 489 828 441 828 c 2,35,-1
 433 828 l 2,36,37
 385 828 385 828 350 862 c 128,-1,38
 315 896 315 896 313 944 c 1,39,-1
 341 944 l 1,40,27
 343 908 343 908 372 880.5 c 128,-1,28
EndSplineSet
EndChar

StartChar: gbreve
Encoding: 287 287 218
Width: 570
GlyphClass: 2
Flags: W
LayerCount: 2
Fore
SplineSet
478 450 m 1,0,-1
 510 450 l 1,1,-1
 510 42 l 2,2,3
 510 -74 510 -74 446 -141 c 128,-1,4
 382 -208 382 -208 278 -208 c 0,5,6
 221 -208 221 -208 167 -182 c 128,-1,7
 113 -156 113 -156 83 -114 c 1,8,-1
 83 -68 l 1,9,10
 109 -116 109 -116 164.5 -148 c 128,-1,11
 220 -180 220 -180 278 -180 c 0,12,13
 366 -180 366 -180 422 -120.5 c 128,-1,14
 478 -61 478 -61 478 42 c 2,15,-1
 478 109 l 1,16,17
 451 54 451 54 393 21 c 128,-1,18
 335 -12 335 -12 273 -12 c 0,19,20
 175 -12 175 -12 105 57.5 c 128,-1,21
 35 127 35 127 35 224 c 128,-1,22
 35 321 35 321 105 390.5 c 128,-1,23
 175 460 175 460 273 460 c 0,24,25
 338 460 338 460 394.5 427.5 c 128,-1,26
 451 395 451 395 478 338 c 1,27,-1
 478 450 l 1,0,-1
128.5 77.5 m 128,-1,29
 190 16 190 16 274.5 16 c 128,-1,30
 359 16 359 16 419 77.5 c 128,-1,31
 479 139 479 139 479 224 c 128,-1,32
 479 309 479 309 419 370.5 c 128,-1,33
 359 432 359 432 274.5 432 c 128,-1,34
 190 432 190 432 128.5 370.5 c 128,-1,35
 67 309 67 309 67 224 c 128,-1,28
 67 139 67 139 128.5 77.5 c 128,-1,29
219 580.5 m 128,-1,37
 248 553 248 553 283.5 553 c 128,-1,38
 319 553 319 553 347.5 580.5 c 128,-1,39
 376 608 376 608 380 644 c 1,40,-1
 409 644 l 1,41,42
 407 597 407 597 371.5 562.5 c 128,-1,43
 336 528 336 528 288 528 c 2,44,-1
 280 528 l 2,45,46
 232 528 232 528 197 562 c 128,-1,47
 162 596 162 596 160 644 c 1,48,-1
 188 644 l 1,49,36
 190 608 190 608 219 580.5 c 128,-1,37
EndSplineSet
EndChar

StartChar: Gdotaccent
Encoding: 288 288 219
Width: 693
GlyphClass: 2
Flags: W
LayerCount: 2
Fore
SplineSet
357 286 m 1,0,-1
 357 315 l 1,1,-1
 638 315 l 1,2,-1
 638 44 l 1,3,4
 550 -11 550 -11 440 -11 c 2,5,-1
 429 -11 l 2,6,7
 326 -11 326 -11 237 43 c 128,-1,8
 148 97 148 97 96.5 186.5 c 128,-1,9
 45 276 45 276 45 377 c 0,10,11
 45 536 45 536 160 650.5 c 128,-1,12
 275 765 275 765 435 765 c 0,13,14
 542 765 542 765 638 709 c 1,15,-1
 638 672 l 1,16,17
 544 736 544 736 435 736 c 0,18,19
 288 736 288 736 183 630.5 c 128,-1,20
 78 525 78 525 78 377.5 c 128,-1,21
 78 230 78 230 183 124 c 128,-1,22
 288 18 288 18 435 18 c 0,23,24
 517 18 517 18 605 60 c 1,25,-1
 605 286 l 1,26,-1
 357 286 l 1,0,-1
406 886 m 128,-1,28
 406 913 406 913 435 913 c 128,-1,29
 464 913 464 913 464 886 c 128,-1,30
 464 859 464 859 435 859 c 128,-1,27
 406 859 406 859 406 886 c 128,-1,28
EndSplineSet
EndChar

StartChar: gdotaccent
Encoding: 289 289 220
Width: 570
GlyphClass: 2
Flags: W
LayerCount: 2
Fore
SplineSet
478 450 m 1,0,-1
 510 450 l 1,1,-1
 510 42 l 2,2,3
 510 -74 510 -74 446 -141 c 128,-1,4
 382 -208 382 -208 278 -208 c 0,5,6
 221 -208 221 -208 167 -182 c 128,-1,7
 113 -156 113 -156 83 -114 c 1,8,-1
 83 -68 l 1,9,10
 109 -116 109 -116 164.5 -148 c 128,-1,11
 220 -180 220 -180 278 -180 c 0,12,13
 366 -180 366 -180 422 -120.5 c 128,-1,14
 478 -61 478 -61 478 42 c 2,15,-1
 478 109 l 1,16,17
 451 54 451 54 393 21 c 128,-1,18
 335 -12 335 -12 273 -12 c 0,19,20
 175 -12 175 -12 105 57.5 c 128,-1,21
 35 127 35 127 35 224 c 128,-1,22
 35 321 35 321 105 390.5 c 128,-1,23
 175 460 175 460 273 460 c 0,24,25
 338 460 338 460 394.5 427.5 c 128,-1,26
 451 395 451 395 478 338 c 1,27,-1
 478 450 l 1,0,-1
128.5 77.5 m 128,-1,29
 190 16 190 16 274.5 16 c 128,-1,30
 359 16 359 16 419 77.5 c 128,-1,31
 479 139 479 139 479 224 c 128,-1,32
 479 309 479 309 419 370.5 c 128,-1,33
 359 432 359 432 274.5 432 c 128,-1,34
 190 432 190 432 128.5 370.5 c 128,-1,35
 67 309 67 309 67 224 c 128,-1,28
 67 139 67 139 128.5 77.5 c 128,-1,29
256 586 m 128,-1,37
 256 613 256 613 285 613 c 128,-1,38
 314 613 314 613 314 586 c 128,-1,39
 314 559 314 559 285 559 c 128,-1,36
 256 559 256 559 256 586 c 128,-1,37
EndSplineSet
EndChar

StartChar: uni0122
Encoding: 290 290 221
Width: 693
GlyphClass: 2
Flags: W
LayerCount: 2
Fore
SplineSet
357 286 m 1,0,-1
 357 315 l 1,1,-1
 638 315 l 1,2,-1
 638 44 l 1,3,4
 550 -11 550 -11 440 -11 c 2,5,-1
 429 -11 l 2,6,7
 326 -11 326 -11 237 43 c 128,-1,8
 148 97 148 97 96.5 186.5 c 128,-1,9
 45 276 45 276 45 377 c 0,10,11
 45 536 45 536 160 650.5 c 128,-1,12
 275 765 275 765 435 765 c 0,13,14
 542 765 542 765 638 709 c 1,15,-1
 638 672 l 1,16,17
 544 736 544 736 435 736 c 0,18,19
 288 736 288 736 183 630.5 c 128,-1,20
 78 525 78 525 78 377.5 c 128,-1,21
 78 230 78 230 183 124 c 128,-1,22
 288 18 288 18 435 18 c 0,23,24
 517 18 517 18 605 60 c 1,25,-1
 605 286 l 1,26,-1
 357 286 l 1,0,-1
429 -195 m 1,27,-1
 429 -139 l 1,28,29
 398 -139 398 -139 398 -108 c 128,-1,30
 398 -77 398 -77 432.5 -77 c 128,-1,31
 467 -77 467 -77 467 -108 c 0,32,33
 467 -115 467 -115 464 -124 c 2,34,-1
 433 -195 l 1,35,-1
 429 -195 l 1,27,-1
EndSplineSet
EndChar

StartChar: uni0123
Encoding: 291 291 222
Width: 570
GlyphClass: 2
Flags: W
LayerCount: 2
Fore
SplineSet
273 576 m 2,0,-1
 273 529 l 1,1,-1
 237 529 l 1,2,-1
 237 576 l 2,3,4
 237 623 237 623 263 656.5 c 128,-1,5
 289 690 289 690 332 703 c 1,6,-1
 332 668 l 1,7,8
 273 641 273 641 273 576 c 2,0,-1
478 450 m 1,9,-1
 510 450 l 1,10,-1
 510 42 l 2,11,12
 510 -74 510 -74 446 -141 c 128,-1,13
 382 -208 382 -208 278 -208 c 0,14,15
 221 -208 221 -208 167 -182 c 128,-1,16
 113 -156 113 -156 83 -114 c 1,17,-1
 83 -68 l 1,18,19
 109 -116 109 -116 164.5 -148 c 128,-1,20
 220 -180 220 -180 278 -180 c 0,21,22
 366 -180 366 -180 422 -120.5 c 128,-1,23
 478 -61 478 -61 478 42 c 2,24,-1
 478 109 l 1,25,26
 451 54 451 54 393 21 c 128,-1,27
 335 -12 335 -12 273 -12 c 0,28,29
 175 -12 175 -12 105 57.5 c 128,-1,30
 35 127 35 127 35 224 c 128,-1,31
 35 321 35 321 105 390.5 c 128,-1,32
 175 460 175 460 273 460 c 0,33,34
 338 460 338 460 394.5 427.5 c 128,-1,35
 451 395 451 395 478 338 c 1,36,-1
 478 450 l 1,9,-1
128.5 77.5 m 128,-1,38
 190 16 190 16 274.5 16 c 128,-1,39
 359 16 359 16 419 77.5 c 128,-1,40
 479 139 479 139 479 224 c 128,-1,41
 479 309 479 309 419 370.5 c 128,-1,42
 359 432 359 432 274.5 432 c 128,-1,43
 190 432 190 432 128.5 370.5 c 128,-1,44
 67 309 67 309 67 224 c 128,-1,37
 67 139 67 139 128.5 77.5 c 128,-1,38
EndSplineSet
EndChar

StartChar: Hcircumflex
Encoding: 292 292 223
Width: 730
GlyphClass: 2
Flags: W
LayerCount: 2
Fore
SplineSet
622 750 m 1,0,-1
 655 750 l 1,1,-1
 655 0 l 1,2,-1
 622 0 l 1,3,-1
 622 286 l 1,4,-1
 108 286 l 1,5,-1
 108 0 l 1,6,-1
 75 0 l 1,7,-1
 75 750 l 1,8,-1
 108 750 l 1,9,-1
 108 315 l 1,10,-1
 622 315 l 1,11,-1
 622 750 l 1,0,-1
381 944 m 1,12,-1
 513 829 l 1,13,-1
 472 829 l 1,14,-1
 365 920 l 1,15,-1
 259 829 l 1,16,-1
 217 829 l 1,17,-1
 351 944 l 1,18,-1
 381 944 l 1,12,-1
EndSplineSet
EndChar

StartChar: hcircumflex
Encoding: 293 293 224
Width: 514
GlyphClass: 2
Flags: W
LayerCount: 2
Fore
SplineSet
92 0 m 1,0,-1
 60 0 l 1,1,-1
 60 749 l 1,2,-1
 92 749 l 1,3,-1
 92 363 l 1,4,5
 142 461 142 461 265 461 c 0,6,7
 349 461 349 461 406.5 403 c 128,-1,8
 464 345 464 345 464 262 c 2,9,-1
 464 0 l 1,10,-1
 432 0 l 1,11,-1
 432 262 l 2,12,13
 432 332 432 332 383 382.5 c 128,-1,14
 334 433 334 433 265 433 c 128,-1,15
 196 433 196 433 144 382 c 128,-1,16
 92 331 92 331 92 262 c 2,17,-1
 92 0 l 1,0,-1
292 644 m 1,18,-1
 424 529 l 1,19,-1
 383 529 l 1,20,-1
 276 620 l 1,21,-1
 170 529 l 1,22,-1
 128 529 l 1,23,-1
 262 644 l 1,24,-1
 292 644 l 1,18,-1
EndSplineSet
EndChar

StartChar: Hbar
Encoding: 294 294 225
Width: 730
GlyphClass: 2
Flags: W
LayerCount: 2
Fore
SplineSet
622 750 m 1,0,-1
 655 750 l 1,1,-1
 655 558 l 1,2,-1
 711 558 l 1,3,-1
 711 529 l 1,4,-1
 655 529 l 1,5,-1
 655 0 l 1,6,-1
 622 0 l 1,7,-1
 622 286 l 1,8,-1
 108 286 l 1,9,-1
 108 0 l 1,10,-1
 75 0 l 1,11,-1
 75 529 l 1,12,-1
 20 529 l 1,13,-1
 20 558 l 1,14,-1
 75 558 l 1,15,-1
 75 750 l 1,16,-1
 108 750 l 1,17,-1
 108 558 l 1,18,-1
 622 558 l 1,19,-1
 622 750 l 1,0,-1
108 315 m 1,20,-1
 622 315 l 1,21,-1
 622 529 l 1,22,-1
 108 529 l 1,23,-1
 108 315 l 1,20,-1
EndSplineSet
EndChar

StartChar: hbar
Encoding: 295 295 226
Width: 527
GlyphClass: 2
Flags: W
LayerCount: 2
Fore
SplineSet
102 0 m 1,0,-1
 70 0 l 1,1,-1
 70 581 l 1,2,-1
 15 581 l 1,3,-1
 15 610 l 1,4,-1
 70 610 l 1,5,-1
 70 749 l 1,6,-1
 102 749 l 1,7,-1
 102 610 l 1,8,-1
 231 610 l 1,9,-1
 231 581 l 1,10,-1
 102 581 l 1,11,-1
 102 363 l 1,12,13
 152 461 152 461 275 461 c 0,14,15
 359 461 359 461 416.5 403 c 128,-1,16
 474 345 474 345 474 262 c 2,17,-1
 474 0 l 1,18,-1
 442 0 l 1,19,-1
 442 262 l 2,20,21
 442 332 442 332 393 382.5 c 128,-1,22
 344 433 344 433 275 433 c 128,-1,23
 206 433 206 433 154 382 c 128,-1,24
 102 331 102 331 102 262 c 2,25,-1
 102 0 l 1,0,-1
EndSplineSet
EndChar

StartChar: Itilde
Encoding: 296 296 227
Width: 193
GlyphClass: 2
Flags: W
LayerCount: 2
Fore
SplineSet
80 750 m 1,0,-1
 113 750 l 1,1,-1
 113 0 l 1,2,-1
 80 0 l 1,3,-1
 80 750 l 1,0,-1
177 847 m 0,4,5
 148 847 148 847 98.5 874.5 c 128,-1,6
 49 902 49 902 19 901.5 c 128,-1,7
 -11 901 -11 901 -43 848 c 1,8,-1
 -74 848 l 1,9,10
 -35 928 -35 928 21 928 c 2,11,-1
 30 928 l 2,12,13
 60 928 60 928 105 901.5 c 128,-1,14
 150 875 150 875 177.5 875 c 128,-1,15
 205 875 205 875 236 924 c 1,16,-1
 267 924 l 1,17,18
 220 847 220 847 177 847 c 0,4,5
EndSplineSet
EndChar

StartChar: itilde
Encoding: 297 297 228
Width: 178
GlyphClass: 2
Flags: W
LayerCount: 2
Fore
SplineSet
105 449 m 1,0,-1
 105 0 l 1,1,-1
 73 0 l 1,2,-1
 73 449 l 1,3,-1
 105 449 l 1,0,-1
170 547 m 0,4,5
 141 547 141 547 91.5 574.5 c 128,-1,6
 42 602 42 602 12 601.5 c 128,-1,7
 -18 601 -18 601 -50 548 c 1,8,-1
 -81 548 l 1,9,10
 -42 628 -42 628 14 628 c 2,11,-1
 23 628 l 2,12,13
 53 628 53 628 98 601.5 c 128,-1,14
 143 575 143 575 170.5 575 c 128,-1,15
 198 575 198 575 229 624 c 1,16,-1
 260 624 l 1,17,18
 213 547 213 547 170 547 c 0,4,5
EndSplineSet
EndChar

StartChar: Imacron
Encoding: 298 298 229
Width: 193
GlyphClass: 2
Flags: W
LayerCount: 2
Fore
SplineSet
80 750 m 1,0,-1
 113 750 l 1,1,-1
 113 0 l 1,2,-1
 80 0 l 1,3,-1
 80 750 l 1,0,-1
197 866 m 1,4,-1
 0 866 l 1,5,-1
 0 894 l 1,6,-1
 197 894 l 1,7,-1
 197 866 l 1,4,-1
EndSplineSet
EndChar

StartChar: imacron
Encoding: 299 299 230
Width: 178
GlyphClass: 2
Flags: W
LayerCount: 2
Fore
SplineSet
105 449 m 1,0,-1
 105 0 l 1,1,-1
 73 0 l 1,2,-1
 73 449 l 1,3,-1
 105 449 l 1,0,-1
188 566 m 1,4,-1
 -9 566 l 1,5,-1
 -9 594 l 1,6,-1
 188 594 l 1,7,-1
 188 566 l 1,4,-1
EndSplineSet
EndChar

StartChar: Ibreve
Encoding: 300 300 231
Width: 193
GlyphClass: 2
Flags: W
LayerCount: 2
Fore
SplineSet
80 750 m 1,0,-1
 113 750 l 1,1,-1
 113 0 l 1,2,-1
 80 0 l 1,3,-1
 80 750 l 1,0,-1
31 880.5 m 128,-1,5
 60 853 60 853 95.5 853 c 128,-1,6
 131 853 131 853 159.5 880.5 c 128,-1,7
 188 908 188 908 192 944 c 1,8,-1
 221 944 l 1,9,10
 219 897 219 897 183.5 862.5 c 128,-1,11
 148 828 148 828 100 828 c 2,12,-1
 92 828 l 2,13,14
 44 828 44 828 9 862 c 128,-1,15
 -26 896 -26 896 -28 944 c 1,16,-1
 0 944 l 1,17,4
 2 908 2 908 31 880.5 c 128,-1,5
EndSplineSet
EndChar

StartChar: ibreve
Encoding: 301 301 232
Width: 178
GlyphClass: 2
Flags: W
LayerCount: 2
Fore
SplineSet
105 449 m 1,0,-1
 105 0 l 1,1,-1
 73 0 l 1,2,-1
 73 449 l 1,3,-1
 105 449 l 1,0,-1
24 580.5 m 128,-1,5
 53 553 53 553 88.5 553 c 128,-1,6
 124 553 124 553 152.5 580.5 c 128,-1,7
 181 608 181 608 185 644 c 1,8,-1
 214 644 l 1,9,10
 212 597 212 597 176.5 562.5 c 128,-1,11
 141 528 141 528 93 528 c 2,12,-1
 85 528 l 2,13,14
 37 528 37 528 2 562 c 128,-1,15
 -33 596 -33 596 -35 644 c 1,16,-1
 -7 644 l 1,17,4
 -5 608 -5 608 24 580.5 c 128,-1,5
EndSplineSet
EndChar

StartChar: Iogonek
Encoding: 302 302 233
Width: 193
GlyphClass: 2
Flags: W
LayerCount: 2
Fore
SplineSet
80 750 m 1,0,-1
 113 750 l 1,1,-1
 113 0 l 1,2,-1
 112 0 l 1,3,-1
 25 -125 l 1,4,5
 25 -146 25 -146 38.5 -160.5 c 128,-1,6
 52 -175 52 -175 75 -175 c 2,7,-1
 113 -175 l 1,8,-1
 113 -200 l 1,9,-1
 73 -200 l 2,10,11
 40 -200 40 -200 19 -180 c 128,-1,12
 -2 -160 -2 -160 -2 -130 c 2,13,-1
 -2 -123 l 1,14,-1
 84 0 l 1,15,-1
 80 0 l 1,16,-1
 80 750 l 1,0,-1
EndSplineSet
EndChar

StartChar: iogonek
Encoding: 303 303 234
Width: 178
GlyphClass: 2
Flags: W
LayerCount: 2
Fore
SplineSet
69 -175 m 2,0,-1
 107 -175 l 1,1,-1
 107 -200 l 1,2,-1
 67 -200 l 2,3,4
 34 -200 34 -200 13 -180 c 128,-1,5
 -8 -160 -8 -160 -8 -130 c 2,6,-1
 -8 -123 l 1,7,-1
 78 0 l 1,8,-1
 73 0 l 1,9,-1
 73 449 l 1,10,-1
 105 449 l 1,11,-1
 105 0 l 1,12,-1
 106 0 l 1,13,-1
 19 -125 l 1,14,15
 19 -146 19 -146 32.5 -160.5 c 128,-1,16
 46 -175 46 -175 69 -175 c 2,0,-1
60 586 m 128,-1,18
 60 613 60 613 89 613 c 128,-1,19
 118 613 118 613 118 586 c 128,-1,20
 118 559 118 559 89 559 c 128,-1,17
 60 559 60 559 60 586 c 128,-1,18
EndSplineSet
EndChar

StartChar: Idotaccent
Encoding: 304 304 235
Width: 193
GlyphClass: 2
Flags: W
LayerCount: 2
Fore
SplineSet
80 750 m 1,0,-1
 113 750 l 1,1,-1
 113 0 l 1,2,-1
 80 0 l 1,3,-1
 80 750 l 1,0,-1
67 886 m 128,-1,5
 67 913 67 913 96 913 c 128,-1,6
 125 913 125 913 125 886 c 128,-1,7
 125 859 125 859 96 859 c 128,-1,4
 67 859 67 859 67 886 c 128,-1,5
EndSplineSet
EndChar

StartChar: dotlessi
Encoding: 305 305 236
Width: 178
GlyphClass: 2
Flags: W
LayerCount: 2
Fore
SplineSet
105 449 m 1,0,-1
 105 0 l 1,1,-1
 73 0 l 1,2,-1
 73 449 l 1,3,-1
 105 449 l 1,0,-1
EndSplineSet
EndChar

StartChar: Jcircumflex
Encoding: 308 308 237
Width: 467
GlyphClass: 2
Flags: W
LayerCount: 2
Fore
SplineSet
174 721 m 1,0,-1
 174 750 l 1,1,-1
 392 750 l 1,2,-1
 392 230 l 2,3,4
 392 121 392 121 332.5 53 c 128,-1,5
 273 -15 273 -15 177 -15 c 2,6,-1
 167 -15 l 2,7,8
 87 -15 87 -15 20 42 c 1,9,-1
 20 83 l 1,10,11
 83 14 83 14 171 14 c 128,-1,12
 259 14 259 14 309 73.5 c 128,-1,13
 359 133 359 133 359 226 c 2,14,-1
 359 721 l 1,15,-1
 174 721 l 1,0,-1
302 944 m 1,16,-1
 434 829 l 1,17,-1
 393 829 l 1,18,-1
 286 920 l 1,19,-1
 180 829 l 1,20,-1
 138 829 l 1,21,-1
 272 944 l 1,22,-1
 302 944 l 1,16,-1
EndSplineSet
EndChar

StartChar: jcircumflex
Encoding: 309 309 238
Width: 242
GlyphClass: 2
Flags: W
LayerCount: 2
Fore
SplineSet
-5 -198 m 1,0,-1
 -5 -170 l 1,1,2
 54 -170 54 -170 95 -130 c 128,-1,3
 136 -90 136 -90 136 -29 c 2,4,-1
 136 450 l 1,5,-1
 168 450 l 1,6,-1
 168 -29 l 2,7,8
 168 -103 168 -103 117.5 -150.5 c 128,-1,9
 67 -198 67 -198 -5 -198 c 1,0,-1
164 644 m 1,10,-1
 296 529 l 1,11,-1
 255 529 l 1,12,-1
 148 620 l 1,13,-1
 42 529 l 1,14,-1
 0 529 l 1,15,-1
 134 644 l 1,16,-1
 164 644 l 1,10,-1
EndSplineSet
EndChar

StartChar: uni0136
Encoding: 310 310 239
Width: 572
GlyphClass: 2
Flags: W
LayerCount: 2
Fore
SplineSet
75 750 m 1,0,-1
 107 750 l 1,1,-1
 107 475 l 1,2,-1
 424 750 l 1,3,-1
 464 750 l 1,4,-1
 121 451 l 1,5,-1
 552 0 l 1,6,-1
 508 0 l 1,7,-1
 108 417 l 1,8,-1
 108 0 l 1,9,-1
 75 0 l 1,10,-1
 75 750 l 1,0,-1
282 -195 m 1,11,-1
 282 -139 l 1,12,13
 251 -139 251 -139 251 -108 c 128,-1,14
 251 -77 251 -77 285.5 -77 c 128,-1,15
 320 -77 320 -77 320 -108 c 0,16,17
 320 -115 320 -115 317 -124 c 2,18,-1
 286 -195 l 1,19,-1
 282 -195 l 1,11,-1
EndSplineSet
EndChar

StartChar: uni0137
Encoding: 311 311 240
Width: 388
GlyphClass: 2
Flags: W
LayerCount: 2
Fore
SplineSet
60 748 m 1,0,-1
 92 748 l 1,1,-1
 92 294 l 1,2,-1
 270 450 l 1,3,-1
 311 450 l 1,4,-1
 105 270 l 1,5,-1
 363 0 l 1,6,-1
 320 0 l 1,7,-1
 92 237 l 1,8,-1
 92 0 l 1,9,-1
 60 0 l 1,10,-1
 60 748 l 1,0,-1
190 -195 m 1,11,-1
 190 -139 l 1,12,13
 159 -139 159 -139 159 -108 c 128,-1,14
 159 -77 159 -77 193.5 -77 c 128,-1,15
 228 -77 228 -77 228 -108 c 0,16,17
 228 -115 228 -115 225 -124 c 2,18,-1
 194 -195 l 1,19,-1
 190 -195 l 1,11,-1
EndSplineSet
EndChar

StartChar: Lacute
Encoding: 313 313 241
Width: 360
GlyphClass: 2
Flags: W
LayerCount: 2
Fore
SplineSet
108 750 m 1,0,-1
 108 29 l 1,1,-1
 340 29 l 1,2,-1
 340 0 l 1,3,-1
 75 0 l 1,4,-1
 75 750 l 1,5,-1
 108 750 l 1,0,-1
159 944 m 1,6,-1
 200 944 l 1,7,-1
 61 829 l 1,8,-1
 19 829 l 1,9,-1
 159 944 l 1,6,-1
EndSplineSet
EndChar

StartChar: lacute
Encoding: 314 314 242
Width: 251
GlyphClass: 2
Flags: W
LayerCount: 2
Fore
SplineSet
231 19 m 1,0,-1
 231 -9 l 1,1,2
 160 -9 160 -9 110 38.5 c 128,-1,3
 60 86 60 86 60 160 c 2,4,-1
 60 750 l 1,5,-1
 92 750 l 1,6,-1
 92 160 l 2,7,8
 92 99 92 99 132.5 59 c 128,-1,9
 173 19 173 19 231 19 c 1,0,-1
158 940 m 1,10,-1
 199 940 l 1,11,-1
 60 825 l 1,12,-1
 18 825 l 1,13,-1
 158 940 l 1,10,-1
EndSplineSet
EndChar

StartChar: uni013B
Encoding: 315 315 243
Width: 360
GlyphClass: 2
Flags: W
LayerCount: 2
Fore
SplineSet
108 750 m 1,0,-1
 108 29 l 1,1,-1
 340 29 l 1,2,-1
 340 0 l 1,3,-1
 75 0 l 1,4,-1
 75 750 l 1,5,-1
 108 750 l 1,0,-1
176 -195 m 1,6,-1
 176 -139 l 1,7,8
 145 -139 145 -139 145 -108 c 128,-1,9
 145 -77 145 -77 179.5 -77 c 128,-1,10
 214 -77 214 -77 214 -108 c 0,11,12
 214 -115 214 -115 211 -124 c 2,13,-1
 180 -195 l 1,14,-1
 176 -195 l 1,6,-1
EndSplineSet
EndChar

StartChar: uni013C
Encoding: 316 316 244
Width: 251
GlyphClass: 2
Flags: W
LayerCount: 2
Fore
SplineSet
231 19 m 1,0,-1
 231 -9 l 1,1,2
 160 -9 160 -9 110 38.5 c 128,-1,3
 60 86 60 86 60 160 c 2,4,-1
 60 750 l 1,5,-1
 92 750 l 1,6,-1
 92 160 l 2,7,8
 92 99 92 99 132.5 59 c 128,-1,9
 173 19 173 19 231 19 c 1,0,-1
138 -195 m 1,10,-1
 138 -139 l 1,11,12
 107 -139 107 -139 107 -108 c 128,-1,13
 107 -77 107 -77 141.5 -77 c 128,-1,14
 176 -77 176 -77 176 -108 c 0,15,16
 176 -115 176 -115 173 -124 c 2,17,-1
 142 -195 l 1,18,-1
 138 -195 l 1,10,-1
EndSplineSet
EndChar

StartChar: Lcaron
Encoding: 317 317 245
Width: 360
GlyphClass: 2
Flags: W
LayerCount: 2
Fore
SplineSet
108 750 m 1,0,-1
 108 29 l 1,1,-1
 340 29 l 1,2,-1
 340 0 l 1,3,-1
 75 0 l 1,4,-1
 75 750 l 1,5,-1
 108 750 l 1,0,-1
252 631 m 1,6,-1
 252 687 l 1,7,8
 221 687 221 687 221 718 c 128,-1,9
 221 749 221 749 255.5 749 c 128,-1,10
 290 749 290 749 290 718 c 0,11,12
 290 711 290 711 287 702 c 2,13,-1
 256 631 l 1,14,-1
 252 631 l 1,6,-1
EndSplineSet
EndChar

StartChar: lcaron
Encoding: 318 318 246
Width: 265
GlyphClass: 2
Flags: W
LayerCount: 2
Fore
SplineSet
231 19 m 1,0,-1
 231 -9 l 1,1,2
 160 -9 160 -9 110 38.5 c 128,-1,3
 60 86 60 86 60 160 c 2,4,-1
 60 750 l 1,5,-1
 92 750 l 1,6,-1
 92 160 l 2,7,8
 92 99 92 99 132.5 59 c 128,-1,9
 173 19 173 19 231 19 c 1,0,-1
212 632 m 1,10,-1
 212 688 l 1,11,12
 181 688 181 688 181 719 c 128,-1,13
 181 750 181 750 215.5 750 c 128,-1,14
 250 750 250 750 250 719 c 0,15,16
 250 712 250 712 247 703 c 2,17,-1
 216 632 l 1,18,-1
 212 632 l 1,10,-1
EndSplineSet
EndChar

StartChar: Ldot
Encoding: 319 319 247
Width: 360
GlyphClass: 2
Flags: W
LayerCount: 2
Fore
SplineSet
108 750 m 1,0,-1
 108 29 l 1,1,-1
 340 29 l 1,2,-1
 340 0 l 1,3,-1
 75 0 l 1,4,-1
 75 750 l 1,5,-1
 108 750 l 1,0,-1
253 398 m 128,-1,7
 253 429 253 429 284 429 c 128,-1,8
 315 429 315 429 315 398 c 128,-1,9
 315 367 315 367 284 367 c 128,-1,6
 253 367 253 367 253 398 c 128,-1,7
EndSplineSet
EndChar

StartChar: ldot
Encoding: 320 320 248
Width: 289
GlyphClass: 2
Flags: W
LayerCount: 2
Fore
SplineSet
231 19 m 1,0,-1
 231 -9 l 1,1,2
 160 -9 160 -9 110 38.5 c 128,-1,3
 60 86 60 86 60 160 c 2,4,-1
 60 750 l 1,5,-1
 92 750 l 1,6,-1
 92 160 l 2,7,8
 92 99 92 99 132.5 59 c 128,-1,9
 173 19 173 19 231 19 c 1,0,-1
182 292 m 128,-1,11
 182 323 182 323 213 323 c 128,-1,12
 244 323 244 323 244 292 c 128,-1,13
 244 261 244 261 213 261 c 128,-1,10
 182 261 182 261 182 292 c 128,-1,11
EndSplineSet
EndChar

StartChar: Lslash
Encoding: 321 321 249
Width: 360
GlyphClass: 2
Flags: W
LayerCount: 2
Fore
SplineSet
108 750 m 1,0,-1
 108 321 l 1,1,-1
 228 441 l 1,2,-1
 248 421 l 1,3,-1
 108 281 l 1,4,-1
 108 29 l 1,5,-1
 340 29 l 1,6,-1
 340 0 l 1,7,-1
 75 0 l 1,8,-1
 75 248 l 1,9,-1
 28 201 l 1,10,-1
 8 221 l 1,11,-1
 75 288 l 1,12,-1
 75 750 l 1,13,-1
 108 750 l 1,0,-1
EndSplineSet
EndChar

StartChar: lslash
Encoding: 322 322 250
Width: 282
GlyphClass: 2
Flags: W
LayerCount: 2
Fore
SplineSet
260 19 m 1,0,-1
 260 -9 l 1,1,2
 189 -9 189 -9 139 38.5 c 128,-1,3
 89 86 89 86 89 160 c 2,4,-1
 89 262 l 1,5,-1
 28 201 l 1,6,-1
 8 221 l 1,7,-1
 89 302 l 1,8,-1
 89 750 l 1,9,-1
 121 750 l 1,10,-1
 121 334 l 1,11,-1
 228 441 l 1,12,-1
 248 421 l 1,13,-1
 121 294 l 1,14,-1
 121 160 l 2,15,16
 121 99 121 99 161.5 59 c 128,-1,17
 202 19 202 19 260 19 c 1,0,-1
EndSplineSet
EndChar

StartChar: Nacute
Encoding: 323 323 251
Width: 731
GlyphClass: 2
Flags: W
LayerCount: 2
Fore
SplineSet
627 750 m 1,0,-1
 656 750 l 1,1,-1
 656 -11 l 1,2,-1
 104 668 l 1,3,-1
 104 0 l 1,4,-1
 75 0 l 1,5,-1
 75 761 l 1,6,-1
 627 83 l 1,7,-1
 627 750 l 1,0,-1
415 944 m 1,8,-1
 456 944 l 1,9,-1
 317 829 l 1,10,-1
 275 829 l 1,11,-1
 415 944 l 1,8,-1
EndSplineSet
EndChar

StartChar: nacute
Encoding: 324 324 252
Width: 524
GlyphClass: 2
Flags: W
LayerCount: 2
Fore
SplineSet
92 0 m 1,0,-1
 60 0 l 1,1,-1
 60 450 l 1,2,-1
 92 450 l 1,3,-1
 92 359 l 1,4,5
 143 461 143 461 266 461 c 0,6,7
 350 461 350 461 407 403 c 128,-1,8
 464 345 464 345 464 262 c 2,9,-1
 464 0 l 1,10,-1
 432 0 l 1,11,-1
 432 262 l 2,12,13
 432 331 432 331 383.5 382 c 128,-1,14
 335 433 335 433 266 433 c 128,-1,15
 197 433 197 433 144.5 382 c 128,-1,16
 92 331 92 331 92 262 c 2,17,-1
 92 0 l 1,0,-1
311 644 m 1,18,-1
 352 644 l 1,19,-1
 213 529 l 1,20,-1
 171 529 l 1,21,-1
 311 644 l 1,18,-1
EndSplineSet
EndChar

StartChar: uni0145
Encoding: 325 325 253
Width: 731
GlyphClass: 2
Flags: W
LayerCount: 2
Fore
SplineSet
627 750 m 1,0,-1
 656 750 l 1,1,-1
 656 -11 l 1,2,-1
 104 668 l 1,3,-1
 104 0 l 1,4,-1
 75 0 l 1,5,-1
 75 761 l 1,6,-1
 627 83 l 1,7,-1
 627 750 l 1,0,-1
362 -195 m 1,8,-1
 362 -139 l 1,9,10
 331 -139 331 -139 331 -108 c 128,-1,11
 331 -77 331 -77 365.5 -77 c 128,-1,12
 400 -77 400 -77 400 -108 c 0,13,14
 400 -115 400 -115 397 -124 c 2,15,-1
 366 -195 l 1,16,-1
 362 -195 l 1,8,-1
EndSplineSet
EndChar

StartChar: uni0146
Encoding: 326 326 254
Width: 524
GlyphClass: 2
Flags: W
LayerCount: 2
Fore
SplineSet
92 0 m 1,0,-1
 60 0 l 1,1,-1
 60 450 l 1,2,-1
 92 450 l 1,3,-1
 92 359 l 1,4,5
 143 461 143 461 266 461 c 0,6,7
 350 461 350 461 407 403 c 128,-1,8
 464 345 464 345 464 262 c 2,9,-1
 464 0 l 1,10,-1
 432 0 l 1,11,-1
 432 262 l 2,12,13
 432 331 432 331 383.5 382 c 128,-1,14
 335 433 335 433 266 433 c 128,-1,15
 197 433 197 433 144.5 382 c 128,-1,16
 92 331 92 331 92 262 c 2,17,-1
 92 0 l 1,0,-1
258 -195 m 1,18,-1
 258 -139 l 1,19,20
 227 -139 227 -139 227 -108 c 128,-1,21
 227 -77 227 -77 261.5 -77 c 128,-1,22
 296 -77 296 -77 296 -108 c 0,23,24
 296 -115 296 -115 293 -124 c 2,25,-1
 262 -195 l 1,26,-1
 258 -195 l 1,18,-1
EndSplineSet
EndChar

StartChar: Ncaron
Encoding: 327 327 255
Width: 731
GlyphClass: 2
Flags: W
LayerCount: 2
Fore
SplineSet
627 750 m 1,0,-1
 656 750 l 1,1,-1
 656 -11 l 1,2,-1
 104 668 l 1,3,-1
 104 0 l 1,4,-1
 75 0 l 1,5,-1
 75 761 l 1,6,-1
 627 83 l 1,7,-1
 627 750 l 1,0,-1
513 944 m 1,8,-1
 381 829 l 1,9,-1
 351 829 l 1,10,-1
 217 944 l 1,11,-1
 259 944 l 1,12,-1
 365 853 l 1,13,-1
 472 944 l 1,14,-1
 513 944 l 1,8,-1
EndSplineSet
EndChar

StartChar: ncaron
Encoding: 328 328 256
Width: 524
GlyphClass: 2
Flags: W
LayerCount: 2
Fore
SplineSet
92 0 m 1,0,-1
 60 0 l 1,1,-1
 60 450 l 1,2,-1
 92 450 l 1,3,-1
 92 359 l 1,4,5
 143 461 143 461 266 461 c 0,6,7
 350 461 350 461 407 403 c 128,-1,8
 464 345 464 345 464 262 c 2,9,-1
 464 0 l 1,10,-1
 432 0 l 1,11,-1
 432 262 l 2,12,13
 432 331 432 331 383.5 382 c 128,-1,14
 335 433 335 433 266 433 c 128,-1,15
 197 433 197 433 144.5 382 c 128,-1,16
 92 331 92 331 92 262 c 2,17,-1
 92 0 l 1,0,-1
410 644 m 1,18,-1
 278 529 l 1,19,-1
 248 529 l 1,20,-1
 114 644 l 1,21,-1
 156 644 l 1,22,-1
 262 553 l 1,23,-1
 369 644 l 1,24,-1
 410 644 l 1,18,-1
EndSplineSet
EndChar

StartChar: napostrophe
Encoding: 329 329 257
Width: 524
GlyphClass: 2
Flags: W
LayerCount: 2
Fore
SplineSet
92 0 m 1,0,-1
 60 0 l 1,1,-1
 60 450 l 1,2,-1
 92 450 l 1,3,-1
 92 359 l 1,4,5
 143 461 143 461 266 461 c 0,6,7
 350 461 350 461 407 403 c 128,-1,8
 464 345 464 345 464 262 c 2,9,-1
 464 0 l 1,10,-1
 432 0 l 1,11,-1
 432 262 l 2,12,13
 432 331 432 331 383.5 382 c 128,-1,14
 335 433 335 433 266 433 c 128,-1,15
 197 433 197 433 144.5 382 c 128,-1,16
 92 331 92 331 92 262 c 2,17,-1
 92 0 l 1,0,-1
90 529 m 1,18,-1
 90 585 l 1,19,20
 59 585 59 585 59 616 c 128,-1,21
 59 647 59 647 93.5 647 c 128,-1,22
 128 647 128 647 128 616 c 0,23,24
 128 609 128 609 125 600 c 2,25,-1
 94 529 l 1,26,-1
 90 529 l 1,18,-1
EndSplineSet
EndChar

StartChar: Omacron
Encoding: 332 332 258
Width: 870
GlyphClass: 2
Flags: W
LayerCount: 2
Fore
SplineSet
158.5 104 m 128,-1,1
 45 221 45 221 45 377.5 c 128,-1,2
 45 534 45 534 160 648.5 c 128,-1,3
 275 763 275 763 436 763 c 128,-1,4
 597 763 597 763 711 649 c 128,-1,5
 825 535 825 535 825 377.5 c 128,-1,6
 825 220 825 220 712 103.5 c 128,-1,7
 599 -13 599 -13 442 -13 c 2,8,-1
 427 -13 l 2,9,0
 272 -13 272 -13 158.5 104 c 128,-1,1
687.5 628.5 m 128,-1,11
 583 734 583 734 435.5 734 c 128,-1,12
 288 734 288 734 183 628.5 c 128,-1,13
 78 523 78 523 78 375.5 c 128,-1,14
 78 228 78 228 183 122 c 128,-1,15
 288 16 288 16 435 16 c 128,-1,16
 582 16 582 16 687 122 c 128,-1,17
 792 228 792 228 792 375.5 c 128,-1,10
 792 523 792 523 687.5 628.5 c 128,-1,11
533 866 m 1,18,-1
 336 866 l 1,19,-1
 336 894 l 1,20,-1
 533 894 l 1,21,-1
 533 866 l 1,18,-1
EndSplineSet
EndChar

StartChar: omacron
Encoding: 333 333 259
Width: 546
GlyphClass: 2
Flags: W
LayerCount: 2
Fore
SplineSet
104 60.5 m 128,-1,1
 35 132 35 132 35 227 c 128,-1,2
 35 322 35 322 105 391.5 c 128,-1,3
 175 461 175 461 273.5 461 c 128,-1,4
 372 461 372 461 441.5 391.5 c 128,-1,5
 511 322 511 322 511 226.5 c 128,-1,6
 511 131 511 131 443 60 c 128,-1,7
 375 -11 375 -11 278 -11 c 2,8,-1
 269 -11 l 2,9,0
 173 -11 173 -11 104 60.5 c 128,-1,1
418.5 371 m 128,-1,11
 358 433 358 433 274 433 c 128,-1,12
 190 433 190 433 128.5 370.5 c 128,-1,13
 67 308 67 308 67 224 c 128,-1,14
 67 140 67 140 128.5 78.5 c 128,-1,15
 190 17 190 17 274.5 17 c 128,-1,16
 359 17 359 17 419 78.5 c 128,-1,17
 479 140 479 140 479 224.5 c 128,-1,10
 479 309 479 309 418.5 371 c 128,-1,11
371 566 m 1,18,-1
 174 566 l 1,19,-1
 174 594 l 1,20,-1
 371 594 l 1,21,-1
 371 566 l 1,18,-1
EndSplineSet
EndChar

StartChar: Obreve
Encoding: 334 334 260
Width: 870
GlyphClass: 2
Flags: W
LayerCount: 2
Fore
SplineSet
158.5 104 m 128,-1,1
 45 221 45 221 45 377.5 c 128,-1,2
 45 534 45 534 160 648.5 c 128,-1,3
 275 763 275 763 436 763 c 128,-1,4
 597 763 597 763 711 649 c 128,-1,5
 825 535 825 535 825 377.5 c 128,-1,6
 825 220 825 220 712 103.5 c 128,-1,7
 599 -13 599 -13 442 -13 c 2,8,-1
 427 -13 l 2,9,0
 272 -13 272 -13 158.5 104 c 128,-1,1
687.5 628.5 m 128,-1,11
 583 734 583 734 435.5 734 c 128,-1,12
 288 734 288 734 183 628.5 c 128,-1,13
 78 523 78 523 78 375.5 c 128,-1,14
 78 228 78 228 183 122 c 128,-1,15
 288 16 288 16 435 16 c 128,-1,16
 582 16 582 16 687 122 c 128,-1,17
 792 228 792 228 792 375.5 c 128,-1,10
 792 523 792 523 687.5 628.5 c 128,-1,11
369 880.5 m 128,-1,19
 398 853 398 853 433.5 853 c 128,-1,20
 469 853 469 853 497.5 880.5 c 128,-1,21
 526 908 526 908 530 944 c 1,22,-1
 559 944 l 1,23,24
 557 897 557 897 521.5 862.5 c 128,-1,25
 486 828 486 828 438 828 c 2,26,-1
 430 828 l 2,27,28
 382 828 382 828 347 862 c 128,-1,29
 312 896 312 896 310 944 c 1,30,-1
 338 944 l 1,31,18
 340 908 340 908 369 880.5 c 128,-1,19
EndSplineSet
EndChar

StartChar: obreve
Encoding: 335 335 261
Width: 546
GlyphClass: 2
Flags: W
LayerCount: 2
Fore
SplineSet
104 60.5 m 128,-1,1
 35 132 35 132 35 227 c 128,-1,2
 35 322 35 322 105 391.5 c 128,-1,3
 175 461 175 461 273.5 461 c 128,-1,4
 372 461 372 461 441.5 391.5 c 128,-1,5
 511 322 511 322 511 226.5 c 128,-1,6
 511 131 511 131 443 60 c 128,-1,7
 375 -11 375 -11 278 -11 c 2,8,-1
 269 -11 l 2,9,0
 173 -11 173 -11 104 60.5 c 128,-1,1
418.5 371 m 128,-1,11
 358 433 358 433 274 433 c 128,-1,12
 190 433 190 433 128.5 370.5 c 128,-1,13
 67 308 67 308 67 224 c 128,-1,14
 67 140 67 140 128.5 78.5 c 128,-1,15
 190 17 190 17 274.5 17 c 128,-1,16
 359 17 359 17 419 78.5 c 128,-1,17
 479 140 479 140 479 224.5 c 128,-1,10
 479 309 479 309 418.5 371 c 128,-1,11
207 580.5 m 128,-1,19
 236 553 236 553 271.5 553 c 128,-1,20
 307 553 307 553 335.5 580.5 c 128,-1,21
 364 608 364 608 368 644 c 1,22,-1
 397 644 l 1,23,24
 395 597 395 597 359.5 562.5 c 128,-1,25
 324 528 324 528 276 528 c 2,26,-1
 268 528 l 2,27,28
 220 528 220 528 185 562 c 128,-1,29
 150 596 150 596 148 644 c 1,30,-1
 176 644 l 1,31,18
 178 608 178 608 207 580.5 c 128,-1,19
EndSplineSet
EndChar

StartChar: Ohungarumlaut
Encoding: 336 336 262
Width: 870
GlyphClass: 2
Flags: W
LayerCount: 2
Fore
SplineSet
158.5 104 m 128,-1,1
 45 221 45 221 45 377.5 c 128,-1,2
 45 534 45 534 160 648.5 c 128,-1,3
 275 763 275 763 436 763 c 128,-1,4
 597 763 597 763 711 649 c 128,-1,5
 825 535 825 535 825 377.5 c 128,-1,6
 825 220 825 220 712 103.5 c 128,-1,7
 599 -13 599 -13 442 -13 c 2,8,-1
 427 -13 l 2,9,0
 272 -13 272 -13 158.5 104 c 128,-1,1
687.5 628.5 m 128,-1,11
 583 734 583 734 435.5 734 c 128,-1,12
 288 734 288 734 183 628.5 c 128,-1,13
 78 523 78 523 78 375.5 c 128,-1,14
 78 228 78 228 183 122 c 128,-1,15
 288 16 288 16 435 16 c 128,-1,16
 582 16 582 16 687 122 c 128,-1,17
 792 228 792 228 792 375.5 c 128,-1,10
 792 523 792 523 687.5 628.5 c 128,-1,11
423 944 m 1,18,-1
 464 944 l 1,19,-1
 325 829 l 1,20,-1
 283 829 l 1,21,-1
 423 944 l 1,18,-1
545 944 m 1,22,-1
 586 944 l 1,23,-1
 447 829 l 1,24,-1
 405 829 l 1,25,-1
 545 944 l 1,22,-1
EndSplineSet
EndChar

StartChar: ohungarumlaut
Encoding: 337 337 263
Width: 546
GlyphClass: 2
Flags: W
LayerCount: 2
Fore
SplineSet
104 60.5 m 128,-1,1
 35 132 35 132 35 227 c 128,-1,2
 35 322 35 322 105 391.5 c 128,-1,3
 175 461 175 461 273.5 461 c 128,-1,4
 372 461 372 461 441.5 391.5 c 128,-1,5
 511 322 511 322 511 226.5 c 128,-1,6
 511 131 511 131 443 60 c 128,-1,7
 375 -11 375 -11 278 -11 c 2,8,-1
 269 -11 l 2,9,0
 173 -11 173 -11 104 60.5 c 128,-1,1
418.5 371 m 128,-1,11
 358 433 358 433 274 433 c 128,-1,12
 190 433 190 433 128.5 370.5 c 128,-1,13
 67 308 67 308 67 224 c 128,-1,14
 67 140 67 140 128.5 78.5 c 128,-1,15
 190 17 190 17 274.5 17 c 128,-1,16
 359 17 359 17 419 78.5 c 128,-1,17
 479 140 479 140 479 224.5 c 128,-1,10
 479 309 479 309 418.5 371 c 128,-1,11
261 644 m 1,18,-1
 302 644 l 1,19,-1
 163 529 l 1,20,-1
 121 529 l 1,21,-1
 261 644 l 1,18,-1
383 644 m 1,22,-1
 424 644 l 1,23,-1
 285 529 l 1,24,-1
 243 529 l 1,25,-1
 383 644 l 1,22,-1
EndSplineSet
EndChar

StartChar: OE
Encoding: 338 338 264
Width: 759
GlyphClass: 2
Flags: W
LayerCount: 2
Fore
SplineSet
724 721 m 1,0,-1
 488 721 l 1,1,-1
 488 313 l 1,2,-1
 685 313 l 1,3,-1
 685 284 l 1,4,-1
 488 284 l 1,5,-1
 488 29 l 1,6,-1
 724 29 l 1,7,-1
 724 0 l 1,8,-1
 427 0 l 2,9,10
 271 0 271 0 160.5 111.5 c 128,-1,11
 50 223 50 223 50 379 c 128,-1,12
 50 535 50 535 162 642.5 c 128,-1,13
 274 750 274 750 435 750 c 2,14,-1
 724 750 l 1,15,-1
 724 721 l 1,0,-1
435 29 m 2,16,-1
 455 29 l 1,17,-1
 455 721 l 1,18,-1
 435 721 l 2,19,20
 287 721 287 721 185 622.5 c 128,-1,21
 83 524 83 524 83 377 c 128,-1,22
 83 230 83 230 185.5 129.5 c 128,-1,23
 288 29 288 29 435 29 c 2,16,-1
EndSplineSet
EndChar

StartChar: oe
Encoding: 339 339 265
Width: 820
GlyphClass: 2
Flags: W
LayerCount: 2
Fore
SplineSet
300 -11 m 2,0,-1
 285 -11 l 2,1,2
 192 -11 192 -11 123.5 60.5 c 128,-1,3
 55 132 55 132 55 227 c 128,-1,4
 55 322 55 322 125 391.5 c 128,-1,5
 195 461 195 461 287 461 c 128,-1,6
 379 461 379 461 448 405 c 1,7,8
 517 463 517 463 603 463 c 0,9,10
 711 463 711 463 785 381 c 1,11,-1
 472 70 l 1,12,13
 536 19 536 19 596 19 c 128,-1,14
 656 19 656 19 703.5 46.5 c 128,-1,15
 751 74 751 74 782 120 c 1,16,-1
 782 69 l 1,17,18
 711 -9 711 -9 610 -9 c 2,19,-1
 595 -9 l 2,20,21
 513 -9 513 -9 449 47 c 1,22,23
 385 -11 385 -11 300 -11 c 2,0,-1
438.5 371 m 128,-1,25
 378 433 378 433 294 433 c 128,-1,26
 210 433 210 433 148.5 370.5 c 128,-1,27
 87 308 87 308 87 224 c 128,-1,28
 87 140 87 140 148.5 78.5 c 128,-1,29
 210 17 210 17 294.5 17 c 128,-1,30
 379 17 379 17 439 78.5 c 128,-1,31
 499 140 499 140 499 224.5 c 128,-1,24
 499 309 499 309 438.5 371 c 128,-1,25
741 381 m 1,32,33
 679 435 679 435 603.5 435 c 128,-1,34
 528 435 528 435 469 383 c 1,35,36
 531 315 531 315 531 225 c 0,37,38
 531 191 531 191 522 161 c 1,39,-1
 741 381 l 1,32,33
EndSplineSet
EndChar

StartChar: Racute
Encoding: 340 340 266
Width: 407
GlyphClass: 2
Flags: W
LayerCount: 2
Fore
SplineSet
75 750 m 1,0,-1
 118 750 l 2,1,2
 215 750 215 750 288.5 678.5 c 128,-1,3
 362 607 362 607 362 510.5 c 128,-1,4
 362 414 362 414 287 343 c 128,-1,5
 212 272 212 272 126 272 c 2,6,-1
 119 272 l 1,7,-1
 377 0 l 1,8,-1
 334 0 l 1,9,-1
 107 238 l 1,10,-1
 107 0 l 1,11,-1
 75 0 l 1,12,-1
 75 750 l 1,0,-1
107 301 m 1,13,-1
 125 301 l 2,14,15
 206 301 206 301 268 363 c 128,-1,16
 330 425 330 425 330 510 c 128,-1,17
 330 595 330 595 266 658 c 128,-1,18
 202 721 202 721 120 721 c 2,19,-1
 107 721 l 1,20,-1
 107 301 l 1,13,-1
225 944 m 1,21,-1
 266 944 l 1,22,-1
 127 829 l 1,23,-1
 85 829 l 1,24,-1
 225 944 l 1,21,-1
EndSplineSet
EndChar

StartChar: racute
Encoding: 341 341 267
Width: 348
GlyphClass: 2
Flags: W
LayerCount: 2
Fore
SplineSet
226 433 m 128,-1,1
 173 433 173 433 132.5 393 c 128,-1,2
 92 353 92 353 92 300 c 2,3,-1
 92 0 l 1,4,-1
 60 0 l 1,5,-1
 60 450 l 1,6,-1
 92 450 l 1,7,-1
 92 383 l 1,8,9
 110 417 110 417 148 439 c 128,-1,10
 186 461 186 461 233 461 c 128,-1,11
 280 461 280 461 323 429 c 1,12,-1
 323 389 l 1,13,0
 279 433 279 433 226 433 c 128,-1,1
251 644 m 1,14,-1
 292 644 l 1,15,-1
 153 529 l 1,16,-1
 111 529 l 1,17,-1
 251 644 l 1,14,-1
EndSplineSet
EndChar

StartChar: uni0156
Encoding: 342 342 268
Width: 407
GlyphClass: 2
Flags: W
LayerCount: 2
Fore
SplineSet
75 750 m 1,0,-1
 118 750 l 2,1,2
 215 750 215 750 288.5 678.5 c 128,-1,3
 362 607 362 607 362 510.5 c 128,-1,4
 362 414 362 414 287 343 c 128,-1,5
 212 272 212 272 126 272 c 2,6,-1
 119 272 l 1,7,-1
 377 0 l 1,8,-1
 334 0 l 1,9,-1
 107 238 l 1,10,-1
 107 0 l 1,11,-1
 75 0 l 1,12,-1
 75 750 l 1,0,-1
107 301 m 1,13,-1
 125 301 l 2,14,15
 206 301 206 301 268 363 c 128,-1,16
 330 425 330 425 330 510 c 128,-1,17
 330 595 330 595 266 658 c 128,-1,18
 202 721 202 721 120 721 c 2,19,-1
 107 721 l 1,20,-1
 107 301 l 1,13,-1
200 -195 m 1,21,-1
 200 -139 l 1,22,23
 169 -139 169 -139 169 -108 c 128,-1,24
 169 -77 169 -77 203.5 -77 c 128,-1,25
 238 -77 238 -77 238 -108 c 0,26,27
 238 -115 238 -115 235 -124 c 2,28,-1
 204 -195 l 1,29,-1
 200 -195 l 1,21,-1
EndSplineSet
EndChar

StartChar: uni0157
Encoding: 343 343 269
Width: 348
GlyphClass: 2
Flags: W
LayerCount: 2
Fore
SplineSet
226 433 m 128,-1,1
 173 433 173 433 132.5 393 c 128,-1,2
 92 353 92 353 92 300 c 2,3,-1
 92 0 l 1,4,-1
 60 0 l 1,5,-1
 60 450 l 1,6,-1
 92 450 l 1,7,-1
 92 383 l 1,8,9
 110 417 110 417 148 439 c 128,-1,10
 186 461 186 461 233 461 c 128,-1,11
 280 461 280 461 323 429 c 1,12,-1
 323 389 l 1,13,0
 279 433 279 433 226 433 c 128,-1,1
90 -195 m 1,14,-1
 90 -139 l 1,15,16
 59 -139 59 -139 59 -108 c 128,-1,17
 59 -77 59 -77 93.5 -77 c 128,-1,18
 128 -77 128 -77 128 -108 c 0,19,20
 128 -115 128 -115 125 -124 c 2,21,-1
 94 -195 l 1,22,-1
 90 -195 l 1,14,-1
EndSplineSet
EndChar

StartChar: Rcaron
Encoding: 344 344 270
Width: 407
GlyphClass: 2
Flags: W
LayerCount: 2
Fore
SplineSet
75 750 m 1,0,-1
 118 750 l 2,1,2
 215 750 215 750 288.5 678.5 c 128,-1,3
 362 607 362 607 362 510.5 c 128,-1,4
 362 414 362 414 287 343 c 128,-1,5
 212 272 212 272 126 272 c 2,6,-1
 119 272 l 1,7,-1
 377 0 l 1,8,-1
 334 0 l 1,9,-1
 107 238 l 1,10,-1
 107 0 l 1,11,-1
 75 0 l 1,12,-1
 75 750 l 1,0,-1
107 301 m 1,13,-1
 125 301 l 2,14,15
 206 301 206 301 268 363 c 128,-1,16
 330 425 330 425 330 510 c 128,-1,17
 330 595 330 595 266 658 c 128,-1,18
 202 721 202 721 120 721 c 2,19,-1
 107 721 l 1,20,-1
 107 301 l 1,13,-1
335 944 m 1,21,-1
 203 829 l 1,22,-1
 173 829 l 1,23,-1
 39 944 l 1,24,-1
 81 944 l 1,25,-1
 187 853 l 1,26,-1
 294 944 l 1,27,-1
 335 944 l 1,21,-1
EndSplineSet
EndChar

StartChar: rcaron
Encoding: 345 345 271
Width: 348
GlyphClass: 2
Flags: W
LayerCount: 2
Fore
SplineSet
226 433 m 128,-1,1
 173 433 173 433 132.5 393 c 128,-1,2
 92 353 92 353 92 300 c 2,3,-1
 92 0 l 1,4,-1
 60 0 l 1,5,-1
 60 450 l 1,6,-1
 92 450 l 1,7,-1
 92 383 l 1,8,9
 110 417 110 417 148 439 c 128,-1,10
 186 461 186 461 233 461 c 128,-1,11
 280 461 280 461 323 429 c 1,12,-1
 323 389 l 1,13,0
 279 433 279 433 226 433 c 128,-1,1
346 644 m 1,14,-1
 214 529 l 1,15,-1
 184 529 l 1,16,-1
 50 644 l 1,17,-1
 92 644 l 1,18,-1
 198 553 l 1,19,-1
 305 644 l 1,20,-1
 346 644 l 1,14,-1
EndSplineSet
EndChar

StartChar: Sacute
Encoding: 346 346 272
Width: 498
GlyphClass: 2
Flags: W
LayerCount: 2
Fore
SplineSet
314.5 710 m 128,-1,1
 275 734 275 734 226 734 c 128,-1,2
 177 734 177 734 142.5 703.5 c 128,-1,3
 108 673 108 673 108 620 c 2,4,-1
 108 615 l 2,5,6
 108 552 108 552 178 500 c 0,7,8
 208 478 208 478 245.5 456.5 c 128,-1,9
 283 435 283 435 320.5 410.5 c 128,-1,10
 358 386 358 386 388.5 358.5 c 128,-1,11
 419 331 419 331 438.5 291 c 128,-1,12
 458 251 458 251 458 203 c 2,13,-1
 458 193 l 2,14,15
 458 98 458 98 393.5 42 c 128,-1,16
 329 -14 329 -14 234 -14 c 0,17,18
 109 -14 109 -14 40 89 c 1,19,-1
 40 143 l 1,20,21
 66 86 66 86 116.5 50.5 c 128,-1,22
 167 15 167 15 242 15 c 128,-1,23
 317 15 317 15 372 63 c 128,-1,24
 427 111 427 111 427 191 c 2,25,-1
 427 197 l 2,26,27
 427 247 427 247 401 288.5 c 128,-1,28
 375 330 375 330 336 356.5 c 128,-1,29
 297 383 297 383 251 412 c 128,-1,30
 205 441 205 441 166 466 c 128,-1,31
 127 491 127 491 101 529 c 128,-1,32
 75 567 75 567 75 612 c 2,33,-1
 75 619 l 2,34,35
 75 689 75 689 120 726 c 128,-1,36
 165 763 165 763 231 763 c 0,37,38
 323 763 323 763 377 695 c 1,39,-1
 377 644 l 1,40,0
 354 686 354 686 314.5 710 c 128,-1,1
298 944 m 1,41,-1
 339 944 l 1,42,-1
 200 829 l 1,43,-1
 158 829 l 1,44,-1
 298 944 l 1,41,-1
EndSplineSet
EndChar

StartChar: sacute
Encoding: 347 347 273
Width: 344
GlyphClass: 2
Flags: W
LayerCount: 2
Fore
SplineSet
158 434 m 0,0,1
 132 434 132 434 112 417 c 128,-1,2
 92 400 92 400 92 375 c 128,-1,3
 92 350 92 350 114.5 329 c 128,-1,4
 137 308 137 308 168.5 290.5 c 128,-1,5
 200 273 200 273 232 253 c 128,-1,6
 264 233 264 233 286.5 202 c 128,-1,7
 309 171 309 171 309 131 c 0,8,9
 309 72 309 72 264.5 30.5 c 128,-1,10
 220 -11 220 -11 157 -11 c 0,11,12
 117 -11 117 -11 82.5 6.5 c 128,-1,13
 48 24 48 24 32 53 c 1,14,-1
 32 101 l 1,15,16
 70 17 70 17 154 17 c 0,17,18
 206 17 206 17 241.5 49 c 128,-1,19
 277 81 277 81 277 120.5 c 128,-1,20
 277 160 277 160 254.5 187 c 128,-1,21
 232 214 232 214 200 233 c 128,-1,22
 168 252 168 252 136.5 270.5 c 128,-1,23
 105 289 105 289 82.5 315.5 c 128,-1,24
 60 342 60 342 60 377.5 c 128,-1,25
 60 413 60 413 88.5 437.5 c 128,-1,26
 117 462 117 462 162 462 c 128,-1,27
 207 462 207 462 239 427 c 1,28,-1
 239 386 l 1,29,30
 207 434 207 434 158 434 c 0,0,1
221 644 m 1,31,-1
 262 644 l 1,32,-1
 123 529 l 1,33,-1
 81 529 l 1,34,-1
 221 644 l 1,31,-1
EndSplineSet
EndChar

StartChar: Scircumflex
Encoding: 348 348 274
Width: 498
GlyphClass: 2
Flags: W
LayerCount: 2
Fore
SplineSet
314.5 710 m 128,-1,1
 275 734 275 734 226 734 c 128,-1,2
 177 734 177 734 142.5 703.5 c 128,-1,3
 108 673 108 673 108 620 c 2,4,-1
 108 615 l 2,5,6
 108 552 108 552 178 500 c 0,7,8
 208 478 208 478 245.5 456.5 c 128,-1,9
 283 435 283 435 320.5 410.5 c 128,-1,10
 358 386 358 386 388.5 358.5 c 128,-1,11
 419 331 419 331 438.5 291 c 128,-1,12
 458 251 458 251 458 203 c 2,13,-1
 458 193 l 2,14,15
 458 98 458 98 393.5 42 c 128,-1,16
 329 -14 329 -14 234 -14 c 0,17,18
 109 -14 109 -14 40 89 c 1,19,-1
 40 143 l 1,20,21
 66 86 66 86 116.5 50.5 c 128,-1,22
 167 15 167 15 242 15 c 128,-1,23
 317 15 317 15 372 63 c 128,-1,24
 427 111 427 111 427 191 c 2,25,-1
 427 197 l 2,26,27
 427 247 427 247 401 288.5 c 128,-1,28
 375 330 375 330 336 356.5 c 128,-1,29
 297 383 297 383 251 412 c 128,-1,30
 205 441 205 441 166 466 c 128,-1,31
 127 491 127 491 101 529 c 128,-1,32
 75 567 75 567 75 612 c 2,33,-1
 75 619 l 2,34,35
 75 689 75 689 120 726 c 128,-1,36
 165 763 165 763 231 763 c 0,37,38
 323 763 323 763 377 695 c 1,39,-1
 377 644 l 1,40,0
 354 686 354 686 314.5 710 c 128,-1,1
265 944 m 1,41,-1
 397 829 l 1,42,-1
 356 829 l 1,43,-1
 249 920 l 1,44,-1
 143 829 l 1,45,-1
 101 829 l 1,46,-1
 235 944 l 1,47,-1
 265 944 l 1,41,-1
EndSplineSet
EndChar

StartChar: scircumflex
Encoding: 349 349 275
Width: 344
GlyphClass: 2
Flags: W
LayerCount: 2
Fore
SplineSet
158 434 m 0,0,1
 132 434 132 434 112 417 c 128,-1,2
 92 400 92 400 92 375 c 128,-1,3
 92 350 92 350 114.5 329 c 128,-1,4
 137 308 137 308 168.5 290.5 c 128,-1,5
 200 273 200 273 232 253 c 128,-1,6
 264 233 264 233 286.5 202 c 128,-1,7
 309 171 309 171 309 131 c 0,8,9
 309 72 309 72 264.5 30.5 c 128,-1,10
 220 -11 220 -11 157 -11 c 0,11,12
 117 -11 117 -11 82.5 6.5 c 128,-1,13
 48 24 48 24 32 53 c 1,14,-1
 32 101 l 1,15,16
 70 17 70 17 154 17 c 0,17,18
 206 17 206 17 241.5 49 c 128,-1,19
 277 81 277 81 277 120.5 c 128,-1,20
 277 160 277 160 254.5 187 c 128,-1,21
 232 214 232 214 200 233 c 128,-1,22
 168 252 168 252 136.5 270.5 c 128,-1,23
 105 289 105 289 82.5 315.5 c 128,-1,24
 60 342 60 342 60 377.5 c 128,-1,25
 60 413 60 413 88.5 437.5 c 128,-1,26
 117 462 117 462 162 462 c 128,-1,27
 207 462 207 462 239 427 c 1,28,-1
 239 386 l 1,29,30
 207 434 207 434 158 434 c 0,0,1
188 644 m 1,31,-1
 320 529 l 1,32,-1
 279 529 l 1,33,-1
 172 620 l 1,34,-1
 66 529 l 1,35,-1
 24 529 l 1,36,-1
 158 644 l 1,37,-1
 188 644 l 1,31,-1
EndSplineSet
EndChar

StartChar: Scedilla
Encoding: 350 350 276
Width: 498
GlyphClass: 2
Flags: W
LayerCount: 2
Fore
SplineSet
209 -75 m 1,0,-1
 209 -13 l 1,1,2
 99 -3 99 -3 40 89 c 1,3,-1
 40 143 l 1,4,5
 66 86 66 86 116.5 50.5 c 128,-1,6
 167 15 167 15 242 15 c 128,-1,7
 317 15 317 15 372 63 c 128,-1,8
 427 111 427 111 427 191 c 2,9,-1
 427 197 l 2,10,11
 427 247 427 247 401 288.5 c 128,-1,12
 375 330 375 330 336 356.5 c 128,-1,13
 297 383 297 383 251 412 c 128,-1,14
 205 441 205 441 166 466 c 128,-1,15
 127 491 127 491 101 529 c 128,-1,16
 75 567 75 567 75 612 c 2,17,-1
 75 619 l 2,18,19
 75 689 75 689 120 726 c 128,-1,20
 165 763 165 763 231 763 c 0,21,22
 323 763 323 763 377 695 c 1,23,-1
 377 644 l 1,24,25
 354 686 354 686 314.5 710 c 128,-1,26
 275 734 275 734 226 734 c 128,-1,27
 177 734 177 734 142.5 703.5 c 128,-1,28
 108 673 108 673 108 620 c 2,29,-1
 108 615 l 2,30,31
 108 552 108 552 178 500 c 0,32,33
 208 478 208 478 245.5 456.5 c 128,-1,34
 283 435 283 435 320.5 410.5 c 128,-1,35
 358 386 358 386 388.5 358.5 c 128,-1,36
 419 331 419 331 438.5 291 c 128,-1,37
 458 251 458 251 458 203 c 2,38,-1
 458 193 l 2,39,40
 458 98 458 98 393.5 42 c 128,-1,41
 329 -14 329 -14 234 -14 c 1,42,-1
 234 -49 l 1,43,-1
 244 -49 l 2,44,45
 276 -49 276 -49 298.5 -71 c 128,-1,46
 321 -93 321 -93 321 -123 c 2,47,-1
 321 -127 l 2,48,49
 321 -157 321 -157 299 -178.5 c 128,-1,50
 277 -200 277 -200 244 -200 c 2,51,-1
 209 -200 l 1,52,-1
 209 -175 l 1,53,-1
 244 -175 l 2,54,55
 267 -175 267 -175 282 -160.5 c 128,-1,56
 297 -146 297 -146 297 -125 c 128,-1,57
 297 -104 297 -104 282 -89.5 c 128,-1,58
 267 -75 267 -75 244 -75 c 2,59,-1
 209 -75 l 1,0,-1
EndSplineSet
EndChar

StartChar: scedilla
Encoding: 351 351 277
Width: 344
GlyphClass: 2
Flags: W
LayerCount: 2
Fore
SplineSet
130 -75 m 1,0,-1
 130 -9 l 1,1,2
 58 3 58 3 32 53 c 1,3,-1
 32 101 l 1,4,5
 70 17 70 17 154 17 c 0,6,7
 206 17 206 17 241.5 49 c 128,-1,8
 277 81 277 81 277 120.5 c 128,-1,9
 277 160 277 160 254.5 187 c 128,-1,10
 232 214 232 214 200 233 c 128,-1,11
 168 252 168 252 136.5 270.5 c 128,-1,12
 105 289 105 289 82.5 315.5 c 128,-1,13
 60 342 60 342 60 377.5 c 128,-1,14
 60 413 60 413 88.5 437.5 c 128,-1,15
 117 462 117 462 162 462 c 128,-1,16
 207 462 207 462 239 427 c 1,17,-1
 239 386 l 1,18,19
 207 434 207 434 158 434 c 0,20,21
 132 434 132 434 112 417 c 128,-1,22
 92 400 92 400 92 375 c 128,-1,23
 92 350 92 350 114.5 329 c 128,-1,24
 137 308 137 308 168.5 290.5 c 128,-1,25
 200 273 200 273 232 253 c 128,-1,26
 264 233 264 233 286.5 202 c 128,-1,27
 309 171 309 171 309 131 c 0,28,29
 309 72 309 72 264.5 30.5 c 128,-1,30
 220 -11 220 -11 157 -11 c 2,31,-1
 155 -11 l 1,32,-1
 155 -49 l 1,33,-1
 165 -49 l 2,34,35
 197 -49 197 -49 219.5 -71 c 128,-1,36
 242 -93 242 -93 242 -123 c 2,37,-1
 242 -127 l 2,38,39
 242 -157 242 -157 220 -178.5 c 128,-1,40
 198 -200 198 -200 165 -200 c 2,41,-1
 130 -200 l 1,42,-1
 130 -175 l 1,43,-1
 165 -175 l 2,44,45
 188 -175 188 -175 203 -160.5 c 128,-1,46
 218 -146 218 -146 218 -125 c 128,-1,47
 218 -104 218 -104 203 -89.5 c 128,-1,48
 188 -75 188 -75 165 -75 c 2,49,-1
 130 -75 l 1,0,-1
EndSplineSet
EndChar

StartChar: Scaron
Encoding: 352 352 278
Width: 518
GlyphClass: 2
Flags: W
LayerCount: 2
Fore
SplineSet
324.5 710 m 128,-1,1
 285 734 285 734 236 734 c 128,-1,2
 187 734 187 734 152.5 703.5 c 128,-1,3
 118 673 118 673 118 620 c 2,4,-1
 118 615 l 2,5,6
 118 552 118 552 188 500 c 0,7,8
 218 478 218 478 255.5 456.5 c 128,-1,9
 293 435 293 435 330.5 410.5 c 128,-1,10
 368 386 368 386 398.5 358.5 c 128,-1,11
 429 331 429 331 448.5 291 c 128,-1,12
 468 251 468 251 468 203 c 2,13,-1
 468 193 l 2,14,15
 468 98 468 98 403.5 42 c 128,-1,16
 339 -14 339 -14 244 -14 c 0,17,18
 119 -14 119 -14 50 89 c 1,19,-1
 50 143 l 1,20,21
 76 86 76 86 126.5 50.5 c 128,-1,22
 177 15 177 15 252 15 c 128,-1,23
 327 15 327 15 382 63 c 128,-1,24
 437 111 437 111 437 191 c 2,25,-1
 437 197 l 2,26,27
 437 247 437 247 411 288.5 c 128,-1,28
 385 330 385 330 346 356.5 c 128,-1,29
 307 383 307 383 261 412 c 128,-1,30
 215 441 215 441 176 466 c 128,-1,31
 137 491 137 491 111 529 c 128,-1,32
 85 567 85 567 85 612 c 2,33,-1
 85 619 l 2,34,35
 85 689 85 689 130 726 c 128,-1,36
 175 763 175 763 241 763 c 0,37,38
 333 763 333 763 387 695 c 1,39,-1
 387 644 l 1,40,0
 364 686 364 686 324.5 710 c 128,-1,1
407 944 m 1,41,-1
 275 829 l 1,42,-1
 245 829 l 1,43,-1
 111 944 l 1,44,-1
 153 944 l 1,45,-1
 259 853 l 1,46,-1
 366 944 l 1,47,-1
 407 944 l 1,41,-1
EndSplineSet
EndChar

StartChar: scaron
Encoding: 353 353 279
Width: 364
GlyphClass: 2
Flags: W
LayerCount: 2
Fore
SplineSet
168 434 m 0,0,1
 142 434 142 434 122 417 c 128,-1,2
 102 400 102 400 102 375 c 128,-1,3
 102 350 102 350 124.5 329 c 128,-1,4
 147 308 147 308 178.5 290.5 c 128,-1,5
 210 273 210 273 242 253 c 128,-1,6
 274 233 274 233 296.5 202 c 128,-1,7
 319 171 319 171 319 131 c 0,8,9
 319 72 319 72 274.5 30.5 c 128,-1,10
 230 -11 230 -11 167 -11 c 0,11,12
 127 -11 127 -11 92.5 6.5 c 128,-1,13
 58 24 58 24 42 53 c 1,14,-1
 42 101 l 1,15,16
 80 17 80 17 164 17 c 0,17,18
 216 17 216 17 251.5 49 c 128,-1,19
 287 81 287 81 287 120.5 c 128,-1,20
 287 160 287 160 264.5 187 c 128,-1,21
 242 214 242 214 210 233 c 128,-1,22
 178 252 178 252 146.5 270.5 c 128,-1,23
 115 289 115 289 92.5 315.5 c 128,-1,24
 70 342 70 342 70 377.5 c 128,-1,25
 70 413 70 413 98.5 437.5 c 128,-1,26
 127 462 127 462 172 462 c 128,-1,27
 217 462 217 462 249 427 c 1,28,-1
 249 386 l 1,29,30
 217 434 217 434 168 434 c 0,0,1
330 644 m 1,31,-1
 198 529 l 1,32,-1
 168 529 l 1,33,-1
 34 644 l 1,34,-1
 76 644 l 1,35,-1
 182 553 l 1,36,-1
 289 644 l 1,37,-1
 330 644 l 1,31,-1
EndSplineSet
EndChar

StartChar: uni0162
Encoding: 354 354 280
Width: 417
GlyphClass: 2
Flags: W
LayerCount: 2
Fore
SplineSet
397 750 m 1,0,-1
 397 721 l 1,1,-1
 226 721 l 1,2,-1
 226 0 l 1,3,-1
 193 0 l 1,4,-1
 193 721 l 1,5,-1
 20 721 l 1,6,-1
 20 750 l 1,7,-1
 397 750 l 1,0,-1
205 -195 m 1,8,-1
 205 -139 l 1,9,10
 174 -139 174 -139 174 -108 c 128,-1,11
 174 -77 174 -77 208.5 -77 c 128,-1,12
 243 -77 243 -77 243 -108 c 0,13,14
 243 -115 243 -115 240 -124 c 2,15,-1
 209 -195 l 1,16,-1
 205 -195 l 1,8,-1
EndSplineSet
EndChar

StartChar: uni0163
Encoding: 355 355 281
Width: 241
GlyphClass: 2
Flags: W
LayerCount: 2
Fore
SplineSet
221 22 m 1,0,-1
 221 -6 l 1,1,2
 150 -6 150 -6 100 41.5 c 128,-1,3
 50 89 50 89 50 163 c 2,4,-1
 50 631 l 1,5,-1
 82 631 l 1,6,-1
 82 449 l 1,7,-1
 220 449 l 1,8,-1
 220 421 l 1,9,-1
 82 421 l 1,10,-1
 82 163 l 2,11,12
 82 102 82 102 122.5 62 c 128,-1,13
 163 22 163 22 221 22 c 1,0,-1
136 -195 m 1,14,-1
 136 -139 l 1,15,16
 105 -139 105 -139 105 -108 c 128,-1,17
 105 -77 105 -77 139.5 -77 c 128,-1,18
 174 -77 174 -77 174 -108 c 0,19,20
 174 -115 174 -115 171 -124 c 2,21,-1
 140 -195 l 1,22,-1
 136 -195 l 1,14,-1
EndSplineSet
EndChar

StartChar: Tcaron
Encoding: 356 356 282
Width: 417
GlyphClass: 2
Flags: W
LayerCount: 2
Fore
SplineSet
397 750 m 1,0,-1
 397 721 l 1,1,-1
 226 721 l 1,2,-1
 226 0 l 1,3,-1
 193 0 l 1,4,-1
 193 721 l 1,5,-1
 20 721 l 1,6,-1
 20 750 l 1,7,-1
 397 750 l 1,0,-1
356 944 m 1,8,-1
 224 829 l 1,9,-1
 194 829 l 1,10,-1
 60 944 l 1,11,-1
 102 944 l 1,12,-1
 208 853 l 1,13,-1
 315 944 l 1,14,-1
 356 944 l 1,8,-1
EndSplineSet
EndChar

StartChar: tcaron
Encoding: 357 357 283
Width: 274
GlyphClass: 2
Flags: W
LayerCount: 2
Fore
SplineSet
221 22 m 1,0,-1
 221 -6 l 1,1,2
 150 -6 150 -6 100 41.5 c 128,-1,3
 50 89 50 89 50 163 c 2,4,-1
 50 631 l 1,5,-1
 82 631 l 1,6,-1
 82 449 l 1,7,-1
 220 449 l 1,8,-1
 220 421 l 1,9,-1
 82 421 l 1,10,-1
 82 163 l 2,11,12
 82 102 82 102 122.5 62 c 128,-1,13
 163 22 163 22 221 22 c 1,0,-1
191 513 m 1,14,-1
 191 569 l 1,15,16
 160 569 160 569 160 600 c 128,-1,17
 160 631 160 631 194.5 631 c 128,-1,18
 229 631 229 631 229 600 c 0,19,20
 229 593 229 593 226 584 c 2,21,-1
 195 513 l 1,22,-1
 191 513 l 1,14,-1
EndSplineSet
EndChar

StartChar: Tbar
Encoding: 358 358 284
Width: 417
GlyphClass: 2
Flags: W
LayerCount: 2
Fore
SplineSet
397 750 m 1,0,-1
 397 721 l 1,1,-1
 226 721 l 1,2,-1
 226 304 l 1,3,-1
 344 304 l 1,4,-1
 344 275 l 1,5,-1
 226 275 l 1,6,-1
 226 0 l 1,7,-1
 193 0 l 1,8,-1
 193 275 l 1,9,-1
 75 275 l 1,10,-1
 75 304 l 1,11,-1
 193 304 l 1,12,-1
 193 721 l 1,13,-1
 20 721 l 1,14,-1
 20 750 l 1,15,-1
 397 750 l 1,0,-1
EndSplineSet
EndChar

StartChar: tbar
Encoding: 359 359 285
Width: 250
GlyphClass: 2
Flags: W
LayerCount: 2
Fore
SplineSet
232 22 m 1,0,-1
 232 -6 l 1,1,2
 161 -6 161 -6 111 41.5 c 128,-1,3
 61 89 61 89 61 163 c 2,4,-1
 61 524 l 1,5,-1
 10 524 l 1,6,-1
 10 550 l 1,7,-1
 61 550 l 1,8,-1
 61 631 l 1,9,-1
 93 631 l 1,10,-1
 93 550 l 1,11,-1
 219 550 l 1,12,-1
 219 524 l 1,13,-1
 93 524 l 1,14,-1
 93 449 l 1,15,-1
 231 449 l 1,16,-1
 231 421 l 1,17,-1
 93 421 l 1,18,-1
 93 163 l 2,19,20
 93 102 93 102 133.5 62 c 128,-1,21
 174 22 174 22 232 22 c 1,0,-1
EndSplineSet
EndChar

StartChar: Utilde
Encoding: 360 360 286
Width: 597
GlyphClass: 2
Flags: W
LayerCount: 2
Fore
SplineSet
304 -14 m 2,0,-1
 294 -14 l 2,1,2
 202 -14 202 -14 138.5 50 c 128,-1,3
 75 114 75 114 75 211 c 2,4,-1
 75 750 l 1,5,-1
 108 750 l 1,6,-1
 108 212 l 2,7,8
 108 127 108 127 163 71 c 128,-1,9
 218 15 218 15 299 15 c 128,-1,10
 380 15 380 15 434.5 70.5 c 128,-1,11
 489 126 489 126 489 212 c 2,12,-1
 489 750 l 1,13,-1
 522 750 l 1,14,-1
 522 213 l 2,15,16
 522 115 522 115 458.5 50.5 c 128,-1,17
 395 -14 395 -14 304 -14 c 2,0,-1
379 847 m 0,18,19
 350 847 350 847 300.5 874.5 c 128,-1,20
 251 902 251 902 221 901.5 c 128,-1,21
 191 901 191 901 159 848 c 1,22,-1
 128 848 l 1,23,24
 167 928 167 928 223 928 c 2,25,-1
 232 928 l 2,26,27
 262 928 262 928 307 901.5 c 128,-1,28
 352 875 352 875 379.5 875 c 128,-1,29
 407 875 407 875 438 924 c 1,30,-1
 469 924 l 1,31,32
 422 847 422 847 379 847 c 0,18,19
EndSplineSet
EndChar

StartChar: utilde
Encoding: 361 361 287
Width: 504
GlyphClass: 2
Flags: W
LayerCount: 2
Fore
SplineSet
422 450 m 1,0,-1
 454 450 l 1,1,-1
 454 0 l 1,2,-1
 422 0 l 1,3,-1
 422 91 l 1,4,5
 371 -11 371 -11 248 -11 c 0,6,7
 164 -11 164 -11 107 47 c 128,-1,8
 50 105 50 105 50 188 c 2,9,-1
 50 450 l 1,10,-1
 82 450 l 1,11,-1
 82 188 l 2,12,13
 82 119 82 119 130.5 68 c 128,-1,14
 179 17 179 17 248 17 c 128,-1,15
 317 17 317 17 369.5 68 c 128,-1,16
 422 119 422 119 422 188 c 2,17,-1
 422 450 l 1,0,-1
332 547 m 0,18,19
 303 547 303 547 253.5 574.5 c 128,-1,20
 204 602 204 602 174 601.5 c 128,-1,21
 144 601 144 601 112 548 c 1,22,-1
 81 548 l 1,23,24
 120 628 120 628 176 628 c 2,25,-1
 185 628 l 2,26,27
 215 628 215 628 260 601.5 c 128,-1,28
 305 575 305 575 332.5 575 c 128,-1,29
 360 575 360 575 391 624 c 1,30,-1
 422 624 l 1,31,32
 375 547 375 547 332 547 c 0,18,19
EndSplineSet
EndChar

StartChar: Umacron
Encoding: 362 362 288
Width: 597
GlyphClass: 2
Flags: W
LayerCount: 2
Fore
SplineSet
304 -14 m 2,0,-1
 294 -14 l 2,1,2
 202 -14 202 -14 138.5 50 c 128,-1,3
 75 114 75 114 75 211 c 2,4,-1
 75 750 l 1,5,-1
 108 750 l 1,6,-1
 108 212 l 2,7,8
 108 127 108 127 163 71 c 128,-1,9
 218 15 218 15 299 15 c 128,-1,10
 380 15 380 15 434.5 70.5 c 128,-1,11
 489 126 489 126 489 212 c 2,12,-1
 489 750 l 1,13,-1
 522 750 l 1,14,-1
 522 213 l 2,15,16
 522 115 522 115 458.5 50.5 c 128,-1,17
 395 -14 395 -14 304 -14 c 2,0,-1
397 866 m 1,18,-1
 200 866 l 1,19,-1
 200 894 l 1,20,-1
 397 894 l 1,21,-1
 397 866 l 1,18,-1
EndSplineSet
EndChar

StartChar: umacron
Encoding: 363 363 289
Width: 504
GlyphClass: 2
Flags: W
LayerCount: 2
Fore
SplineSet
422 450 m 1,0,-1
 454 450 l 1,1,-1
 454 0 l 1,2,-1
 422 0 l 1,3,-1
 422 91 l 1,4,5
 371 -11 371 -11 248 -11 c 0,6,7
 164 -11 164 -11 107 47 c 128,-1,8
 50 105 50 105 50 188 c 2,9,-1
 50 450 l 1,10,-1
 82 450 l 1,11,-1
 82 188 l 2,12,13
 82 119 82 119 130.5 68 c 128,-1,14
 179 17 179 17 248 17 c 128,-1,15
 317 17 317 17 369.5 68 c 128,-1,16
 422 119 422 119 422 188 c 2,17,-1
 422 450 l 1,0,-1
350 566 m 1,18,-1
 153 566 l 1,19,-1
 153 594 l 1,20,-1
 350 594 l 1,21,-1
 350 566 l 1,18,-1
EndSplineSet
EndChar

StartChar: Ubreve
Encoding: 364 364 290
Width: 597
GlyphClass: 2
Flags: W
LayerCount: 2
Fore
SplineSet
304 -14 m 2,0,-1
 294 -14 l 2,1,2
 202 -14 202 -14 138.5 50 c 128,-1,3
 75 114 75 114 75 211 c 2,4,-1
 75 750 l 1,5,-1
 108 750 l 1,6,-1
 108 212 l 2,7,8
 108 127 108 127 163 71 c 128,-1,9
 218 15 218 15 299 15 c 128,-1,10
 380 15 380 15 434.5 70.5 c 128,-1,11
 489 126 489 126 489 212 c 2,12,-1
 489 750 l 1,13,-1
 522 750 l 1,14,-1
 522 213 l 2,15,16
 522 115 522 115 458.5 50.5 c 128,-1,17
 395 -14 395 -14 304 -14 c 2,0,-1
233 880.5 m 128,-1,19
 262 853 262 853 297.5 853 c 128,-1,20
 333 853 333 853 361.5 880.5 c 128,-1,21
 390 908 390 908 394 944 c 1,22,-1
 423 944 l 1,23,24
 421 897 421 897 385.5 862.5 c 128,-1,25
 350 828 350 828 302 828 c 2,26,-1
 294 828 l 2,27,28
 246 828 246 828 211 862 c 128,-1,29
 176 896 176 896 174 944 c 1,30,-1
 202 944 l 1,31,18
 204 908 204 908 233 880.5 c 128,-1,19
EndSplineSet
EndChar

StartChar: ubreve
Encoding: 365 365 291
Width: 504
GlyphClass: 2
Flags: W
LayerCount: 2
Fore
SplineSet
422 450 m 1,0,-1
 454 450 l 1,1,-1
 454 0 l 1,2,-1
 422 0 l 1,3,-1
 422 91 l 1,4,5
 371 -11 371 -11 248 -11 c 0,6,7
 164 -11 164 -11 107 47 c 128,-1,8
 50 105 50 105 50 188 c 2,9,-1
 50 450 l 1,10,-1
 82 450 l 1,11,-1
 82 188 l 2,12,13
 82 119 82 119 130.5 68 c 128,-1,14
 179 17 179 17 248 17 c 128,-1,15
 317 17 317 17 369.5 68 c 128,-1,16
 422 119 422 119 422 188 c 2,17,-1
 422 450 l 1,0,-1
186 580.5 m 128,-1,19
 215 553 215 553 250.5 553 c 128,-1,20
 286 553 286 553 314.5 580.5 c 128,-1,21
 343 608 343 608 347 644 c 1,22,-1
 376 644 l 1,23,24
 374 597 374 597 338.5 562.5 c 128,-1,25
 303 528 303 528 255 528 c 2,26,-1
 247 528 l 2,27,28
 199 528 199 528 164 562 c 128,-1,29
 129 596 129 596 127 644 c 1,30,-1
 155 644 l 1,31,18
 157 608 157 608 186 580.5 c 128,-1,19
EndSplineSet
EndChar

StartChar: Uring
Encoding: 366 366 292
Width: 597
GlyphClass: 2
Flags: W
LayerCount: 2
Fore
SplineSet
304 -14 m 2,0,-1
 294 -14 l 2,1,2
 202 -14 202 -14 138.5 50 c 128,-1,3
 75 114 75 114 75 211 c 2,4,-1
 75 750 l 1,5,-1
 108 750 l 1,6,-1
 108 212 l 2,7,8
 108 127 108 127 163 71 c 128,-1,9
 218 15 218 15 299 15 c 128,-1,10
 380 15 380 15 434.5 70.5 c 128,-1,11
 489 126 489 126 489 212 c 2,12,-1
 489 750 l 1,13,-1
 522 750 l 1,14,-1
 522 213 l 2,15,16
 522 115 522 115 458.5 50.5 c 128,-1,17
 395 -14 395 -14 304 -14 c 2,0,-1
300 812 m 2,18,-1
 296 812 l 2,19,20
 266 812 266 812 244.5 834.5 c 128,-1,21
 223 857 223 857 223 887.5 c 128,-1,22
 223 918 223 918 245 940 c 128,-1,23
 267 962 267 962 298.5 962 c 128,-1,24
 330 962 330 962 352 940 c 128,-1,25
 374 918 374 918 374 887.5 c 128,-1,26
 374 857 374 857 352 834.5 c 128,-1,27
 330 812 330 812 300 812 c 2,18,-1
333.5 923 m 128,-1,29
 319 938 319 938 298.5 938 c 128,-1,30
 278 938 278 938 263 922.5 c 128,-1,31
 248 907 248 907 248 887 c 128,-1,32
 248 867 248 867 263 851.5 c 128,-1,33
 278 836 278 836 298.5 836 c 128,-1,34
 319 836 319 836 333.5 851 c 128,-1,35
 348 866 348 866 348 887 c 128,-1,28
 348 908 348 908 333.5 923 c 128,-1,29
EndSplineSet
EndChar

